<?xml version="1.0" standalone="no"?>
<!DOCTYPE svg PUBLIC "-//W3C//DTD SVG 20010904//EN"
 "http://www.w3.org/TR/2001/REC-SVG-20010904/DTD/svg10.dtd">
    <svg
      version="1.0"
      xmlns="http://www.w3.org/2000/svg"
      viewBox="0 0 512.000000 512.000000"
      preserveAspectRatio="xMidYMid meet"
    >
      <metadata>
        Created by potrace 1.16, written by Peter Selinger 2001-2019
      </metadata>
      <g
        transform="translate(0.000000,512.000000) scale(0.100000,-0.100000)"
        fill="#ffffff"
        stroke="none"
      >
        <path
          d="M2395 5029 c-16 -6 -46 -24 -65 -39 -33 -25 -43 -27 -170 -33 -232
-11 -452 -70 -695 -186 -267 -128 -465 -271 -695 -501 -409 -408 -657 -877
-736 -1390 -25 -163 -25 -511 0 -675 39 -254 135 -564 243 -779 122 -243 341
-532 535 -707 406 -365 898 -560 1516 -601 604 -40 1277 130 1770 449 753 486
1147 1459 972 2403 -43 227 -102 405 -206 614 -414 832 -1337 1410 -2315 1451
-79 3 -135 1 -154 -6z m-135 -232 c0 -46 38 -115 83 -151 37 -29 38 -30 238
-43 302 -19 492 -57 745 -148 543 -197 992 -583 1237 -1063 145 -284 208 -552
208 -881 -1 -628 -270 -1205 -728 -1565 -332 -260 -797 -434 -1302 -487 -158
-17 -520 -6 -671 20 -406 68 -711 205 -999 446 -400 336 -684 867 -751 1405
-15 124 -12 384 5 503 54 364 202 700 453 1031 100 133 352 385 472 473 255
187 500 312 905 462 103 38 105 38 105 -2z"
        />
        <path
          d="M2610 3783 c-8 -4 -78 -45 -155 -93 -77 -48 -225 -140 -330 -205
-378 -234 -704 -465 -844 -599 l-86 -83 -35 14 c-142 60 -291 -108 -220 -247
25 -49 10 -37 660 -487 294 -203 635 -442 758 -531 122 -88 236 -163 252 -167
69 -15 147 35 170 110 7 22 15 115 17 207 3 93 7 168 9 168 4 0 424 -265 623
-393 73 -48 149 -89 167 -93 49 -9 124 30 146 76 31 64 42 233 30 480 -7 149
-7 408 -2 765 16 1038 18 997 -27 1037 -33 30 -91 49 -128 42 -37 -7 -392
-227 -555 -344 -52 -37 -131 -101 -175 -142 l-80 -75 3 231 c4 228 3 231 -20
265 -39 57 -120 86 -178 64z m865 -1188 c0 -432 -2 -785 -3 -785 -9 0 -422
301 -544 397 l-137 108 -1 101 c0 55 3 215 7 355 l6 255 71 39 c39 21 190 101
336 177 146 75 265 138 265 138 0 0 0 -353 0 -785z m-978 -15 c1 -587 -2 -779
-10 -772 -7 5 -48 35 -92 67 -256 187 -535 400 -877 673 l-208 166 53 29 c28
15 149 78 267 139 233 121 570 306 745 411 61 36 112 66 115 67 3 0 6 -351 7
-780z"
        />
      </g>
    </svg>
