<?xml version="1.0" encoding="utf-8"?>
<!-- Generator: Adobe Illustrator 26.0.3, SVG Export Plug-In . SVG Version: 6.00 Build 0)  -->
<svg version="1.1" id="Layer_1" xmlns="http://www.w3.org/2000/svg" xmlns:xlink="http://www.w3.org/1999/xlink" x="0px" y="0px"
	 viewBox="0 0 512 512" style="enable-background:new 0 0 512 512;" xml:space="preserve">
<style type="text/css">
	.st0{fill:#FFFFFF;}
	.st1{fill:#231F20;}
</style>
<g transform="translate(0.000000,512.000000) scale(0.100000,-0.100000)">
	<g>
		<path class="st0" d="M4868,3136c-82,76-207,145-448,249c-219,94-274,136-517,391c-61,64-153,138-202,164c-22,11-72,31-113,44
			c-70,24-73,26-74,58c-9,236-100,357-320,425c-82,25-348,25-446-1c-67-17-68-17-125,5c-48,18-82,22-203,25c-93,2-165-1-200-10
			c-171-39-257-87-400-220c-60-55-172-159-249-231c-79-74-177-154-226-185c-203-129-446-365-601-585c-167-236-287-496-362-785
			c-38-145-51-256-61-510c-9-226-3-205-93-345c-114-176-148-277-148-440v-108l43,7c71,11,233,103,452,256c141,100,482,382,631,523
			c39,37,74,67,77,67c2,0,12-24,22-52c29-90,81-147,184-203c47-26,56-35,53-55c-2-14-4-70-5-125c-3-128,21-196,102-292
			c70-83,141-132,288-198l116-51l21-60c42-115,106-186,213-236c121-57,308-71,513-37c178,28,430,120,544,198l30,20l31-28
			c106-93,412-135,630-88c216,48,318,196,256,375l-18,54l47,54c26,30,65,87,86,127c34,65,38,81,42,165c3,72,0,103-13,138
			c-9,25-15,48-12,51c8,8,141-70,236-138c45-32,86-59,90-59s11,36,14,80c6,72,42,233,97,431c11,41,20,81,20,91s16,43,36,74
			c75,118,117,246,136,420C5066,2809,5002,3013,4868,3136z M3970,780c-68-13-268-14-327-2c-76,16-182,71-231,120c-23,23-45,42-47,42
			c-3,0-26-15-52-34c-66-47-193-108-288-139c-243-80-536-105-675-59c-118,40-202,114-215,192c-29,169,119,365,362,477
			c75,35,258,93,292,93c10,0,25,6,35,13c17,13,17,14,2,20c-20,8-163-11-188-24c-21-12-38-12-38,0c0,13,132,109,203,147
			c80,43,102,44,94,5c-4-16-2-64,2-106c21-187,153-341,371-434c73-32,106-39,224-51c224-22,412,33,534,158c37,38,23,41,124-26
			c41-27,88-108,88-152C4240,903,4138,812,3970,780z M4340,1444c-16-47-119-224-131-224c-12,0-99,62-99,71c0,4,7,36,16,70
			c27,107,1,208-78,303c-42,51-187,146-268,175c-129,47-120,36-65,85l49,43l44-34c41-31,62-40,62-27c0,3-26,36-58,72
			c-32,37-89,108-127,157c-136,179-229,255-312,255c-43,0-96-28-113-59c-6-12-18-21-27-21c-27,0-11,154,23,225c32,69,69,91,137,81
			c76-12,125-65,197-211c33-68,60-128,60-133s7-15,16-23c13-11,14-9,8,17c-45,190-151,358-242,384c-107,29-179-20-234-161
			c-30-77-30-232-1-307c64-161,154-228,469-351c140-55,229-103,282-154c84-80,125-235,87-333c-34-90-113-155-235-195
			c-64-20-94-24-210-23c-112,0-148,4-210,23c-239,74-382,218-396,399c-3,37-2,85,3,107c9,39,10,40,51,38c60-3,94-31,132-112
			c19-38,37-68,40-66c12,8-6,91-31,140c-32,66-65,88-138,93c-78,6-171-23-271-82c-89-53-226-161-257-204c-15-20-53-45-105-70
			c-166-78-283-198-327-334c-7-21-17-38-23-38c-6,0-49,20-95,45c-264,143-363,281-350,486c9,145,47,209,239,405
			c118,121,143,154,119,154c-6,0-43-26-83-59c-86-69-201-193-258-280c-23-34-48-65-57-68c-35-14-141,63-172,126
			c-25,49-44,135-36,161c4,11,25,33,48,48c135,87,367,294,367,328c0,21-16,17-52-14c-18-16-143-112-278-214
			c-135-101-254-192-265-200c-64-52-204-173-269-232c-42-38-79-66-82-63c-6,5,145,247,210,335c237,327,493,521,791,599
			c38,10,66,23,64,28c-7,18-131,9-199-14c-170-59-297-139-444-281c-126-122-209-222-401-485c-179-246-259-344-263-323
			c-4,21,58,171,110,268c56,102,148,234,257,364c50,60,89,112,86,115c-8,8-150-137-198-201c-37-52-57-70-57-51c0,16,101,165,170,252
			c181,225,399,391,592,450c38,11,80,27,95,36c27,16,26,16-43,11c-210-14-426-157-628-414c-43-54-66-74-66-57c0,17,83,148,127,200
			c80,95,102,115,220,194c75,51,165,89,268,115c106,26,155,29,250,11c176-32,162-31,143-9c-36,41-114,59-248,59c-105,0-136-4-195-24
			c-138-47-225-98-383-225c-56-46-151-165-196-247c-20-36-45-101-56-143c-21-84-29-100-131-251c-130-195-157-256-188-441
			c-24-137-44-174-123-226c-66-44-212-118-233-118s-29,41-22,121c7,78,25,126,98,246c96,158,109,193,118,312c7,92,13,117,46,191
			c49,107,175,320,228,383c47,57,155,151,261,226c69,50,89,71,68,71c-10,0-133-76-192-118c-65-48-175-157-232-232
			c-28-36-71-109-96-162c-26-54-50-97-54-98c-14,0,4,194,20,220c69,110,344,400,449,473c70,49,265,145,388,192c107,40,133,55,97,55
			c-55,0-284-78-379-130c-197-106-368-257-473-417c-76-116-89-111-45,17c38,111,119,206,380,444c160,145,218,186,365,257
			c157,77,175,84,305,129c138,47,167,66,87,56c-55-7-320-89-362-112c-14-7-50-25-80-39c-181-82-455-303-540-435c-29-46-60-71-60-50
			c0,16,108,227,158,310c133,221,312,404,471,485c101,50,326,116,451,131c104,13,223,15,290,4c41-6,90-14,108-17c29-5,33-3,30,13
			c-2,10-23,30-48,44c-39,22-57,25-137,25c-51-1-93,2-93,6c0,15,28,28,94,44c155,39,357,35,514-9c176-50,292-115,406-229
			c37-38,70-66,73-63c3,3-12,29-33,57c-115,157-267,256-465,305c-91,23-117,25-238,21c-75-3-149-7-166-10c-71-11-212-55-310-98
			c-96-41-328-119-357-119c-20,0-5,31,25,51c17,12,37,27,42,34c44,50,272,168,433,224c176,60,266,75,477,75c188,0,191,0,285-32
			c52-17,118-47,145-65c100-68,179-172,214-279c19-59,35-60,28-3c-20,146-179,325-362,411c-112,52-193,69-330,68
			c-105,0-134-4-230-33c-99-28-287-112-387-172c-21-13-41-19-45-15c-16,16,136,120,262,180c112,54,154,68,280,95c17,3,89,6,160,5
			c113-1,140-5,210-28c239-81,403-246,470-474c12-40,26-72,31-70c23,7-9,146-57,245c-45,94-118,175-221,245c-59,40-98,58-233,108
			c-20,8-25,14-16,19c15,10,138-22,195-51c53-27,154-99,185-132c46-49,57-25,14,30c-34,45-132,114-203,143c-181,74-554,36-779-79
			c-80-40-66-7,34,80c79,69,179,123,281,151c57,16,94,18,209,15c125-3,149-7,221-33c120-43,219-106,305-193c82-82,136-176,164-280
			c19-73,19-224-1-311c-9-39-14-73-11-75c3-3,17,20,32,51c81,165,47,414-83,609c-43,66-166,196-184,196c-4,0-8,7-8,15
			c0,21,60,29,179,22c217-13,362-90,410-219c18-48,23-142,11-208c-16-91-66-178-170-300c-49-57-95-116-102-130c-7-14-25-40-40-58
			c-16-18-28-37-28-42c0-25,35-4,110,65c72,66,120,93,120,67c0-5,36-37,80-72c133-104,229-227,278-355c44-117,56-218,48-414
			c-17-441-18-478-7-536c30-160,120-260,360-399c162-94,206-129,236-192C4349,1574,4356,1493,4340,1444z M3508,2046
			c20,10,46,37,59,59c12,22,26,40,31,40c7,0,53-53,115-133c12-15-14-47-57-69c-39-20-114-12-186,19c-92,41-201,156-200,210
			c1,7,13-3,28-22s41-49,59-66c18-17,51-37,74-44C3468,2027,3476,2028,3508,2046z M3480.4,2192.6c64.5,0,64.3-100,0-100
			C3416,2092.6,3416.1,2192.6,3480.4,2192.6z M4981,2546c-14-110-60-267-80-274c-16-5-13,33,14,181c30,167-2,317-91,436
			c-85,113-194,182-354,222c-70,17-106,20-205,17c-73-3-142-11-175-22c-30-9-66-20-79-24c-13-4-26-13-29-19c-6-20,55-16,116,7
			c66,25,263,28,361,5c204-49,342-200,387-425c13-67,16-115,11-230c-7-162-25-284-55-360c-3-8-11,44-18,115c-15,160-19,177-55,290
			c-91,286-318,475-570,475c-79,0-68-16,21-31c123-20,226-67,308-143c196-180,283-500,241-887c-19-171-42-221-73-160
			c-20,38-20,121-1,232c18,101,23,194,12,205c-20,20-26-13-57-316c-6-57-15-109-20-114c-6-6-19-5-36,2c-103,47-172,167-208,363
			c-68,358-82,406-148,506c-43,64-147,109-240,104c-28-2-21-20,10-27c137-30,216-121,271-311c35-124,77-350,66-361
			c-14-14-36,32-64,137c-32,120-45,147-57,116c-13-33,25-146,87-259c74-136,97-200,79-221c-7-8-18-15-26-15c-7,0-66,31-131,68
			c-65,38-148,85-184,105c-112,61-229,184-229,239c0,28,14,22,56-26c104-118,98-112,102-92c5,23-52,106-118,171c-49,48-50,50-50,109
			c0,49,24,229,45,341c3,15,22,26,78,44c102,32,226,28,310-11c172-81,307-343,338-656c14-149,18-172,30-172c7,0,9,44,6,128
			c-9,287-87,512-227,653c-70,71-121,102-197,120c-88,20-149,20-228-1c-41-11-76-20-78-20c-3,0-7,57-9,128c-5,110-10,139-38,216
			c-42,117-126,240-232,341c-47,44-96,88-109,97c-20,15-22,19-9,28c21,14,122,12,200-4c82-16,201-66,279-116c70-45,91-36,37,15
			c-86,80-267,142-448,152c-60,3-108,9-108,13c0,23,72,35,200,34c128-1,139-3,209-33c75-32,94-33,71-6c-25,30-116,65-199,77
			c-102,14-217,0-319-38c-37-14-76-28-87-31c-11-4,13,28,57,75c71,75,114,140,133,202c8,28,24,50,34,50c4,0,38-19,77-42
			c97-58,139-94,304-257c171-170,244-228,345-276c41-19,75-38,75-42c0-12-167,8-260,31c-134,35-161,43-262,82c-97,37-154,46-128,20
			c8-8,53-30,100-49c47-19,108-44,135-57c28-13,100-35,161-50c127-32,294-40,377-18c45,11,52,11,95-12c66-36,69-55,6-45
			c-27,4-96,9-154,10c-288,7-508,48-605,114c-53,35-55,36-55,17c0-22,115-94,187-116c87-27,153-36,378-55c345-29,485-73,590-187
			c45-48,59-72,80-139C4987,2786,4996,2669,4981,2546z"/>
		<path class="st1" d="M2577.1,597.7c-119,0-223.9,18.9-302.3,55.8c-108.5,50.7-172.9,122.1-215.6,238.8l-20.3,58l-114,50.1
			c-146.4,65.8-219.6,116.1-289.8,199.4c-82.1,97.3-106.2,166.3-103.2,295.3c0.9,49.8,2.9,110.3,5,125.6
			c2.4,16.2-3.3,23.8-50.5,49.9c-104.7,56.9-157,114.6-186.3,205.8c-8.7,24.3-15.4,40.4-18.7,46.9c-9.6-7.1-37.9-31.6-72.1-64
			c-145.9-138.1-488.3-421.8-631.6-523.5c-221.2-154.6-382.5-245.8-454.1-256.9l-48.8-7.9V1185c0,163.2,34.8,266.7,148.8,442.7
			l13.4,20.7c70.7,109.4,70.7,109.4,77.4,285l1.4,36.8c10.1,256.6,23.2,366.4,61.2,511.1c75.6,291.1,194.2,548.4,362.7,786.6
			c155.3,220.4,397.4,456,602.4,586.3c49,31,148,112,225.3,184.4c73.3,68.5,186.5,173.7,249,231
			c144.7,134.6,231.2,182.2,402.2,221.2c34,8.7,103.6,12.2,201.3,10.1c122.1-3,156.6-7.3,204.6-25.3c56-21.6,56-21.6,122-4.8
			c97,25.7,365.5,26.3,448.7,0.9c220.8-68.2,314.5-192.7,323.5-429.6c0.9-28.5,0.9-29.6,70.6-53.5c42.4-13.4,92-33.4,113.6-44.3
			c50.6-26.8,143.7-102.4,203.4-165c244-256,297-296.1,515.4-389.9c242.1-104.5,368.1-174.5,449.4-249.9
			c134-123,199.7-330.2,175.6-554.2c-18.9-172.8-61.1-303-136.8-422.1c-20.8-32.2-35.2-63.4-35.2-71.3c0-11.7-10.5-56.1-20.2-92.3
			c-54.6-196.4-90.8-357.2-96.9-430.1c-1.7-25.4-7.1-84.6-19-84.6c-8,0-73.1,45.9-92.9,59.9c-94.9,67.9-207.8,132.7-228.9,137.4
			c0.5-6.1,4.2-21.5,12.5-44.6c13.3-35.9,16.3-67.3,13.3-139.9c-4-84.6-8.4-101.8-42.6-167.1c-20.5-39.1-59.4-96.5-86.7-127.9
			l-45.1-51.9l17.1-51.3c27.9-80.5,23.6-157.3-12.5-221.8c-43-77.1-130.8-133.8-247.2-159.6c-219.9-47.4-528.2-4.1-634.4,89.1
			l-28.2,25.4l-26.8-17.8c-114.1-78.1-369.3-171-546-198.8C2716.6,603.8,2644.6,597.7,2577.1,597.7z M1283,1935c3.4,0,7,0,26.7-55.3
			c28.5-88.6,79.5-144.7,181.7-200.3c46.9-26,59.1-36.4,55.6-60.1c-1.8-12.7-3.9-63.8-4.9-124.3c-3-126.2,20.6-193.6,100.8-288.7
			c70-83,139.6-130.8,286.2-196.7l117.9-51.9l21.7-62.1c41.6-113.9,104.5-183.7,210.4-233.1c120.9-57,306.8-70.3,510.1-36.6
			c175.6,27.6,428.8,119.8,542,197.2l33.3,22.2l33.9-30.6c104.2-91.5,408.3-133.7,625.6-86.8c113.5,25.2,199,80.2,240.6,154.7
			c34.6,62,38.7,135.9,11.7,213.7l-18.9,56.8l48.9,56.2c26.8,31,65.1,87.5,85.3,126c33.6,64.2,37.5,79.4,41.4,162.9
			c2.9,71,0.1,101.6-12.7,136c-17.8,49.3-12.7,54.4-10.8,56.3c14.6,14.7,189.1-99.3,242.5-137.5c41.4-29.4,74.9-51.5,85.2-56.9
			c3,8.4,8.2,35.9,10.8,74.2c6.1,73.6,42.5,235,97.2,432c11.3,42.1,19.8,80.7,19.8,89.7c0,12.8,19,49.1,36.8,76.7
			c74.8,117.7,116.5,246.6,135.2,417.8c23.8,220.8-40.7,424.9-172.4,545.8c-80.5,74.6-205.7,144.1-446.6,248.1
			c-220.1,94.5-273.4,134.8-518.6,392.1c-59.1,62-151,136.7-200.7,163c-21.3,10.6-71.5,30.8-112.2,43.7
			c-69.9,24-76.4,27.2-77.5,62.6c-9,234.9-97.7,352.8-316.5,420.4c-82.1,25-347.3,24.4-443.3-1.1c-67.9-17.2-70.3-17.1-128.1,5.2
			c-46.7,17.5-80.6,21.7-201.3,24.7c-96.8,2.1-165.5-1.3-198.6-9.8l-0.1,0c-169-38.5-254.5-85.6-397.7-218.8
			c-62.6-57.3-175.7-162.5-249-231c-77.7-72.8-177.3-154.3-226.7-185.6c-204-129.6-445-364.2-599.6-583.7
			c-167.8-237.2-286-493.4-361.2-783.4c-37.7-143.8-50.8-253.2-60.8-508.9l-1.4-36.8c-6.8-178.3-6.8-178.3-79-290l-13.4-20.7
			C118,1446,85,1347.9,85,1185v-102.1l37.2,6.1c70.2,10.9,230,101.5,449.9,255.2c143,101.4,484.7,384.7,630.4,522.5
			C1209.9,1873.6,1274.9,1935,1283,1935z M2536.1,679.8c-74.6,0-139.7,7.6-187.6,23.5c-121.4,41.2-205.1,116.2-218.4,195.9
			c-29.4,171.4,120.6,369.8,364.8,482.4c74.9,34.9,259,93.5,294.1,93.5c8.3,0,22.4,5.3,32.1,12.1c2.8,2.1,7.8,5.9,10,8.2
			c-2,1-5.3,2.4-7,3c-18.2,7.3-159.1-10.9-183.8-23.8c-16.1-9.2-30.7-12-38.9-7.3c-4.2,2.4-6.4,6.6-6.4,11.7
			c0,18.8,147.5,120.3,205.6,151.4c58.7,31.6,83.8,39.5,96,30.4c9-6.7,7.3-20.8,5.2-30.8l0-0.2c-3.3-13.3-2.5-56.2,2.1-104.3
			c20.7-184.8,151.4-337.5,368-429.9c71.5-31.3,102.7-38.4,222.5-50.6c221.9-21.8,410.1,33.8,529.9,156.5c3.4,3.5,6.4,6.7,9.1,9.6
			c26.5,28.5,30.4,25.9,96.2-18.2c7.5-5,15.8-10.6,25.1-16.8c42.2-27.8,90.2-111,90.2-156.2c0-118.9-105-212.7-274.1-244.9
			c-68.5-13.1-268.3-14.3-328.9-2c-77,16.2-184,71.8-233.5,121.4c-20.7,20.7-38.9,36.6-44.1,40.2c-4.2-2.2-22.6-13.9-48.4-32.7
			c-65.8-46.9-192.9-108.3-289.4-139.7C2864.6,708.9,2682.1,679.8,2536.1,679.8z M2806.2,1509.9c10,0,17.6-0.7,21.6-2.3
			c7.5-3,13.3-5.3,14.1-10.8c0.8-5.8-4.8-10.1-14.9-17.9c-10-7-26.2-14-38-14c-33.4,0-217.6-58.8-289.9-92.5
			c-240.2-110.7-387.8-304.6-359.2-471.6c12.7-76.1,93.8-148.2,211.7-188.1c137.7-45.6,432.9-19.6,671.8,59
			c95.7,31.2,221.6,92,286.7,138.3c14.3,10.5,48.5,34.9,54.9,34.9c7,0,48.8-41.7,50.5-43.5c48.4-48.4,153.1-102.8,228.5-118.6
			c58.4-11.9,258.9-10.6,325,2C4135.6,816.6,4235,904.5,4235,1020c0,41.8-46.5,122-85.8,147.8c-9.3,6.2-17.7,11.8-25.2,16.8
			c-62.5,41.9-62.6,41.9-83.3,19.7c-2.7-2.9-5.8-6.2-9.2-9.8c-122-125-313-181.5-538.1-159.5c-121.2,12.3-152.8,19.5-225.5,51.4
			c-220,93.8-352.8,249.4-374,438c-3.7,38.5-6.4,89.6-1.9,107.7c2.3,11.2,1.8,18.3-1.4,20.7c-11.4,8.5-65.1-20.3-85.3-31.2
			c-73.5-39.3-195.9-130.4-200.4-143.3c0.1-1.3,0.8-2,1.5-2.4c3.8-2.2,14.6-0.9,29.1,7.4C2656.1,1494,2758.4,1509.9,2806.2,1509.9z
			 M2058,1015c-8.3,0-57,23.7-97.4,45.6c-267,144.6-365.8,282.2-352.6,490.7c9.1,146.2,47.3,211,240.4,408.2
			c41.9,42.9,128.9,132.2,125.8,145.2c-0.2,0-1,0.3-3.3,0.3c-5.1-1.1-38.3-23.6-79.8-57.9c-86.4-69.3-201.6-194.4-257-278.9
			c-4.5-6.7-44.2-64.9-59.6-70c-37.5-15-145.8,63-178.1,128.5c-25.3,49.6-44.7,137.4-36.3,164.7c4.8,13.2,27.2,35.8,50,50.7
			C1549.7,2132,1775,2337,1775,2366c0,5.1-1.1,7.4-2.1,7.8c-1.8,0.9-10.2,1.4-41.7-25.6c-19.5-17.4-154.8-120.9-278.2-214.2
			c-90.9-68-173.5-130.7-222.8-168.1c-23.5-17.8-38.7-29.3-42.3-32c-65.5-53.2-206.9-175.7-268.6-231.7
			c-79.6-72.1-86.6-65.1-88.9-62.8c-3.7,3.1-7.6,6.3,77.7,142.6c50.8,81.2,102.6,159.3,131.8,198.9
			c236.6,326.4,496.2,523,793.8,600.9c33.7,8.9,53.8,18.4,59.3,22.7c-13.9,9.5-120.1,5.9-191.5-18.2
			c-169-58.6-297.1-139.7-442.1-279.9c-126.9-122.9-209.3-222.5-400.4-484.4c-223.5-307.2-253.9-330.4-266-327.6
			c-1.5,0.3-5,1.6-5.9,6.6c-4.5,23.8,60.5,177.9,110.5,271.3c58.3,106.1,152.1,239.1,257.6,364.9c37.5,45,65.5,81.4,77.9,99.7
			C996.7,2207.8,893,2101,851,2045c-45.8-64.4-54.8-61.5-59.6-60c-2.9,0.9-6.4,3.8-6.4,12c0,19.5,109.8,177.8,171.1,255.1
			c183,227.5,399.7,392.1,594.5,451.7c37,10.7,79.1,26.6,93.9,35.5c2.4,1.4,5.2,3.1,7.7,4.7c-9.7-0.2-26.7-1.4-47.8-2.9
			c-207.5-13.8-423.4-156.3-624.4-412.1c-55.1-69.2-64.2-66-69.1-64.3c-2.7,0.9-5.8,3.5-5.8,10.4c0,19.8,86.3,153.7,128.2,203.2
			c81.3,96.6,104,116.6,221,194.9c73.9,50.3,164.6,89.2,269.6,115.7c108.8,26.7,158.3,28.8,252.2,11.1l37.5-6.8
			c60.4-11,95.2-17.4,107.6-18c-0.8,0.8-1.6,1.7-2.3,2.5c-1.4,1.5-3,3.2-4.6,5.1c-34.8,39.6-110.1,57.3-244.2,57.3
			c-103.8,0-134.5-3.8-193.4-23.7c-138.1-47-223.7-97.3-381.5-224.2c-56.2-46.1-150.8-165.5-194.8-245.5
			c-19.2-34.6-44.1-98.2-55.5-141.9c-21.4-85.4-30-101.9-131.7-252.5c-130.5-195.8-156.8-257.3-187.2-439
			c-24.2-138.2-45.3-176.7-125.2-229.4c-62.9-42-212.1-118.8-235.7-118.8c-5.8,0-10.9,2.3-15.1,6.9c-13.6,14.8-17.6,55-11.9,119.5
			c7.3,81,26.6,129.7,98.7,248.2c95.2,156.6,108.3,191.4,117.3,309.8c7.1,92.8,13.1,118,46.4,192.7
			c50.6,110.6,176.7,322.4,228.7,384.2c47.6,57.8,157.8,153.2,261.9,226.9c58.1,42.1,71.4,56.7,73.5,61.7c-0.6,0.1-1.4,0.2-2.6,0.2
			c-10.7-1.8-127.6-73.3-189.1-117.1c-66-48.8-176.1-158.9-230.9-231c-27.3-35.1-70.1-107.3-95.5-161.1
			c-11.1-23.1-48-98.4-57.3-100.7l-1.2-0.1c-1.5,0-4.3,0.5-6.3,4.1c-11.3,20.2,6.2,197.8,22,223.5
			c70.5,112.3,344.1,400.6,450.4,474.5c69.7,48.8,262.4,144.2,389.1,192.6c71.4,26.7,97.9,39.2,106.2,45c-1.7,0.2-4.1,0.3-7.5,0.3
			c-55,0-283.8-78.6-376.6-129.4c-195.2-105-366.9-256.4-471.2-415.4c-55.5-84.7-66.4-88.4-74.1-84.6c-7.6,3.7-11.3,14.3,20.2,106
			c38.4,112.2,120.4,208.1,381.4,446.1c160.8,145.8,219,186.7,366.2,257.8c157.3,77.1,176.7,84.6,305.5,129.2
			c87.3,29.7,115.4,43,124.3,48.8c-5,0.3-15,0-35-2.5c-53.4-6.8-319.4-89.1-360.2-111.4c-13.8-6.9-50-25-80.3-39.2
			c-181.1-82.1-452.6-300.7-537.9-433.2c-19.9-31.5-47.8-63.6-62-59.4c-2.7,0.8-7.2,3.4-7.2,12.1c0,19,113.9,238.2,158.7,312.6
			c131.6,218.8,312.9,405.3,473,486.9c103.9,51.4,328.1,116.6,452.7,131.5c105.5,13.2,225.3,14.8,291.4,4c38.5-5.6,86-13.3,108-17
			c5.5-1,22.3-3.8,24.6-1.5c0.3,0.3,1,1.6-0.3,8.6c-1.4,7.1-19.4,25.9-45.5,40.6c-37.9,21.4-54.3,24.4-134.6,24.4
			c-3.5-0.1-87.6-1.6-96.2,6.9l-1.5,1.5l-0.3,2.7c0,18.1,27.4,31.8,97.8,48.9c155,39,357.7,35.4,516.5-9
			c176.5-50.1,294.8-116.9,408.2-230.3c27.4-28.1,49.7-48,61.4-56.8c-4.9,9.5-14.8,25.4-28.9,44.2
			c-113.6,155.2-264.8,254.3-462.2,303.1c-90,22.8-114.4,24.9-236.6,20.9c-85.6-3.4-150.5-7.3-165.3-9.9
			c-72.4-11.2-213.8-55.9-308.9-97.7c-93.9-40.1-327.9-119.4-359-119.4c-9.8,0-12.7,6-13.5,8.6c-3.8,12.7,12.2,35.8,35.7,51.5
			c22.2,15.6,37,27.6,40.7,32.7c45.1,51.3,272.8,169.3,435.4,225.8c179.5,61.2,269,75.3,478.6,75.3c188.2,0,191.8,0,286.6-32.3
			c50.8-16.6,117.8-46.7,146.2-65.6c99.8-67.8,180.5-173.1,216-281.6c8.7-27.1,15.5-37.7,18.5-40.7c1,3,2.7,11.9-0.3,35.6
			c-19.6,142.8-177.3,321.6-359.2,407.1c-112.2,52.1-191.9,68.7-327.8,67.5c-105.5,0-133.2-4-228.6-32.8
			c-97.3-27.5-284.8-110.9-385.9-171.5c-13.9-8.6-42.6-22.7-51.1-14.2c-2.2,2.2-3,5.2-2.5,8.5c5.1,29.7,154.1,126.4,265.8,179.6
			c111.6,53.8,153.6,68.1,281.1,95.4c18.4,3.2,91,6.1,161.1,5.1c112.1-1,139.8-4.7,211.5-28.3c241.9-82,405.6-247.1,473.2-477.3
			c10.7-35.6,21.2-59.2,25.9-65.5c0.3,0.4,0.5,0.8,0.7,1.3c10.6,24.2-18.1,145.2-61.9,235.6c-44.9,93.8-116.6,173.3-219.3,243
			c-58.3,39.5-97.3,57.6-231.9,107.4c-16.4,6.5-23.2,11.8-23.5,18.1c-0.2,2.7,0.9,6.7,6.9,10c17.5,11.7,144.4-22.8,199.7-50.9
			c53.9-27.5,155-99.6,186.4-133c20.6-22,30.8-25.3,32.7-24.9c1.1,2.6-3.3,19-26.3,48.4c-33.4,44.2-131,112.9-201,141.5
			c-180.5,73.8-549.8,36.2-774.8-78.8c-43.7-21.8-53.4-19.2-57.5-13.2c-3.4,5-11.3,16.8,85.9,101.4c80.1,69.9,180.6,123.9,283,152
			c59,16.6,97.9,18.1,210.5,15.2c124-3,148.9-6.7,222.6-33.3l0,0c119.7-42.9,220.1-106.4,306.9-194.2
			c81.1-81.1,136.7-176,165.3-282.2c19.4-74.6,18.9-226.9-0.9-313.4c-6.7-28.9-10.3-51.1-11.4-62.9c5,7.4,12.8,21,23,42.1
			c79.9,162.8,45.9,411.2-82.7,604.1c-45.1,69.3-164.8,192.2-179.9,193.8c-8,0-12.9,10.4-12.9,20c0,4.6,1.9,8.7,5.7,12.2
			c17,16,75.4,20.8,178.6,14.8c218.8-13.1,365.9-92,414.4-222.2c18.4-49,23.4-143.5,11.2-210.6c-16-90.9-65.6-178.5-171.1-302.3
			c-51.9-60.4-95-116.4-101.3-129c-7-14.1-25.3-40.5-40.6-59c-16.7-18.7-26.4-35.5-26.8-38.9c0-2,0.4-4.4,1.4-4.8
			c4.1-1.8,22.1,1.7,100.3,73.6c35.8,32.8,99,86.5,120.8,76.9c2.7-1.2,7.3-4.4,7.5-12.8c3.1-5.3,28.7-29.6,78.1-68.9
			c133.4-104.3,230-227.8,279.6-357.1c44.6-118.6,56.3-219.7,48.3-416c-16.8-435.3-18-477.2-7.1-534.9
			c29.6-158.1,119.9-257.9,357.6-395.6c165.4-96,207.7-130.5,238-194.2c24.7-51.4,31.5-133.8,15.2-183.7
			c-12.4-36.6-117.5-227.5-135.8-227.5c-11.9,0-104,62.3-104,76c0,5.2,7.9,39.9,16.2,71.3c26.5,104.8,0.5,205.3-77,298.5
			c-41.9,50.9-186,144.9-265.8,173.5c-13.2,4.8-24.9,9-35.2,12.7c-51.6,18.4-68.9,24.6-71.1,36.2c-1.7,9.2,7.4,16.9,23.8,30.9
			c4.7,4,10,8.5,15.8,13.7l52.1,45.7l47.3-36.5c41.5-31.4,52-32,53.9-31.7c-3.2,6-26.3,35.3-56.7,69.4
			c-33,38.2-90.2,109.5-127.2,157.3c-134.8,177.4-226.9,253.1-308,253.1c-40.7,0-92.4-26.9-108.6-56.4
			c-6.7-13.4-20.2-23.6-31.4-23.6c-3.1,0-7.6,1.2-11.2,7c-18.3,29-0.8,161.5,29.7,225.2c33.1,71.4,71.7,94.2,142.2,83.8
			c77.3-12.2,128-66.1,200.8-213.7c16.8-34.7,60.5-126.6,60.5-135.2c0-2.3,4.8-10.8,14.3-19.3c1.1-0.9,2-1.7,2.8-2.3
			c-0.8,4.7-2.3,11.3-3,14.4c-44.5,187.7-149.2,354.8-238.5,380.3c-104,28.2-174.3-20.5-228-158c-29.4-75.5-29.9-228.6-1-303.4
			c63.5-159.9,150.7-225,466.1-348.1c143.2-56.2,230.7-104.1,283.7-155.1c85.4-81.3,126.6-239.4,88.2-338.4
			c-34.3-90.8-114.4-157.4-238.1-197.9c-66.4-20.8-98.1-24.2-211.6-23.2c-112.8,0-148.4,3.9-211.4,23.2
			c-239.8,74.2-385.4,221.3-399.5,403.4c-3.2,39.2-1.8,86.8,3.1,108.5c9.6,41.7,12.7,44,56.1,41.9c62.3-3.1,98-33.2,136.3-114.9
			c16-32,28.3-52.5,34.1-60.3c2.9,17-9.9,82.5-34.1,129.9c-31.2,64.3-62.5,85.4-133.9,90.3c-75.3,5.8-168.1-22.3-268.1-81.3
			c-89.6-53.3-225.7-161.3-255.5-202.6c-15.3-20.4-53.2-45.8-106.9-71.6c-165.3-77.7-280.5-195.2-324.4-331
			C2083.4,1049.5,2071.3,1015,2058,1015z M1971,2115c6.5,0,10.7-2.1,12.5-6.4c5.2-12.3-11.4-36.7-127.9-156.1
			c-191-195-228.7-258.8-237.6-401.8c-12.9-203.9,84.5-338.9,347.4-481.3c48.4-26.3,87.3-43.9,92.7-44.4
			c2.2,0.9,10.7,12.3,18.1,34.6c44.8,138.4,161.9,258.1,329.6,336.9c52.2,25.1,88.8,49.4,103.1,68.5
			c30.9,42.9,166.2,150.4,258.4,205.3c101.8,60.1,196.7,88.6,273.9,82.7c74.9-5.1,109.5-28.4,142.1-95.8
			c23.2-45.4,46.4-134.9,29.3-146.3l-1.9-1.2l-2.8,0.5c-8.3,2.2-30.3,44-42.6,68.7c-37,78.8-69.2,106.3-127.8,109.2
			c-37.5,1.8-37.6,1.8-45.9-34.1c-4.7-20.5-5.9-67.8-2.9-105.5c13.8-177.8,156.8-321.7,392.5-394.6c61.8-18.9,96.9-22.8,208.5-22.8
			c112.3-1,143.4,2.4,208.5,22.8c120.6,39.5,198.6,104.1,231.8,192c37.1,95.7-3,248.8-85.8,327.6c-52,50.1-138.5,97.2-280.4,153
			c-315.1,123-407.7,192.5-471.8,353.8c-29.6,76.6-29.1,233.4,1,310.7c55.9,143.3,129.8,193.9,240,164
			c92.5-26.4,200.3-196.7,245.6-387.7c4.3-18.6,5.3-25.4,0.2-28.5c-5-3.1-10.5,1.6-16.3,6.6c-8.9,7.9-17.8,19.2-17.8,26.8
			c-1,5.7-25.7,61.1-59.5,130.8c-71.1,144.1-119.8,196.7-193.3,208.2c-65.9,9.7-100.4-10.7-131.7-78.2
			c-30.3-63.2-45.3-191.8-30.3-215.6c1-1.5,1.9-2.3,2.8-2.3c6.5,0,17.1,7.3,22.5,18.2c18.1,33,72.9,61.8,117.5,61.8
			c84.6,0,179.1-76.9,316-257c36.9-47.6,93.9-118.7,126.8-156.8c0.5-0.6,59.2-66.8,59.2-75.3c0-6.1-3.3-8.7-5.3-9.6
			c-6.4-3.2-19.1-1.8-64.7,32.7l-40.8,31.5l-45.9-40.3c-5.9-5.2-11.2-9.8-15.9-13.8c-10.9-9.2-21.1-18-20.5-21.5
			c1.1-5.9,26.3-14.9,64.6-28.6c10.4-3.7,22.1-7.9,35.2-12.7c81-29,227.5-124.7,270.1-176.5c79.7-95.8,106.3-199.3,79-307.4
			c-9.1-34.3-15.2-62.8-15.8-68.2c6.2-11.1,79.8-63.4,93.3-66.5c15.4,11.3,110.9,173.3,126.9,220.5c15.6,47.7,9,126.8-14.8,176.2
			c-29.2,61.4-70.8,95.1-234,189.8c-240.7,139.4-332.1,240.9-362.4,402.4c-11.1,58.7-9.9,100.8,6.9,537.1
			c8,194.8-3.6,294.9-47.7,412.1c-48.8,127.6-144.4,249.6-276.4,352.8c-37.4,29.7-81.9,67-81.9,75.9c0,3.7-1.2,4.2-1.6,4.4
			c-7,3.1-38.2-9.2-110-75.1c-80.3-73.9-100.8-79.9-111-75.4c-3.3,1.5-7.3,5.1-7.3,14.1c0,7.8,14.9,29.1,29.3,45.3
			c14.9,17.8,32.5,43.4,39.3,56.9c7.5,15,54.5,75,102.7,131c104.3,122.3,153.2,208.6,168.9,297.6c11.7,64.5,6.8,158.6-10.8,205.4
			c-47,126.3-191.1,202.9-405.6,215.8c-129.7,7.6-162.9-4.3-171.2-12c-2.3-2.1-2.5-3.9-2.5-5c0-5.8,2.5-9.6,3.5-10.1c0,0,0,0,0,0
			c21.6,0,146.6-135.1,187.7-198.2c130.4-195.6,164.7-448.1,83.3-613.9c-25.4-52.4-32.5-53.6-34.8-54l-2.5-0.4l-2.7,2.1
			c-1.3,0.7-7.6,4.9,9.7,79.7c19.6,85.3,20.1,235.3,1,308.6c-28.1,104.4-82.9,197.9-162.7,277.7c-85.7,86.7-184.8,149.4-303.2,191.8
			l0,0c-72.3,26.1-96.9,29.8-219.4,32.7c-117.8,3.1-152.7,0.6-207.5-14.8c-101-27.7-200.1-81-279.1-150
			c-76.1-66.2-83.3-84.6-83.9-88.1c2.4-0.4,12,0.1,44.4,16.3c227.2,116.1,600.4,153.8,783.1,79.2c72.5-29.6,170.3-98.6,205.1-144.6
			c9.1-11.7,38-50.8,24.5-62.3c-8.1-6.9-23.6,1.8-46.2,25.9c-30.2,32.2-131.5,104.4-183.6,131c-60.2,30.6-178.8,58.8-190,51.3
			c-0.9-0.5-1.4-0.9-1.7-1.1c1.1-1.2,4.7-4.2,16.8-9.1c135.5-50.2,174.9-68.4,233.9-108.5c104.2-70.8,177.1-151.6,222.7-247
			c43.1-88.9,75-214.3,62.1-243.9c-1.8-4.2-4.6-6.9-8.1-8c-1.3-0.5-3.2-0.4-4.9,0.4c-11.6,5.6-29,61.7-32.3,72.9
			c-66.7,227.1-228.1,389.8-466.8,470.7c-70.4,23.1-97.7,26.8-208.4,27.7c-74.2,1.1-143.8-2.2-159.1-4.9
			c-126.3-27.1-168-41.2-278.7-94.6c-128.9-61.4-257.7-153-260.3-171.8c4.7-0.5,20,4.1,38.5,15.5c101.7,61,290.4,144.9,388.3,172.6
			c95.5,28.8,125.8,33.2,231.4,33.2c137.6,0.9,218.3-15.6,332.1-68.5c184.6-86.8,344.9-269,364.8-414.9c4.9-40.1-1.8-46.3-7.2-47.5
			c-3.5-0.8-14-3.1-30.5,48.3c-34.8,106.5-114.1,209.8-212.1,276.4c-27.7,18.5-93.6,48-143.7,64.4c-93.3,31.8-96.8,31.8-283.4,31.8
			c-208.3,0-297.1-14-475.4-74.7c-158.2-55-387.8-173.6-430.9-222.6c-5.3-7.4-26.3-23.1-42.9-34.8c-22.1-14.7-33.8-34-31.8-40.4
			c0.1-0.4,0.5-1.5,3.9-1.5c27.5,0,256.4,76.5,355,118.6c95.7,42,238.2,87,311.2,98.3c18.3,3.2,98.1,7.3,166.6,10.1
			c122.3,4,149.1,1.7,239.4-21.1C2560,3831.4,2713,3731,2828,3574c18.8-25,39.6-56.3,32.5-63.5l-1.5-1.5l-2.8-0.2
			c-12.8,0.1-73.3,62.1-75.9,64.7c-113.5,113.5-226.8,177.4-403.8,227.7c-157.2,44.1-358,47.6-511.4,9
			c-21.2-5.1-83.4-20.2-89.7-36.5c9.3-2.2,41.8-4.6,87.4-3.7c81.8,0,100-3.4,139.6-25.6c22.7-12.7,47.8-33.9,50.4-47.4
			c1.2-6.2,2-13.1-2.4-17.5c-5.1-5.2-14.5-4.6-33.4-1.4c-21.9,3.7-69.4,11.3-107.9,17c-65.3,10.7-184,9.1-288.7-4
			c-121.5-14.6-348.2-80.4-449.4-130.5c-158.5-80.7-338.2-265.9-468.9-483.1c-53.1-88.1-156.4-292.6-157.3-307.5
			c0-2.1,0.4-2.8,0.4-2.8c4.6-0.6,26.4,17.5,50.3,55.5c86.1,133.8,359.8,354.3,542.2,436.9c30.2,14.1,66.2,32.1,79.8,38.9
			c42.6,23.3,307.8,105.4,363.6,112.5c39.9,5,48,2.5,49.5-4.1c1.5-6.5,3.4-14.7-134.3-61.6c-130.3-45.1-146.9-51.5-304.4-128.8
			c-146.1-70.6-203.9-111.3-363.8-256.2c-259.5-236.6-340.9-331.6-378.6-441.9c-23.5-68.3-25.7-87.6-24.9-93
			c4.9,2.7,19.3,16.9,61,80.4c105.2,160.3,278.3,312.9,474.8,418.7c93.6,51.2,325.3,130.6,381.4,130.6c9.1,0,18.9-0.6,20.1-7.5
			c1.4-7.9-5.8-16.2-115.4-57.2c-123.7-47.3-319-143.9-386.9-191.4c-103.2-71.7-379.3-362.6-447.6-471.6
			c-15-24.4-28.1-176.9-23.2-208.4c7.9,11.9,26,44.7,48.5,91.3c25.6,54.3,68.9,127.4,96.6,162.9c55.2,72.6,166.3,183.7,233,233
			c49.9,35.5,181.7,119,195,119c6.9,0,11.1-2.2,12.5-6.4c2.5-7.7-1.6-18.5-77.6-73.6C793.4,2571.7,684,2477,636.9,2419.8
			c-51.6-61.4-177-271.9-227.3-381.9c-32.6-73.2-38.6-98-45.6-189.3c-9.1-120.5-22.4-155.8-118.7-314.2
			c-71.1-116.9-90.2-164.7-97.3-243.8c-7.1-80.8,2.8-104.8,9.3-111.9c2.3-2.5,4.7-3.7,7.7-3.7c18.3,0,161.3,71.2,230.2,117.2
			c77.8,51.2,97,86.6,120.8,222.7c30.7,183.5,57.2,245.6,188.8,442.9c100.8,149.3,109.3,165.6,130.3,249.4
			c11.6,44.4,37,109.1,56.5,144.2c44.4,80.9,140.2,201.6,197.2,248.4c158.9,127.7,245.2,178.4,384.6,225.9
			c60.2,20.4,91.4,24.3,196.6,24.3c137.3,0,214.9-18.7,251.8-60.7c1.5-1.8,3-3.4,4.4-4.9c5.5-6,9.5-10.4,6.8-15.2
			c-4.1-7.3-12.9-5.7-121.3,14.1l-37.5,6.8c-92.2,17.5-140.8,15.3-247.9-10.9c-103.7-26.2-193.4-64.6-266.4-114.3
			c-116-77.6-138.5-97.5-219-193.1C996.2,2419.1,915,2289.4,915,2275c0-0.2,0-0.4,0-0.5c4.1,1.7,17.7,11.2,57.1,60.6
			c202.8,258,421.2,401.9,631.6,415.9c56.5,4.1,62.4,4.5,64.5-2.3c1.8-5.9-3.7-9.2-18.6-18c-15.6-9.4-57.9-25.4-96.2-36.5
			c-192.8-59-407.7-222.4-589.5-448.3c-71.8-90.6-168-234.4-168.9-248.9c0-0.9,0.1-1.5,0.1-2c3.6,1.6,15.4,10.4,47.8,55.9
			c42.4,56.5,181,202,200.6,203.4c2,0.1,3.7-0.5,5-1.8c3-3,8.6-8.6-85.7-121.7c-105-125.3-198.5-257.7-256.5-363.2
			c-53-98.8-109.2-238.1-109.6-262.7c19.8,9.8,105.3,118.4,254.2,323c191.6,262.4,274.1,362.3,401.6,485.7
			c146.2,141.2,275.4,223,445.8,282.1c62.8,21.2,196.1,34.8,205.3,11.1c0.7-1.7,0.6-3.7-0.4-5.6c-4.6-9-37.9-21.4-67-29.1
			c-295.2-77.3-553-272.6-788.2-597.1c-57-77.1-181.5-275.3-205.3-322.6c12.9,8.7,38.3,28.6,69.9,57.2
			c61.8,56.1,203.4,178.7,269.2,232.2c3.8,2.8,18.9,14.2,42.3,32c49.4,37.5,132,100.1,222.9,168.1
			c141.4,106.9,260.8,198.8,277.7,213.7c27.2,23.4,42.9,31.6,52.4,27.2c5.3-2.4,7.9-8.1,7.9-16.9c0-38.8-238.9-248.2-369.3-332.2
			c-22.8-14.8-42.5-35.9-46-45.5c-7.6-24.7,11.7-110,35.8-157c31.4-63.9,135.4-135.6,165.7-123.6c6.5,2.2,28.5,27.5,54.7,66.2
			c56.7,86.6,170.5,210.1,259,281.1C1905.1,2071.6,1960.1,2115,1971,2115z M4679.5,1689.1c-12.4,0-21.8,15.6-27.9,27.7
			c-20.3,38.5-20.8,122.1-1.5,235.1c19.8,110.9,21.1,192.9,13.4,200.6c-3.2,3.2-4.4,3.2-4.4,3.2c-11.6-4-24.3-122.8-44.1-316.2
			c-3.9-37-13.4-109-21.4-117c-7.5-7.5-21.8-7.2-41.4,0.9c-105.6,48.2-174.5,168.1-211,366.7c-67.9,357.7-81.7,404.8-147.2,504.2
			c-42.3,62.9-143.5,106.8-235.6,101.8c-9.6-0.7-12.8-3.3-12.8-4.2c-0.2-2.2,6.4-9,23.7-12.9c139.3-30.5,218.9-121.6,274.7-314.5
			c29.8-105.6,79.7-350.9,64.7-365.9c-3.4-3.4-7.6-4.7-11.8-3.5c-10.4,2.8-27.9,20.6-60.5,142.8c-8.8,33.1-32.2,120.9-42.9,124.1
			c0.1-0.1-1.8-1.3-4.6-8.6c-12.5-31.6,25.6-143.5,86.7-254.8c77.2-141.9,98.4-203.3,78.4-226.7c-7.1-8.1-19.4-16.7-29.8-16.7
			c-12.5,0-121.1,61.6-133.5,68.7c-64.9,38-148.1,85.1-184,105C3894.1,1989.9,3775,2115,3775,2172c0,8.3,1,18.3,8.6,21.1
			c8.5,3.2,20.4-2.9,56.2-43.8l9.5-10.8c49.6-56.3,74.5-84.5,82.6-89.9c0.2,1,0.4,2.2,0.6,3.2l0.6,3.2
			c4.2,19.2-48.8,99.7-116.6,166.5c-50,49-51.5,52.2-51.5,112.6c0,48.3,23.6,227.3,45.1,341.9c3.5,17.5,23.3,29.2,81.4,47.8
			c103.3,32.4,229.4,27.9,313.6-11.2c172.9-81.4,309.8-346.7,340.9-660c10.1-107.1,15.9-160.9,23.6-166.9
			c2.1,5.6,5.8,28.7,2.5,122.3c-9,285.4-86.9,510.1-225.5,649.7c-68.9,69.9-119.8,101-194.6,118.7c-87.2,19.8-148.3,19.6-225.6-1
			c-17.6-4.7-75.5-20.2-79.3-20.2c-5,0-10.3,0-14,132.9c-5,110-9.9,138.1-37.7,214.4c-41.3,115.2-125.4,238.8-230.8,339.1
			c-51,47.7-96.6,88.3-108.4,96.5c-13.6,10.2-19.5,15.8-19.4,22.5c0.1,6.1,5.4,10.3,10.4,13.7c24.6,16.4,131.6,11.6,203.8-3.2
			c80.8-15.8,201.5-65.9,280.7-116.7c38.8-24.9,55.7-28.8,59.7-28.3c-0.4,2.3-3.7,11.7-28.9,35.4
			c-86.2,80.2-264.9,140.7-444.8,150.6c-112.7,5.6-112.7,14-112.7,18c0,4.6,1.9,8.8,5.7,12.6c23.1,22.9,121.2,26.9,199.3,26.4
			c127.9-1,139.7-2.9,210.9-33.4c52.9-22.6,68.3-25.2,72.9-24.9c-0.6,1.6-2.4,4.8-7.7,11c-24.1,29-113.8,63.4-195.9,75.3
			c-100,13.7-215.3,0-316.5-37.7c-33.4-12.7-75.5-27.9-87.4-31.1c-4.9-1.8-7.3,1.2-8,2.1c-2.1,3.2-6.6,10,60,81.1
			c71.2,75.2,113.1,138.8,131.9,200c7.5,26.3,24.1,53.5,38.8,53.5c2,0,7.1,0,79.5-42.7l0,0c96-57.4,138.7-93.5,305-257.7
			c169-168,242.9-227.2,343.6-275c51.6-23.9,77.9-39.6,77.9-46.5c0-2-0.9-3.8-2.6-5.2c-15.5-12.1-183.4,11.5-263.6,31.3
			c-132.5,34.6-161.1,43-262.6,82.2c-80.4,30.7-119.9,37.1-127.2,34c0.4-0.9,1.5-2.8,4.6-5.8c6.6-6.6,47.7-27.4,98.3-47.9
			c69.8-28.2,114-46.9,135.3-57.1c26.4-12.3,96.7-34.1,160-49.7c127.2-32.1,291.7-40,374.5-18c45.9,11.2,54.4,11.3,98.6-12.4
			c59-32.2,55-43.8,53.6-48.1c-3.2-9.4-18.8-11.3-50.7-6.2c-26.9,4-94.9,8.9-153.3,9.9c-289.3,7-510.8,48.9-607.7,114.9
			c-22.9,15.1-41.3,27.3-46.8,28.4c-0.4-1.8-0.4-5.7-0.4-7.2c0-16.9,106.6-87.7,183.5-111.2c84.6-26.2,148-35.5,377-54.8
			c348.5-29.3,487.1-73.4,593.3-188.6c45.6-48.7,60-73.7,81.1-140.9c32.1-103.2,41.1-222.6,26.2-345.1
			c-12.5-98-57.4-269.1-83.3-278.1c-5.4-1.7-8.8,0-10.8,1.8c-9.9,8.7-8.6,38,18.2,184.8c29.5,164.4-1.6,313.8-90.1,432.1
			c-84.8,112.7-193.1,180.6-351.2,220.1c-69.3,16.8-105.5,19.8-203.6,16.9c-76.2-3.1-142.7-11.5-173.6-21.7c-30.1-9-66.1-20-79.1-24
			c-12.8-3.9-24-12.4-26-16.5c-0.1-0.7,0.3-1.3,0.8-1.8c7.9-7.4,54.2-4.9,108.9,15.7c67.6,25.6,264.9,28.4,363.9,5.2
			c206.6-49.6,345.4-201.9,390.8-428.9c13.6-69.9,15.9-119.6,11.1-231.2c-7.1-165-25.8-286.6-55.4-361.6c-1.2-3.3-4-4.1-6-3.9
			c-4.2,0.5-9.9,1.3-21.6,120.3c-15,160.4-19.4,178-54.8,289c-89.7,282-316.9,471.5-565.2,471.5c-29.9,0-41.6-2.3-46.1-3.8
			c6.2-3.6,25.3-10.1,67.9-17.3c124.6-20.3,229.2-68.8,310.6-144.3c196.1-180.1,284.5-504.9,242.6-891.2
			c-18-161.7-36.3-186.3-51.8-189.2C4681.2,1689.1,4680.4,1689.1,4679.5,1689.1z M4659,2165.7c5.3,0,9.7-4.3,11.5-6.2
			c14.2-14.2,5.7-117.6-10.6-209.4c-19-110.9-18.8-192.1,0.5-228.8c10.9-21.3,17.6-22.6,20-22.2c9,1.6,26.6,27.2,43.7,180.4
			c41.6,383.1-45.7,704.9-239.4,882.8c-80,74.1-182.7,121.8-305.4,141.7c-79.5,13.4-78.7,23.4-78.2,28.3c0.5,6.1,5.5,12.7,58,12.7
			c252.7,0,483.7-192.3,574.8-478.5c35.7-111.9,40.1-129.6,55.2-291c5-50.8,9.8-84.7,12.9-101.4c26.5,74.8,43.4,191.1,50.1,346.1
			c4.8,110.7,2.5,159.9-10.9,228.8c-44.6,222.9-180.7,372.4-383.3,421.1c-95.6,22.5-293.1,19.8-358.1-4.8
			c-46.9-17.7-104.3-27.6-119.3-13.7c-3.6,3.3-4.7,7.9-3.3,12.8c4.1,8.4,18.5,18.1,32.3,22.3c13,4,49,15,79,24
			c31.5,10.5,99.1,19,176.2,22.2c99.3,3,136,0,206.4-17.1c160.5-40.1,270.5-109.2,356.8-223.8c90.2-120.6,122-272.7,91.9-439.9
			c-10.7-58.9-30.7-168.5-21.4-175.6c0,0,0.3,0,1,0.2c14.9,5.2,61.6,152.8,76.5,269.9c14.8,121.1,5.8,239-25.8,340.9
			c-20.7,66.1-34,89.2-78.9,137.1c-104.1,113.1-241.2,156.4-586.8,185.4c-229.9,19.4-293.7,28.7-379.1,55.2
			c-69,21.1-190.5,94.4-190.5,120.8c0,6.6,0,13.5,5.3,16.3c7.1,3.8,16.1-1.8,57.5-29.1c95.5-65,315-106.2,602.4-113.2
			c58.7-1,127.4-6,154.6-10.1c35.4-5.6,39.7-0.4,39.8-0.3l0,0c-0.1,0-0.2,9.4-48.9,36c-42.1,22.5-48.2,22.1-91.4,11.5
			c-84.1-22.3-250.8-14.4-379.4,18c-63.8,15.7-134.9,37.8-161.9,50.3c-21.1,10.2-65.2,28.8-134.8,56.9
			c-42.5,17.2-92.2,40.6-101.7,50.1c-2.7,2.7-11,11-6.4,18.2c10.6,16.3,92.1-11.8,139.7-30c101.7-39.3,127.6-46.9,261.5-81.8
			c88-21.8,220-37.2,249.7-34.2c-9.7,6.6-33.8,19.9-68.1,35.8c-102,48.5-176.5,108-346.4,277c-167.3,165.2-206.9,198.8-303,256.2
			c-46.4,27.4-71.1,40.5-75,41.3c-5.1,0-20.4-17.7-28.7-46.4c-19.3-62.9-61.9-127.7-134.2-204.1c-30.9-33-47.9-54.3-54.7-64.5
			c15.9,5.2,47,16.4,79.3,28.6c102.7,38.3,219.8,52.2,321.4,38.3c85.6-12.4,176.3-47.7,202.2-78.8c7.3-8.5,13.4-17.3,8.8-23.6
			c-4.5-6.1-14-8.7-85.6,21.8c-69.5,29.8-81.1,31.6-207.1,32.6c-150.8,1.2-184.7-16-192.2-23.5c-1-1-1.8-2-2.2-3
			c10-2.9,47.3-7.7,102.7-10.5c182.1-10.1,363.4-71.7,451.2-153.3c35.4-33.4,34.2-44,30.2-49c-7.3-9.3-31.9-0.5-73.3,26.1
			c-78.3,50.2-197.5,99.7-277.3,115.3c-82.3,16.9-178.3,16.7-196.3,4.7c-5.7-3.9-6-5.4-6-5.6c0-2.8,11.4-11.4,15.2-14.2
			c14.3-9.9,66.7-57.4,109.4-97.3c106.4-101.4,191.4-226.4,233.3-343c28.2-77.6,33.2-106,38.3-217.5c1.8-63.3,5-109.7,7.3-122.5
			c9.2,2.2,36.6,9.2,73.4,19.1c79,21,141.4,21.3,230.4,1c76.9-18.2,129.1-50,199.5-121.4c140.4-141.4,219.4-368.4,228.4-656.4
			c4.3-120.3-2.6-127.5-5.9-130.9c-1.4-1.4-3.2-2.2-5.1-2.2c-16.7,0-19.9,16.5-35,176.5c-30.7,310-165.4,572-335.1,651.9
			c-82.2,38.1-205.3,42.5-306.4,10.8c-52.5-16.9-72-27.4-74.6-40.2c-21.4-114.1-44.9-292.1-44.9-340c0-57.4,0.4-58.4,48.5-105.4
			c61.3-60.3,125.3-148.3,119.4-175.6l-0.5-2.9c-1-5.5-1.9-10.7-7-12.1c-8.8-2.4-16.8,6.7-93.6,93.9l-9.5,10.8
			c-35.4,40.5-43.5,41.7-45.2,41c0,0-2.1-1.4-2.1-11.7c0-53,118.5-175.8,226.4-234.6c35.9-20,119.2-67.1,184.1-105.1
			c72.2-41.1,122.1-66.5,128.7-67.3c5.7,0,15.5,5.8,22,13.3c16.1,18.8-7.7,83.2-79.6,215.3c-63.4,115.5-100.9,228.7-87.2,263.2
			c1.6,4.2,5.7,15.5,14.6,15c11.8-0.6,22.1-19.8,51.9-131.5c32.3-121.2,49.1-134.5,53.5-135.7c0.4-0.1,1-0.3,2.2,0.9
			c7,15.4-31,227.8-67.3,356.1c-54.6,188.8-132.1,277.9-267.3,307.5c-19.9,4.5-32.2,13.7-31.5,23.4c0.3,4.5,3.7,12.1,22.2,13.5
			c95.2,5.2,200.4-40.5,244.5-106.2c66.6-100.9,80.5-148.3,148.8-507.8c35.9-195.2,103-312.8,205.2-359.4c14.7-6.1,26.2-7.2,30.4-3
			c3.2,4.5,11.8,46.8,18.6,111c28.3,276.5,34.9,319,50.7,324.6C4656.9,2165.5,4658,2165.7,4659,2165.7z M3600,1927.1
			c-38.7,0-85.8,10.4-132,30.3c-94.1,41.9-204.1,158.3-203,214.7c0.5,3.8,2.4,6.2,5.2,6.9c2.6,0.7,9.3,2.5,31.7-25.9
			c15.4-19.4,41.1-49,58.5-65.5c18-17,50.3-36.2,72-42.9c35.3-12.4,42.1-11.9,73.1,5.6c18.4,9.2,43.9,34.8,57.1,57.2
			c2.3,4.2,23.5,42.5,35.3,42.5c11.9,0,71.2-73.4,119-134.9c3.6-4.5,4.8-10.5,3.4-17.1c-4-18.6-28.9-42.5-62.1-59.5
			C3643.3,1930.9,3623.2,1927.1,3600,1927.1z M3275.1,2167.3c4.4-53.3,109.8-161.9,196.9-200.7c71.2-30.7,144.2-38.3,181.7-19.1
			c35.2,18,54.1,39.9,56.9,52.6c0.8,3.7,0.3,6.6-1.5,8.8c-68.5,88.4-103.3,125.9-111.2,130.8c-3.9-2.6-14.9-15.8-26.5-37.1
			c-12.6-21.3-38.9-49.9-61.2-61.1c-33.3-18.7-43.1-19.5-80.9-6.2c-22.7,6.9-56.8,27.2-75.8,45.1c-17.8,16.8-43.9,46.8-59.5,66.5
			C3284.8,2158.6,3278.6,2164.5,3275.1,2167.3z"/>
		<path class="st1" d="M1284.5,1925.3L1284.5,1925.3L1284.5,1925.3z"/>
		<path class="st1" d="M2994.3,3646.7c-0.1,0-0.1,0-0.2-0.1C2994.2,3646.7,2994.3,3646.7,2994.3,3646.7z"/>
		<path class="st1" d="M4797.3,2061.8C4797.3,2061.8,4797.3,2061.8,4797.3,2061.8C4797.3,2061.8,4797.3,2061.8,4797.3,2061.8z"/>
		<path class="st1" d="M4305.5,3341C4305.5,3341,4305.5,3341,4305.5,3341C4305.5,3341,4305.5,3341,4305.5,3341z"/>
	</g>
	<g>
		<path class="st0" d="M1887,3513c-8-10-24-38-35-63c-70-168-53-291,80-570c119-247,147-367,118-491c-22-92-48-129-195-274
			c-130-128-185-193-185-220c0-5,26,17,58,50s107,108,167,167c130,126,177,203,195,313c22,135-8,249-115,447
			c-111,206-120,235-119,363c0,97,4,121,32,200c18,49,32,91,32,92C1920,3536,1901,3527,1887,3513z"/>
		<path class="st1" d="M1670.1,1889.4c-0.8,0-1.3,0.2-1.6,0.3l-3.1,1.3l-0.4,4c0,28.7,52.3,91.4,186.5,223.6
			c146.4,144.4,171.7,179.9,193.6,271.6c29,124.1,0.4,242.6-117.6,487.7c-133.8,280.6-151,404-80.1,574.1
			c11.5,26,27.7,54.2,35.7,64.2l0.4,0.4c9.2,9.2,27.2,22.2,36.6,18.4c3.1-1.3,5-4.2,5-7.9c0-2.9-18.5-56.1-32.3-93.7
			c-27.8-78.5-31.7-102.6-31.7-198.3c-1-127.2,9-157.5,118.4-360.6c108.5-200.8,137.7-314.4,115.5-450.2
			c-18.5-112.8-66.2-189.5-196.5-315.8c-60-59-134.9-133.9-166.9-166.9C1686.3,1894.8,1674.2,1889.4,1670.1,1889.4z M1890.7,3509.7
			c-7.5-9.5-23.3-37-34.2-61.7c-69.5-166.8-52.3-288.4,79.9-565.8c119.2-247.5,148-367.6,118.4-494.3
			c-22.3-93.1-49.8-131.9-196.4-276.4c-115.8-114-171.8-177.9-181.9-207.7c9.2,7.2,26.4,22.7,47.8,44.8
			c32.1,33.1,107,108,167.1,167.1c128.5,124.5,175.5,199.9,193.6,310.2c21.7,133.3-7.2,245.3-114.5,443.8
			C1860,3074.8,1850,3105.5,1851,3235c0,97.1,3.9,121.6,32.3,201.6c15.6,42.5,27.8,78.7,31,88.7
			C1909.7,3524.2,1899.9,3518.8,1890.7,3509.7z"/>
	</g>
	<g>
		<path class="st0" d="M2469,3367c-37-13-86-36-110-52c-53-36-149-134-149-152c0-19,17-16,40,7c38,38,124,87,195,110
			c120,40,276,22,403-46c123-66,244-92,351-75c94,15,309,116,290,136c-3,3-55-11-115-31c-91-31-127-37-220-42c-77-3-113-1-118,7
			c-4,6-15,11-25,11s-66,25-124,55C2691,3396,2599,3411,2469,3367z"/>
		<path class="st1" d="M2219,3145.5c-1.9,0-3.7,0.3-5.5,1c-3.9,1.6-8.6,5.8-8.6,16.5c0,21.5,99.1,120.8,151.2,156.1
			c24.1,16,72.9,39.1,111.2,52.6l0.1,0c131.8,44.6,226.5,28.4,421.9-72.3c62-32.1,113.9-54.4,121.7-54.4c11.6,0,24.1-5.7,29.2-13.2
			c3-4.1,25.2-8.2,113.7-4.8c91.1,4.9,126.4,10.3,218.6,41.7c51.3,17.1,113.8,36.2,120.1,29.8c2.6-2.8,3.3-6.3,2-10.1
			c-10.5-31.1-206.1-120.3-294.8-134.4c-107.7-17.1-230.2,9-354.2,75.5c-126.9,67.9-279.8,85.4-399.1,45.7
			c-68.7-22.3-155.3-71.1-193-108.8C2243.5,3156.4,2230,3145.5,2219,3145.5z M2470.6,3362.3c-37-13-85.8-36.1-108.9-51.4
			c-56.7-38.5-146.8-134.2-146.8-147.8c0-1.9,0.2-6.3,2.4-7.2c2.8-1.2,12.4,1.1,29.1,17.7c39.3,39.3,125.8,88.2,197,111.2
			c121.8,40.6,277.7,22.8,406.9-46.3c122-65.5,242.4-91.2,347.9-74.5c93.6,14.9,275.8,103.5,286.5,126.3
			c-11.3-1.3-51.2-11.7-109.1-31c-93.3-31.8-129-37.3-221.3-42.3c-95.3-3.7-117.1,0.6-122.5,9.3c-2.7,4-11.9,8.6-20.8,8.6
			c-12.3,0-74.2,28.6-126.3,55.6C2692.2,3389.7,2599.3,3405.8,2470.6,3362.3z"/>
	</g>
	<g>
		<path class="st0" d="M2412,3160c-78-39-195-131-174-138c5-1,30,11,54,27c147,99,236,105,493,31c93-27,132-32,256-37l146-5l134,45
			c199,66,188,66,277,1c20-15,22-15,22,1c0,20-54,73-88,86s-153-7-262-43c-81-27-110-32-195-32c-92-1-113,3-276,52
			C2570,3216,2526,3217,2412,3160z"/>
		<path class="st1" d="M2238.4,3017c-0.5,0-1,0-1.4,0.1c-4,1.3-6.2,4-6.5,7.5c-1.7,23.6,115.3,107.9,179.2,139.9
			c116.2,58.1,160,56.8,390.7-11.7c162.7-48.9,183.2-52.8,274.5-51.8c83.6,0,112.5,4.7,193.5,31.7c111.7,36.9,230.8,56.2,265.4,42.9
			c33.8-12.9,91.2-66.6,91.2-90.7c0-6.8,0-13.7-5.2-16.3c-5.6-2.8-12,1.7-24.8,11.3l-9.4,6.9c-74,54.3-73.9,54.3-241.7-1.5
			l-156.2-52.4l-146.9,5c-127.5,5.1-166,10.7-257.2,37.2c-255.7,73.6-342.5,68.2-488.8-30.3C2276.8,3032.9,2248.4,3017,2238.4,3017z
			 M2554.4,3196c-48.9,0-86.7-13.8-140.1-40.5l0,0c-73-36.5-166.2-110.4-173.3-128.4c5.8,1.8,25.3,10.8,48.3,26.1
			c147.8,99.5,240.8,105.5,497.2,31.6c90.3-26.2,128.4-31.7,254.8-36.8l145.1-5l154.5,51.8c169.4,56.3,172.7,57.4,250.8,0.1l9.4-6.9
			c3.6-2.7,10.3-7.7,13.8-9.5c0.1,1.3,0.2,3.3,0.2,6.5c0,16.4-51.5,68.6-84.8,81.3c-32.2,12.3-150.6-7.4-258.6-43.1
			c-82.3-27.4-111.7-32.3-196.6-32.3c-92.5-1-113.4,2.9-277.4,52.2C2677.7,3178.8,2609,3196,2554.4,3196z"/>
	</g>
	<g>
		<path class="st0" d="M2769,2904c-19-22-115-69-195-95c-38-12-73-25-78-30c-6-5,1-20,17-37c15-15,27-38,27-49c0-12,4-25,10-28
			c16-10,144,33,193,66c81,54,109,105,87,159C2816,2923,2790,2929,2769,2904z"/>
		<path class="st1" d="M2557.6,2658.8c-4.6,0-8.1,0.6-10.3,2c-8.4,4.2-12.3,19.7-12.3,32.2c0,9.2-11.2,31.1-25.5,45.5
			c-8.1,8.6-21.3,24.5-20.6,36.2c0.2,3.4,1.6,6.2,3.9,8.1c7.9,8,67.8,27.2,79.7,30.9c77.1,25,174.3,72.2,192.7,93.5
			c10.7,12.7,23.3,18.7,35.7,16.8c13.8-2.1,25.8-13.5,33.7-32.1c23.2-56.8-5.1-109.3-88.8-165.1
			C2704.3,2698.9,2594.9,2658.8,2557.6,2658.8z M2796.4,2914.4c-8,0-16.1-4.7-23.6-13.6l0,0c-20-23.1-115.8-70-197.2-96.5
			c-47.5-15-73.1-25.9-76-28.8c-0.6-0.5-0.6-1-0.7-1.4c-0.3-4.6,5.1-15.2,17.8-28.7c15.3-15.3,28.4-39.4,28.4-52.4
			c0-12.3,4.2-22,7.2-23.5c12.6-7.9,136,30.6,188,65.7c79.1,52.8,106.2,101.4,85.2,153c-6.5,15.2-15.7,24.5-25.9,26.1
			C2798.4,2914.3,2797.4,2914.4,2796.4,2914.4z"/>
	</g>
	<g>
		<path class="st0" d="M3340,2869c-15-55-8-78,37-122c45-46,123-85,184-93c46-6,47-6,64,30c10,20,26,41,36,47c11,5,19,14,19,19
			s-37,23-82,40c-110,42-201,88-211,106C3372,2923,3351,2911,3340,2869z"/>
		<path class="st1" d="M3591.3,2646.1c-7.7,0-17.6,1.2-30.9,2.9c-62.8,8.2-141.4,48-186.9,94.5c-46.2,45.2-53.7,70.1-38.3,126.8
			c7.1,26.9,18.6,43.3,31.8,45c6.5,0.8,15.9-1.5,24.4-16.9c8.2-14.8,90.2-58.6,208.4-103.8c31.8-12,85.2-33.8,85.2-44.7
			c0-7.6-9.6-18-21.9-23.5c-8.5-5.1-24.1-25.7-33.6-44.7C3616.5,2654.3,3611.6,2646.1,3591.3,2646.1z M3369.1,2905.4
			c-0.3,0-0.6,0-0.9-0.1c-6.4-0.8-16.4-11.2-23.4-37.6l0,0c-14.6-53.4-8.2-74.2,35.7-117.1c44.2-45.1,120.3-83.6,181.2-91.6
			c43.3-5.7,43.3-5.7,58.8,27.2c10.6,21.2,27.2,42.7,37.9,49.2c9.5,4.3,15,10.8,16.3,13.7c-5.6,5-34.1,19.5-78.5,36.3
			c-96.8,37-201.2,86-213.6,108.3C3380.1,2898.1,3375.1,2905.4,3369.1,2905.4z"/>
	</g>
	<g>
		<path class="st0" d="M3046,2255c-20,215-78,345-175,395c-38,19-98,32-116,25c-5-2-30-9-54-15c-54-14-146-98-203-185
			c-22-33-82-147-133-253c-52-107-108-209-125-228c-16-19-30-39-30-45c0-16,29,4,48,33c9,14,35,52,56,84c22,33,58,95,81,139
			c144,277,212,366,312,412c49,23,59,24,100,13c67-16,97-42,131-112c33-68,67-176,58-185c-3-3-19,6-36,20c-73,62-176,58-278-10
			c-58-39-240-231-313-329c-52-70-210-229-284-285c-31-23-54-44-51-46c9-9,73,31,168,103c53,41,101,74,107,74c6,0,17-13,25-29
			c38-72,114-107,217-98c89,8,187,59,288,151c63,59,160,222,161,271c0,11,4,26,9,34c8,13,12,13,27,0C3052,2176,3052,2180,3046,2255z
			 M2776.5,2163.6c64.5,0,64.3-100,0-100C2712.1,2063.6,2712.2,2163.6,2776.5,2163.6z M2956,2160c-35-137-112-232-239-295
			c-118-58-209-59-329-4c-16,7-28,17-28,22c0,13,170,191,187,195c6,2,14-6,18-18c4-11,24-32,46-47c34-22,47-25,103-21
			c145,9,228,134,192,291c-7,30-5,37,6,37c8,0,22-8,31-18C2969,2273,2973,2228,2956,2160z"/>
		<path class="st1" d="M2037.3,1676.7c-4.1,0-5.7,1.6-6.8,2.7l-1.4,1.4l-0.3,2.5c-0.2,8.9,37.2,37.7,53.3,49.6
			c72.2,54.7,230.9,213.9,283,284c74.6,100.2,256.7,291.5,314.2,330.2c103.6,69.1,209.8,72.7,284,9.7c14.6-12,25.3-17.8,29.5-19.1
			c2.3,15-26.3,110.1-59.3,178.1c-33.6,69.2-62.2,93.7-127.7,109.3c-40.2,10.8-49.3,9.6-96.7-12.7c-99.7-45.9-166.3-134-309.7-409.8
			c-23.8-45.6-59.5-106.9-81.3-139.5c-11.1-16.9-23.5-35.4-34.2-51.2c-9.5-14.1-17.5-26.1-21.8-32.7c-14.7-22.5-38.6-44.1-50.6-40.5
			c-2,0.6-6.6,2.8-6.6,10.3c0,10.4,23.9,39.5,31.2,48.2c17,19,72.7,120.7,124.3,227c51.1,106.2,110.9,219.9,133.3,253.6
			c58.2,88.8,150.5,172.7,205.9,187.1c24.6,6.2,48.9,13,53.4,14.8l0,0c21.1,8.2,83.7-7,120-25.2c99.4-51.2,157.5-181.7,177.7-399
			c5-62.1,5.6-72.4-1.8-76.3c-5.4-2.9-11.2,1.9-16.3,6c-2.9,2.5-10.5,9.3-13.2,8.6c-1.3-0.2-3.5-2.7-6.4-7.3
			c-4.6-7.3-8.3-21.4-8.3-31.4c-1-50.2-98.3-214.4-162.6-274.6c-102-92.9-199.9-144.1-291-152.3c-104-9.1-182.8,26.7-221.9,100.7
			c-8.3,16.7-17.9,26-20.6,26.3c-5.3-1.3-45.8-28-103.9-72.9C2086.1,1691.9,2049.9,1676.7,2037.3,1676.7z M2839.5,2391.6
			c-48.9,0-102.1-17.6-154.7-52.7c-56.9-38.3-237.6-228.2-311.8-327.8c-52.4-70.6-212.2-230.9-285-286
			c-21.9-16.2-37.5-29.7-44.9-37.2c16.1,4.8,60.7,30,155.9,102.2c0.9,0.7,97.1,75,110,75c10.7,0,23.6-20,29.5-31.8
			c37-70.1,112.4-104,212.1-95.3c88.9,8,184.8,58.4,285.1,149.7c61.6,57.6,158.4,220.1,159.4,267.4c0,11.9,4.2,27.7,9.8,36.6
			c4.2,6.7,7.8,11.1,13.3,12c6.1,0.9,12.2-3.1,21.2-10.8c2.1-1.7,3.8-3,5-3.7c1.4,7.6-0.7,33.5-3.2,65.6
			c-19.9,213.5-76.2,341.4-172.3,391c-39.5,19.8-96.5,30.7-111.9,24.8c-5.6-2.2-31.1-9.3-54.6-15.2c-52.4-13.6-144-97.3-200-182.9
			c-21.9-32.8-82.6-148.4-132.7-252.4c-52-107-108.4-209.7-125.8-229.2c-19.1-22.7-28.5-38.3-28.7-41.7c0-0.8,0.1-1.2,0.1-1.2
			c0,0,0.1,0,0.1,0c3.8,0,22.7,12.9,38.5,37c4.2,6.6,12.3,18.6,21.9,32.8c10.6,15.8,23.1,34.3,34.1,51.2
			c21.2,31.8,57.4,94,80.8,138.6c144.6,278.2,212.2,367.2,314.3,414.2c49.4,23.2,61,24.7,103.4,13.3c68-16.2,99.4-43,134.2-114.6
			c27-55.6,70.6-177.1,57-190.7c-7-7-27.1,6.8-42.7,19.7C2923.5,2377.5,2883.2,2391.6,2839.5,2391.6z M2549.8,1815.8
			c-52.1,0-104.7,13.6-163.8,40.7c-10.6,4.6-30.9,16.2-30.9,26.5c0,15.9,171.2,195.3,190.9,199.9c4.3,1.5,9.6-0.3,14.4-5.1
			c3.9-3.9,7.3-9.7,9.5-16.2c3.3-9.2,21.9-29.3,44.1-44.5c33.4-21.6,45.5-24,99.8-20.1c64.2,4,118.7,31.9,153.6,78.6
			c40,53.6,52.1,126.8,33.8,206.2c-5.3,22.6-5.5,32.6-1,38.4c3.8,4.8,9.9,4.8,11.9,4.8c9.6,0,24.8-8.6,34.7-19.7l0,0
			c27.1-30.2,31.6-76.8,14.1-146.6c-35.1-137.5-114.2-235-241.6-298.3C2658.5,1830.7,2604.3,1815.8,2549.8,1815.8z M2548.9,2073.3
			c-0.1,0-0.2,0-0.3,0c-17.3-5.5-178.3-173.2-183.7-190.9c0.7-1.7,9.9-10.1,25.1-16.7c119.5-54.8,207.6-53.7,324.8,3.9
			c126.4,62.7,201.5,155.4,236.4,291.8c16.6,66.2,12.8,109.9-11.9,137.4c-8.7,9.6-21.3,16.3-27.3,16.3c-2.2,0-3.5-0.3-4-1
			c-2.1-2.6-1.1-12.7,2.9-29.9c18.9-82.3,6.2-158.5-35.6-214.5c-36.7-49.1-93.9-78.5-161-82.6c-56.6-4.1-70.5-1.2-106,21.8
			c-22.4,15.3-43.4,37-48,49.5c-1.7,5.1-4.3,9.6-7.1,12.4C2551.4,2072.5,2549.8,2073.3,2548.9,2073.3z"/>
	</g>
	<g>
		<path class="st0" d="M3840,2481c0-5,22-18,50-29c65-27,140-99,178-170c16-31,53-116,81-188c51-129,102-224,120-224c6,0,1,21-10,48
			c-12,26-45,112-75,191s-67,167-82,194c-36,67-103,134-155,156C3896,2481,3840,2493,3840,2481z"/>
		<path class="st1" d="M4269,1865c-27.5,0-91.3,142.8-124.6,227.2c-28.9,74.2-65.8,158.4-80.8,187.5
			c-37.8,70.6-111.6,141.1-175.5,167.7c-8.8,3.5-53.1,21.5-53.1,33.6c0,2.9,1.4,5.5,4,7.1c13,8.5,67.2-6.1,110-24.6
			c53.4-22.6,121.1-90.6,157.4-158.2c14.6-26.2,51.5-113.5,82.3-194.6c28.4-74.8,62.6-164.1,74.9-190.7
			c11.6-28.5,15.4-45.9,11.3-51.9C4273.5,1866.2,4271.4,1865,4269,1865z M3846.2,2480.5c4.7-4.3,20-13.8,45.6-23.8
			c65.9-27.4,141.8-99.8,180.6-172.3c15.2-29.4,52.3-114.1,81.3-188.5c53.6-135.7,98.1-211.6,112.9-220c-0.3,5.5-3.4,18.8-12.2,40.3
			c-12.3,26.7-46.6,116.2-75,191.1c-30.6,80.7-67.3,167.4-81.7,193.3c-35.4,65.9-101,132-152.6,153.8
			C3896.8,2475.2,3856,2482.6,3846.2,2480.5z M3844.8,2482.1L3844.8,2482.1z"/>
	</g>
</g>
<path class="st1" d="M277.6,294.6c-3.3,0-6,2.7-6,6s2.7,6,6,6s6-2.7,6-6S280.9,294.6,277.6,294.6z M281.7,303.5
	C281.7,303.5,281.7,303.5,281.7,303.5C281.7,303.5,281.7,303.5,281.7,303.5c-0.2,0.4-0.5,0.7-0.9,1c0,0,0,0,0,0
	c-0.2,0.2-0.4,0.3-0.7,0.5c0,0,0,0,0,0c0,0,0,0,0,0c-0.1,0.1-0.3,0.2-0.4,0.2c0,0,0,0,0,0c-0.1,0-0.1,0-0.2,0.1c0,0,0,0,0,0
	c-0.5,0.2-1.1,0.3-1.8,0.3c-0.7,0-1.4-0.1-1.9-0.4c0,0,0,0,0,0c0,0,0,0,0,0c-0.3-0.1-0.5-0.2-0.7-0.4c0,0,0,0,0,0l0,0
	c-0.2-0.2-0.5-0.3-0.6-0.5l0,0c-1-0.9-1.6-2.2-1.6-3.7c0-1.5,0.7-2.8,1.7-3.7l0,0c0,0,0,0,0.1-0.1c0,0,0,0,0,0s0,0,0,0
	c0.1-0.1,0.2-0.2,0.4-0.3c0,0,0,0,0,0c0,0,0.1-0.1,0.1-0.1c0,0,0,0,0,0c0.2-0.2,0.5-0.3,0.8-0.4l0,0c0,0,0,0,0,0
	c0.3-0.1,0.6-0.2,0.9-0.3h0c0,0,0.1,0,0.1,0c0.2,0,0.5-0.1,0.7-0.1l0,0c0.1,0,0.2,0,0.2,0c0.1,0,0.1,0,0.2,0c0,0,0,0,0,0
	c0.4,0,0.9,0.1,1.2,0.2l0,0c0,0,0,0,0.1,0h0c0.2,0,0.3,0.1,0.5,0.2c0,0,0,0,0,0c0,0,0,0,0.1,0c0,0,0,0,0,0c0.7,0.3,1.3,0.8,1.8,1.3
	c0,0,0,0.1,0.1,0.1c0.1,0.2,0.3,0.4,0.4,0.6c0.5,0.8,0.8,1.7,0.8,2.7c0,1-0.3,1.9-0.8,2.6C281.8,303.3,281.7,303.4,281.7,303.5
	C281.7,303.5,281.7,303.5,281.7,303.5z"/>
<path class="st1" d="M348,291.6c-3.3,0-6,2.7-6,6s2.7,6,6,6s6-2.7,6-6S351.3,291.6,348,291.6z M352.1,300.5
	C352.1,300.5,352.1,300.5,352.1,300.5C352.1,300.5,352.1,300.5,352.1,300.5c-0.3,0.5-0.7,1-1.3,1.4l0,0c0,0-0.1,0-0.1,0.1
	c0,0,0,0,0,0c-0.2,0.1-0.4,0.2-0.5,0.3c0,0,0,0,0,0l0,0c-0.2,0.1-0.4,0.2-0.6,0.2c0,0,0,0,0,0c0,0,0,0,0,0c-0.2,0.1-0.4,0.1-0.6,0.1
	l0,0c-0.1,0-0.1,0-0.2,0h0c-0.2,0-0.5,0-0.7,0c-0.2,0-0.4,0-0.7,0h0c0,0-0.1,0-0.1,0c-0.2,0-0.4-0.1-0.5-0.1c0,0,0,0,0,0
	c0,0-0.1,0-0.1,0c-0.2,0-0.3-0.1-0.5-0.1h0c0,0,0,0,0,0c-0.2-0.1-0.4-0.2-0.6-0.3c0,0,0,0,0,0c0,0,0,0,0,0c-0.5-0.3-0.9-0.7-1.3-1.1
	l0,0c0,0,0,0,0,0l0,0c-0.1-0.2-0.3-0.4-0.4-0.6c-0.5-0.8-0.9-1.7-0.9-2.8c0-2.8,2.2-5,5-5s5,2.2,5,5c0,0.8-0.2,1.6-0.6,2.3
	c0,0,0,0,0,0C352.3,300.1,352.2,300.3,352.1,300.5z"/>
</svg>
