<svg id="eY3w4ry6kZx1" xmlns="http://www.w3.org/2000/svg" xmlns:xlink="http://www.w3.org/1999/xlink" viewBox="0 0 1024 1024" shape-rendering="geometricPrecision" text-rendering="geometricPrecision"><g transform="matrix(29.47469 0 0 29.47469 173.041065 158.30372)"><path d="M20.1,16.007h-9.187c-1.047,0-1.899-.897-1.899-2s.853-2,1.899-2h9.187c1.048,0,1.9.897,1.9,2s-.853,2-1.9,2Zm-9.187-2.5c-.217,0-.399.229-.399.5s.183.5.399.5h9.187c.217,0,.4-.229.4-.5s-.184-.5-.4-.5h-9.187Z"/><path d="M10.538,24c-1.621,0-3.011-.55-4.021-1.589l-3.949-4.09C1.557,17.278,1,15.803,1,14.167c0-1.61.557-3.072,1.568-4.117l9.174-9.47c.362-.374.85-.58,1.371-.58c0,0,0,0,.001,0c.54,0,1.049.218,1.434.614.766.792.78,2.061.032,2.828L13.137,4.953c.412.227.848.547,1.374.997l2.361,1.963c.804.824.788,2.093.024,2.882-.386.397-.895.615-1.435.615-.001,0-.001,0-.002,0-.521,0-1.007-.207-1.367-.581L11.715,8.953c-.668-.497-.783-.534-1.19-.534-.422,0-.803.159-1.164.486L5.475,12.974c-.282.291-.43.702-.43,1.191c0,.498.155.945.427,1.226l3.937,4.091c.251.26.627.392,1.116.392.49,0,.866-.132,1.116-.392l2.461-2.454c.351-.363.836-.569,1.357-.57c0,0,.001,0,.002,0c.539,0,1.049.219,1.434.616.765.79.78,2.058.034,2.825l-2.365,2.469C13.542,23.422,12.113,24,10.538,24ZM13.113,1.5c-.079,0-.194.021-.294.124L3.646,11.093c-.739.763-1.146,1.855-1.146,3.074c0,1.244.407,2.349,1.146,3.11.001.001.001.001.001.002l3.948,4.089c.72.74,1.737,1.132,2.943,1.132c1.183,0,2.202-.405,2.946-1.173l2.365-2.469c.188-.193.172-.531-.032-.741-.1-.103-.226-.159-.356-.159v0c-.078,0-.192.021-.29.122l-2.46,2.454c-.526.546-1.285.84-2.186.84-.898,0-1.658-.294-2.195-.85L4.393,16.433c-.546-.565-.848-1.371-.848-2.268c0-.874.302-1.667.849-2.231L8.315,7.83c.67-.609,1.421-.912,2.21-.912.878,0,1.315.258,2.104.845L15.097,9.72c.172.168.285.189.364.189v0c.131,0,.258-.057.357-.159.202-.21.219-.549.034-.739L13.541,7.096c-1.026-.881-1.474-1.02-1.844-1.086-.271-.05-.51-.247-.595-.51-.086-.263-.036-.554.155-.753L13.498,2.4c.189-.195.173-.533-.03-.743-.096-.1-.223-.157-.355-.157Z"/></g><ellipse rx="478.566386" ry="478.566386" transform="translate(512 512.17486)" fill="none" stroke="#000" stroke-width="25"/></svg>