<svg id="e3wxcGgYjy61" xmlns="http://www.w3.org/2000/svg" xmlns:xlink="http://www.w3.org/1999/xlink" viewBox="0 0 30 30" shape-rendering="geometricPrecision" text-rendering="geometricPrecision"><ellipse rx="14.5" ry="14.5" transform="translate(15 15)" fill="#ddecee" stroke="#667677"/><g transform="translate(3 2.999323)"><path d="M22,14.355c0-.742-.564-1.346-1.26-1.346h-10.064c-.696,0-1.26.604-1.26,1.346s.563,1.346,1.26,1.346h10.064c.696.001,1.26-.603,1.26-1.346Z" fill="#667677"/><path d="M3.482,18.187l4.313,4.361C8.768,23.527,10.113,24,11.598,24s2.83-.512,3.805-1.494l2.588-2.637c.51-.514.492-1.365-.039-1.9s-1.375-.553-1.884-.039l-2.676,2.607c-.462.467-1.102.662-1.809.662s-1.346-.195-1.81-.662L5.475,16.174c-.463-.467-.696-1.15-.696-1.863s.233-1.357.696-1.824L9.76,8.107c.463-.467,1.116-.645,1.822-.645s1.346.195,1.809.662l2.676,2.606c.51.515,1.354.497,1.885-.038.531-.536.549-1.387.039-1.901L15.403,6.155c-.649-.646-1.471-1.116-2.392-1.33l-.034-.007l2.447-2.503c.512-.514.494-1.366-.037-1.901s-1.376-.552-1.887-.038L3.482,10.476C2.509,11.458,2,12.813,2,14.311s.509,2.896,1.482,3.876Z" fill="#667677"/></g></svg>