<svg id="eIxSYnHl4qG1" xmlns="http://www.w3.org/2000/svg" xmlns:xlink="http://www.w3.org/1999/xlink" viewBox="0 5 30 30" shape-rendering="geometricPrecision" text-rendering="geometricPrecision"><ellipse rx="14.5" ry="14.5" transform="translate(15 20)" fill="#ddecee" stroke="#667677"/><path d="M0,120C0,86.666,11.667,59.166,35,37.5C58.333,15.833,88.667,5,126,5c36.667,0,66.333,10.666,89,32c23.333,22,35,50.666,35,86c0,32-11.333,58.666-34,80-23.333,22-54,33-92,33h-1c-36.667,0-66.333-11-89-33s-34-49.667-34-83ZM13,995v-668h222v668h-222Zm345,0h222v-373c0-23.334,2.667-41.334,8-54c9.333-22.667,23.5-41.834,42.5-57.5c19-15.667,42.833-23.5,71.5-23.5c74.667,0,112,50.333,112,151v357h222v-383c0-98.667-23.333-173.5-70-224.5s-108.333-76.5-185-76.5c-86,0-153,37-201,111v2h-1l1-2v-95h-222c1.333,21.333,2,87.666,2,199c0,111.333-.667,267.666-2,469Z" transform="matrix(.016556 0 0 0.016556 6.423992 11.722)" fill="#667677"/></svg>