<?xml version="1.0" standalone="no"?>
<!DOCTYPE svg PUBLIC "-//W3C//DTD SVG 20010904//EN"
 "http://www.w3.org/TR/2001/REC-SVG-20010904/DTD/svg10.dtd">
<svg version="1.0" xmlns="http://www.w3.org/2000/svg"
 width="512.000000pt" height="512.000000pt" viewBox="0 0 512.000000 512.000000"
 preserveAspectRatio="xMidYMid meet">
<metadata>
Created by potrace 1.16, written by Peter Selinger 2001-2019
</metadata>
<g transform="translate(0.000000,512.000000) scale(0.100000,-0.100000)"
fill="#000000" stroke="none">
<path d="M2220 4486 c-171 -39 -257 -87 -400 -220 -60 -55 -172 -159 -249
-231 -79 -74 -177 -154 -226 -185 -203 -129 -446 -365 -601 -585 -167 -236
-287 -496 -362 -785 -38 -145 -51 -256 -61 -510 -9 -226 -3 -205 -93 -345
-114 -176 -148 -277 -148 -440 l0 -108 43 7 c71 11 233 103 452 256 141 100
482 382 631 523 39 37 74 67 77 67 2 0 12 -24 22 -52 29 -90 81 -147 184 -203
47 -26 56 -35 53 -55 -2 -14 -4 -70 -5 -125 -3 -128 21 -196 102 -292 70 -83
141 -132 288 -198 l116 -51 21 -60 c42 -115 106 -186 213 -236 121 -57 308
-71 513 -37 178 28 430 120 544 198 l30 20 31 -28 c106 -93 412 -135 630 -88
216 48 318 196 256 375 l-18 54 47 54 c26 30 65 87 86 127 34 65 38 81 42 165
3 72 0 103 -13 138 -9 25 -15 48 -12 51 8 8 141 -70 236 -138 45 -32 86 -59
90 -59 4 0 11 36 14 80 6 72 42 233 97 431 11 41 20 81 20 91 0 10 16 43 36
74 75 118 117 246 136 420 24 223 -40 427 -174 550 -82 76 -207 145 -448 249
-219 94 -274 136 -517 391 -61 64 -153 138 -202 164 -22 11 -72 31 -113 44
-70 24 -73 26 -74 58 -9 236 -100 357 -320 425 -82 25 -348 25 -446 -1 -67
-17 -68 -17 -125 5 -48 18 -82 22 -203 25 -93 2 -165 -1 -200 -10z m406 -103
c120 -43 219 -106 305 -193 82 -82 136 -176 164 -280 19 -73 19 -224 -1 -311
-9 -39 -14 -73 -11 -75 3 -3 17 20 32 51 81 165 47 414 -83 609 -43 66 -166
196 -184 196 -4 0 -8 7 -8 15 0 21 60 29 179 22 217 -13 362 -90 410 -219 18
-48 23 -142 11 -208 -16 -91 -66 -178 -170 -300 -49 -57 -95 -116 -102 -130
-7 -14 -25 -40 -40 -58 -16 -18 -28 -37 -28 -42 0 -25 35 -4 110 65 72 66 120
93 120 67 0 -5 36 -37 80 -72 133 -104 229 -227 278 -355 44 -117 56 -218 48
-414 -17 -441 -18 -478 -7 -536 30 -160 120 -260 360 -399 162 -94 206 -129
236 -192 24 -50 31 -131 15 -180 -16 -47 -119 -224 -131 -224 -12 0 -99 62
-99 71 0 4 7 36 16 70 27 107 1 208 -78 303 -42 51 -187 146 -268 175 -129 47
-120 36 -65 85 l49 43 44 -34 c41 -31 62 -40 62 -27 0 3 -26 36 -58 72 -32 37
-89 108 -127 157 -136 179 -229 255 -312 255 -43 0 -96 -28 -113 -59 -6 -12
-18 -21 -27 -21 -27 0 -11 154 23 225 32 69 69 91 137 81 76 -12 125 -65 197
-211 33 -68 60 -128 60 -133 0 -5 7 -15 16 -23 13 -11 14 -9 8 17 -45 190
-151 358 -242 384 -107 29 -179 -20 -234 -161 -30 -77 -30 -232 -1 -307 64
-161 154 -228 469 -351 140 -55 229 -103 282 -154 84 -80 125 -235 87 -333
-34 -90 -113 -155 -235 -195 -64 -20 -94 -24 -210 -23 -112 0 -148 4 -210 23
-239 74 -382 218 -396 399 -3 37 -2 85 3 107 9 39 10 40 51 38 60 -3 94 -31
132 -112 19 -38 37 -68 40 -66 12 8 -6 91 -31 140 -32 66 -65 88 -138 93 -78
6 -171 -23 -271 -82 -89 -53 -226 -161 -257 -204 -15 -20 -53 -45 -105 -70
-166 -78 -283 -198 -327 -334 -7 -21 -17 -38 -23 -38 -6 0 -49 20 -95 45 -264
143 -363 281 -350 486 9 145 47 209 239 405 118 121 143 154 119 154 -6 0 -43
-26 -83 -59 -86 -69 -201 -193 -258 -280 -23 -34 -48 -65 -57 -68 -35 -14
-141 63 -172 126 -25 49 -44 135 -36 161 4 11 25 33 48 48 135 87 367 294 367
328 0 21 -16 17 -52 -14 -18 -16 -143 -112 -278 -214 -135 -101 -254 -192
-265 -200 -64 -52 -204 -173 -269 -232 -42 -38 -79 -66 -82 -63 -6 5 145 247
210 335 237 327 493 521 791 599 38 10 66 23 64 28 -7 18 -131 9 -199 -14
-170 -59 -297 -139 -444 -281 -126 -122 -209 -222 -401 -485 -179 -246 -259
-344 -263 -323 -4 21 58 171 110 268 56 102 148 234 257 364 50 60 89 112 86
115 -8 8 -150 -137 -198 -201 -37 -52 -57 -70 -57 -51 0 16 101 165 170 252
181 225 399 391 592 450 38 11 80 27 95 36 27 16 26 16 -43 11 -210 -14 -426
-157 -628 -414 -43 -54 -66 -74 -66 -57 0 17 83 148 127 200 80 95 102 115
220 194 75 51 165 89 268 115 106 26 155 29 250 11 176 -32 162 -31 143 -9
-36 41 -114 59 -248 59 -105 0 -136 -4 -195 -24 -138 -47 -225 -98 -383 -225
-56 -46 -151 -165 -196 -247 -20 -36 -45 -101 -56 -143 -21 -84 -29 -100 -131
-251 -130 -195 -157 -256 -188 -441 -24 -137 -44 -174 -123 -226 -66 -44 -212
-118 -233 -118 -21 0 -29 41 -22 121 7 78 25 126 98 246 96 158 109 193 118
312 7 92 13 117 46 191 49 107 175 320 228 383 47 57 155 151 261 226 69 50
89 71 68 71 -10 0 -133 -76 -192 -118 -65 -48 -175 -157 -232 -232 -28 -36
-71 -109 -96 -162 -26 -54 -50 -97 -54 -98 -14 0 4 194 20 220 69 110 344 400
449 473 70 49 265 145 388 192 107 40 133 55 97 55 -55 0 -284 -78 -379 -130
-197 -106 -368 -257 -473 -417 -76 -116 -89 -111 -45 17 38 111 119 206 380
444 160 145 218 186 365 257 157 77 175 84 305 129 138 47 167 66 87 56 -55
-7 -320 -89 -362 -112 -14 -7 -50 -25 -80 -39 -181 -82 -455 -303 -540 -435
-29 -46 -60 -71 -60 -50 0 16 108 227 158 310 133 221 312 404 471 485 101 50
326 116 451 131 104 13 223 15 290 4 41 -6 90 -14 108 -17 29 -5 33 -3 30 13
-2 10 -23 30 -48 44 -39 22 -57 25 -137 25 -51 -1 -93 2 -93 6 0 15 28 28 94
44 155 39 357 35 514 -9 176 -50 292 -115 406 -229 37 -38 70 -66 73 -63 3 3
-12 29 -33 57 -115 157 -267 256 -465 305 -91 23 -117 25 -238 21 -75 -3 -149
-7 -166 -10 -71 -11 -212 -55 -310 -98 -96 -41 -328 -119 -357 -119 -20 0 -5
31 25 51 17 12 37 27 42 34 44 50 272 168 433 224 176 60 266 75 477 75 188 0
191 0 285 -32 52 -17 118 -47 145 -65 100 -68 179 -172 214 -279 19 -59 35
-60 28 -3 -20 146 -179 325 -362 411 -112 52 -193 69 -330 68 -105 0 -134 -4
-230 -33 -99 -28 -287 -112 -387 -172 -21 -13 -41 -19 -45 -15 -16 16 136 120
262 180 112 54 154 68 280 95 17 3 89 6 160 5 113 -1 140 -5 210 -28 239 -81
403 -246 470 -474 12 -40 26 -72 31 -70 23 7 -9 146 -57 245 -45 94 -118 175
-221 245 -59 40 -98 58 -233 108 -20 8 -25 14 -16 19 15 10 138 -22 195 -51
53 -27 154 -99 185 -132 46 -49 57 -25 14 30 -34 45 -132 114 -203 143 -181
74 -554 36 -779 -79 -80 -40 -66 -7 34 80 79 69 179 123 281 151 57 16 94 18
209 15 125 -3 149 -7 221 -33z m960 -465 c97 -58 139 -94 304 -257 171 -170
244 -228 345 -276 41 -19 75 -38 75 -42 0 -12 -167 8 -260 31 -134 35 -161 43
-262 82 -97 37 -154 46 -128 20 8 -8 53 -30 100 -49 47 -19 108 -44 135 -57
28 -13 100 -35 161 -50 127 -32 294 -40 377 -18 45 11 52 11 95 -12 66 -36 69
-55 6 -45 -27 4 -96 9 -154 10 -288 7 -508 48 -605 114 -53 35 -55 36 -55 17
0 -22 115 -94 187 -116 87 -27 153 -36 378 -55 345 -29 485 -73 590 -187 45
-48 59 -72 80 -139 32 -103 41 -220 26 -343 -14 -110 -60 -267 -80 -274 -16
-5 -13 33 14 181 30 167 -2 317 -91 436 -85 113 -194 182 -354 222 -70 17
-106 20 -205 17 -73 -3 -142 -11 -175 -22 -30 -9 -66 -20 -79 -24 -13 -4 -26
-13 -29 -19 -6 -20 55 -16 116 7 66 25 263 28 361 5 204 -49 342 -200 387
-425 13 -67 16 -115 11 -230 -7 -162 -25 -284 -55 -360 -3 -8 -11 44 -18 115
-15 160 -19 177 -55 290 -91 286 -318 475 -570 475 -79 0 -68 -16 21 -31 123
-20 226 -67 308 -143 196 -180 283 -500 241 -887 -19 -171 -42 -221 -73 -160
-20 38 -20 121 -1 232 18 101 23 194 12 205 -20 20 -26 -13 -57 -316 -6 -57
-15 -109 -20 -114 -6 -6 -19 -5 -36 2 -103 47 -172 167 -208 363 -68 358 -82
406 -148 506 -43 64 -147 109 -240 104 -28 -2 -21 -20 10 -27 137 -30 216
-121 271 -311 35 -124 77 -350 66 -361 -14 -14 -36 32 -64 137 -32 120 -45
147 -57 116 -13 -33 25 -146 87 -259 74 -136 97 -200 79 -221 -7 -8 -18 -15
-26 -15 -7 0 -66 31 -131 68 -65 38 -148 85 -184 105 -112 61 -229 184 -229
239 0 28 14 22 56 -26 104 -118 98 -112 102 -92 5 23 -52 106 -118 171 -49 48
-50 50 -50 109 0 49 24 229 45 341 3 15 22 26 78 44 102 32 226 28 310 -11
172 -81 307 -343 338 -656 14 -149 18 -172 30 -172 7 0 9 44 6 128 -9 287 -87
512 -227 653 -70 71 -121 102 -197 120 -88 20 -149 20 -228 -1 -41 -11 -76
-20 -78 -20 -3 0 -7 57 -9 128 -5 110 -10 139 -38 216 -42 117 -126 240 -232
341 -47 44 -96 88 -109 97 -20 15 -22 19 -9 28 21 14 122 12 200 -4 82 -16
201 -66 279 -116 70 -45 91 -36 37 15 -86 80 -267 142 -448 152 -60 3 -108 9
-108 13 0 23 72 35 200 34 128 -1 139 -3 209 -33 75 -32 94 -33 71 -6 -25 30
-116 65 -199 77 -102 14 -217 0 -319 -38 -37 -14 -76 -28 -87 -31 -11 -4 13
28 57 75 71 75 114 140 133 202 8 28 24 50 34 50 4 0 38 -19 77 -42z m-229
-1834 c18 -17 51 -37 74 -44 37 -13 45 -12 77 6 20 10 46 37 59 59 12 22 26
40 31 40 7 0 53 -53 115 -133 12 -15 -14 -47 -57 -69 -39 -20 -114 -12 -186
19 -92 41 -201 156 -200 210 1 7 13 -3 28 -22 15 -19 41 -49 59 -66z m-460
-453 c-4 -16 -2 -64 2 -106 21 -187 153 -341 371 -434 73 -32 106 -39 224 -51
224 -22 412 33 534 158 37 38 23 41 124 -26 41 -27 88 -108 88 -152 0 -117
-102 -208 -270 -240 -68 -13 -268 -14 -327 -2 -76 16 -182 71 -231 120 -23 23
-45 42 -47 42 -3 0 -26 -15 -52 -34 -66 -47 -193 -108 -288 -139 -243 -80
-536 -105 -675 -59 -118 40 -202 114 -215 192 -29 169 119 365 362 477 75 35
258 93 292 93 10 0 25 6 35 13 17 13 17 14 2 20 -20 8 -163 -11 -188 -24 -21
-12 -38 -12 -38 0 0 13 132 109 203 147 80 43 102 44 94 5z"/>
<path d="M1887 3513 c-8 -10 -24 -38 -35 -63 -70 -168 -53 -291 80 -570 119
-247 147 -367 118 -491 -22 -92 -48 -129 -195 -274 -130 -128 -185 -193 -185
-220 0 -5 26 17 58 50 32 33 107 108 167 167 130 126 177 203 195 313 22 135
-8 249 -115 447 -111 206 -120 235 -119 363 0 97 4 121 32 200 18 49 32 91 32
92 0 9 -19 0 -33 -14z"/>
<path d="M2469 3367 c-37 -13 -86 -36 -110 -52 -53 -36 -149 -134 -149 -152 0
-19 17 -16 40 7 38 38 124 87 195 110 120 40 276 22 403 -46 123 -66 244 -92
351 -75 94 15 309 116 290 136 -3 3 -55 -11 -115 -31 -91 -31 -127 -37 -220
-42 -77 -3 -113 -1 -118 7 -4 6 -15 11 -25 11 -10 0 -66 25 -124 55 -196 101
-288 116 -418 72z"/>
<path d="M2412 3160 c-78 -39 -195 -131 -174 -138 5 -1 30 11 54 27 147 99
236 105 493 31 93 -27 132 -32 256 -37 l146 -5 134 45 c199 66 188 66 277 1
20 -15 22 -15 22 1 0 20 -54 73 -88 86 -34 13 -153 -7 -262 -43 -81 -27 -110
-32 -195 -32 -92 -1 -113 3 -276 52 -229 68 -273 69 -387 12z"/>
<path d="M2769 2904 c-19 -22 -115 -69 -195 -95 -38 -12 -73 -25 -78 -30 -6
-5 1 -20 17 -37 15 -15 27 -38 27 -49 0 -12 4 -25 10 -28 16 -10 144 33 193
66 81 54 109 105 87 159 -14 33 -40 39 -61 14z"/>
<path d="M3340 2869 c-15 -55 -8 -78 37 -122 45 -46 123 -85 184 -93 46 -6 47
-6 64 30 10 20 26 41 36 47 11 5 19 14 19 19 0 5 -37 23 -82 40 -110 42 -201
88 -211 106 -15 27 -36 15 -47 -27z"/>
<path d="M2755 2675 c-5 -2 -30 -9 -54 -15 -54 -14 -146 -98 -203 -185 -22
-33 -82 -147 -133 -253 -52 -107 -108 -209 -125 -228 -16 -19 -30 -39 -30 -45
0 -16 29 4 48 33 9 14 35 52 56 84 22 33 58 95 81 139 144 277 212 366 312
412 49 23 59 24 100 13 67 -16 97 -42 131 -112 33 -68 67 -176 58 -185 -3 -3
-19 6 -36 20 -73 62 -176 58 -278 -10 -58 -39 -240 -231 -313 -329 -52 -70
-210 -229 -284 -285 -31 -23 -54 -44 -51 -46 9 -9 73 31 168 103 53 41 101 74
107 74 6 0 17 -13 25 -29 38 -72 114 -107 217 -98 89 8 187 59 288 151 63 59
160 222 161 271 0 11 4 26 9 34 8 13 12 13 27 0 16 -13 16 -9 10 66 -20 215
-78 345 -175 395 -38 19 -98 32 -116 25z m188 -373 c26 -29 30 -74 13 -142
-35 -137 -112 -232 -239 -295 -118 -58 -209 -59 -329 -4 -16 7 -28 17 -28 22
0 13 170 191 187 195 6 2 14 -6 18 -18 4 -11 24 -32 46 -47 34 -22 47 -25 103
-21 145 9 228 134 192 291 -7 30 -5 37 6 37 8 0 22 -8 31 -18z"/>
<path d="M3840 2481 c0 -5 22 -18 50 -29 65 -27 140 -99 178 -170 16 -31 53
-116 81 -188 51 -129 102 -224 120 -224 6 0 1 21 -10 48 -12 26 -45 112 -75
191 -30 79 -67 167 -82 194 -36 67 -103 134 -155 156 -51 22 -107 34 -107 22z"/>
</g>
</svg>
