<svg id="ehfidXDO78v1" xmlns="http://www.w3.org/2000/svg" xmlns:xlink="http://www.w3.org/1999/xlink" viewBox="0 0 30 30" shape-rendering="geometricPrecision" text-rendering="geometricPrecision"><ellipse rx="14.5" ry="14.5" transform="translate(15 15)" fill="#ddecee" stroke="#667677"/><g transform="matrix(.027629 0 0 0.027629-.969562-.913889)"><path d="M1024.5,534.05c1.23,13.58,2.08,27.28,2.08,41.19v0c0-13.91-.85-27.6-2.08-41.19Z" fill="#667677"/><path d="M359,531.68c0,0-124.75,459.64,375.26,463.64c156.88-58.4,272.48-201.58,290-374.2c1.21-11.94,1.57-24.12,1.84-36.32.05-3.21.48-6.33.48-9.56c0-13.9-.85-27.61-2.08-41.19C892.4,1054.08,308,850.39,359,531.68Z" fill="#667677"/><path d="M617.54,361.07c0,0-465.54-130.01-458.38,377.61c23.863965,61.342538,60.89825,116.701097,108.49,162.17c2,1.89,4.07,3.68,6.09,5.54c13.461734,12.411033,27.668124,23.989208,42.54,34.67c2.31,1.65,4.48,3.47,6.8,5.08c15.731266,10.757556,32.13478,20.497456,49.11,29.16c4.93,2.54,10,4.86,15,7.23c14.607887,6.877801,29.580137,12.953497,44.85,18.2c3.75,1.28,7.33,2.88,11.13,4.07c18.306477,5.597125,36.955277,10.006298,55.83,13.2c5.71,1,11.48,1.84,17.26,2.64c19.581012,2.827715,39.32719,4.361042,59.11,4.59.76,0,1.49.12,2.25.12c14.92,0,29.65-.8,44.18-2.23C99.46,898.55,298,314.47,617.54,361.07Z" fill="#667677"/><path d="M799,601.8c0,0,110.14-464.34-385.64-443.6-166.25,65.67-283.94,227.43-283.94,417c.1546,20.414223,1.694807,40.794406,4.61,61C238.37,110.86,832.8,281,799,601.8Z" fill="#667677"/><path d="M560.95,801.62c0,0,466.35,60.88,437.16-382.51C934.64,248.44,770.76,126.62,578,126.62c-27.294918.105479-54.523702,2.692799-81.35,7.73c519.64,63.79,384.58,671.81,64.3,667.27Z" fill="#667677"/><path d="M707.46,575.25c-.000003,50.824321-30.617972,96.643399-77.57507,116.089285s-101.00454,8.688473-136.93704-27.25547-46.672705-89.994807-27.211869-136.945711s65.289661-77.554284,116.113979-77.538104c69.381245.016566,125.615524,56.268753,125.61,125.65Z" fill="#667677"/></g></svg>