<svg id="e0OrJUz9SiV1" xmlns="http://www.w3.org/2000/svg" xmlns:xlink="http://www.w3.org/1999/xlink" viewBox="0 0 1024 1024" shape-rendering="geometricPrecision" text-rendering="geometricPrecision"><g transform="matrix(32.968728 0 0 32.968728 117.728716 116.375264)"><path d="M22,14.355c0-.742-.564-1.345-1.26-1.345h-10.064c-.696,0-1.26.604-1.26,1.345c0,.742.564,1.346,1.26,1.346h10.064c.696,0,1.26-.603,1.26-1.346v0Z" fill="#b3b1b0"/><path d="M22,14.355h-12.584v0c0,.742.564,1.346,1.26,1.346h10.064c.696,0,1.26-.603,1.26-1.346v0v0Z" fill="#9c9a99"/><path d="M4.781,14.355h-.046c.015.736.315,1.474.897,2.068c1.309,1.336,2.639,2.65,3.96,3.974l.204.198c.469.303.473,1.25.182,1.671-.31.449-.71.729-1.271.729-.02,0-.041,0-.062-.001-.2-.007-.364-.087-.53-.181-.035-.02-.07-.04-.104-.062.952.842,2.21,1.249,3.588,1.249c1.484,0,2.83-.511,3.804-1.494l2.589-2.637c.51-.514.492-1.365-.039-1.9-.272-.275-.627-.413-.978-.413-.332,0-.659.124-.906.374l-2.676,2.607c-.462.467-1.102.662-1.808.662s-1.346-.195-1.81-.662L5.478,16.174c-.454-.458-.688-1.122-.697-1.819v0Z" fill="#c98f1b"/><path d="M4.735,14.355h-2.817c.006,1.485.595,2.945,1.739,4.101c1.324,1.336,2.657,2.663,3.984,3.996.113.114.236.215.37.3.034.021.068.042.104.062.166.094.33.174.53.181.021.001.041.001.062.001.561,0,.961-.28,1.271-.729.291-.421.286-1.368-.182-1.671l-.204-.198c-1.321-1.324-2.652-2.638-3.96-3.974-.582-.594-.882-1.333-.897-2.069v0Z" fill="#060605"/><path d="M3.483,18.187l4.312,4.361C8.767,23.527,10.113,24,11.599,24c1.484,0,2.83-.511,3.804-1.494l2.589-2.637c.51-.514.492-1.365-.039-1.9-.53-.535-1.375-.553-1.884-.039l-2.676,2.607c-.462.467-1.102.662-1.808.662s-1.346-.195-1.81-.662L5.478,16.174c-.463-.468-.697-1.15-.697-1.863s.234-1.357.697-1.824l4.285-4.38c.464-.468,1.116-.645,1.822-.645.707,0,1.347.195,1.808.662l2.676,2.606c.51.515,1.354.497,1.885-.038.531-.536.549-1.386.039-1.901L15.404,6.156c-.648-.646-1.471-1.116-2.392-1.33l-.033-.006l2.447-2.504c.512-.514.494-1.366-.037-1.901-.53-.535-1.376-.553-1.887-.038L3.483,10.476C2.509,11.458,2,12.814,2,14.312s.509,2.894,1.483,3.875v0Z" fill="#e7a41f"/><path d="M8.115,22.814c-.176-.097-.332-.219-.474-.361-1.327-1.333-2.66-2.66-3.984-3.996-1.988-2.009-2.302-4.936-.785-7.32.234-.37.529-.694.839-1.004c3.208-3.214,6.415-6.43,9.623-9.644.625-.626,1.497-.652,2.079-.066.559.562.527,1.455-.077,2.065-.77.776-1.54,1.55-2.31,2.325-.041.122-.14.2-.226.287-.863.877-1.751,1.73-2.6,2.619-.111.115-.262.186-.372.305-1.423,1.423-2.862,2.83-4.265,4.272-1.136,1.167-1.096,2.938.068,4.128c1.309,1.336,2.639,2.65,3.96,3.974l.204.198c.469.303.473,1.25.182,1.671-.321.466-.739.75-1.333.728-.199-.008-.363-.088-.529-.181v0Z" fill="#070706"/><path d="M13.021,4.826c-.044.115-.138.19-.221.273-.863.877-1.751,1.73-2.6,2.619-.111.115-.262.186-.372.305-1.423,1.423-2.862,2.83-4.265,4.272-.58.596-.853,1.349-.827,2.102h.046c-.001-.029-.002-.058-.002-.087c0-.713.234-1.357.697-1.824l4.285-4.38c.464-.468,1.116-.645,1.822-.645.707,0,1.347.195,1.808.662l2.676,2.606c.248.251.576.375.908.375.35,0,.705-.138.977-.413.531-.536.549-1.386.039-1.901L15.403,6.155c-.646-.645-1.465-1.114-2.382-1.329v0ZM14.4,0c-.194.001-.386.045-.562.132.183-.083.374-.127.562-.132v0Z" fill="#eab03c"/><path d="M14.432,0c-.01,0-.021,0-.031,0-.189.004-.379.049-.562.132-.178.081-.349.2-.504.356-3.208,3.214-6.416,6.43-9.623,9.644-.31.31-.604.634-.839,1.004-.652,1.025-.966,2.151-.954,3.262h2.818c-.026-.753.248-1.506.827-2.102c1.402-1.442,2.842-2.849,4.265-4.272.111-.119.261-.189.372-.305.849-.889,1.737-1.742,2.6-2.619.083-.084.177-.159.221-.273.002-.005.003-.009.005-.014.77-.775,1.54-1.549,2.31-2.325.604-.61.637-1.503.077-2.065C15.133,0.14,14.786,0,14.432,0v0Z" fill="#272726"/></g><ellipse rx="409.203301" ry="409.203301" transform="matrix(1.186496 0 0 1.186496 512 512.02484)" fill="none" stroke="#000" stroke-width="25"/></svg>