<svg id="eDWBxVncHe81" xmlns="http://www.w3.org/2000/svg" xmlns:xlink="http://www.w3.org/1999/xlink" viewBox="0 0 512 512" shape-rendering="geometricPrecision" text-rendering="geometricPrecision"><ellipse rx="252" ry="252" transform="translate(256 256)" fill="#ddecee" stroke="#667677" stroke-width="5"/><g transform="matrix(.080131 0 0-.080131 50.585962 460.306055)"><path d="M2220,4486c-171-39-257-87-400-220-60-55-172-159-249-231-79-74-177-154-226-185-203-129-446-365-601-585-167-236-287-496-362-785-38-145-51-256-61-510-9-226-3-205-93-345-114-176-148-277-148-440v-108l43,7c71,11,233,103,452,256c141,100,482,382,631,523c39,37,74,67,77,67c2,0,12-24,22-52c29-90,81-147,184-203c47-26,56-35,53-55-2-14-4-70-5-125-3-128,21-196,102-292c70-83,141-132,288-198l116-51l21-60c42-115,106-186,213-236c121-57,308-71,513-37c178,28,430,120,544,198l30,20l31-28c106-93,412-135,630-88c216,48,318,196,256,375l-18,54l47,54c26,30,65,87,86,127c34,65,38,81,42,165c3,72,0,103-13,138-9,25-15,48-12,51c8,8,141-70,236-138c45-32,86-59,90-59s11,36,14,80c6,72,42,233,97,431c11,41,20,81,20,91s16,43,36,74c75,118,117,246,136,420c24,223-40,427-174,550-82,76-207,145-448,249-219,94-274,136-517,391-61,64-153,138-202,164-22,11-72,31-113,44-70,24-73,26-74,58-9,236-100,357-320,425-82,25-348,25-446-1-67-17-68-17-125,5-48,18-82,22-203,25-93,2-165-1-200-10Zm406-103c120-43,219-106,305-193c82-82,136-176,164-280c19-73,19-224-1-311-9-39-14-73-11-75c3-3,17,20,32,51c81,165,47,414-83,609-43,66-166,196-184,196-4,0-8,7-8,15c0,21,60,29,179,22c217-13,362-90,410-219c18-48,23-142,11-208-16-91-66-178-170-300-49-57-95-116-102-130s-25-40-40-58c-16-18-28-37-28-42c0-25,35-4,110,65c72,66,120,93,120,67c0-5,36-37,80-72c133-104,229-227,278-355c44-117,56-218,48-414-17-441-18-478-7-536c30-160,120-260,360-399c162-94,206-129,236-192c24-50,31-131,15-180-16-47-119-224-131-224s-99,62-99,71c0,4,7,36,16,70c27,107,1,208-78,303-42,51-187,146-268,175-129,47-120,36-65,85l49,43l44-34c41-31,62-40,62-27c0,3-26,36-58,72-32,37-89,108-127,157-136,179-229,255-312,255-43,0-96-28-113-59-6-12-18-21-27-21-27,0-11,154,23,225c32,69,69,91,137,81c76-12,125-65,197-211c33-68,60-128,60-133s7-15,16-23c13-11,14-9,8,17-45,190-151,358-242,384-107,29-179-20-234-161-30-77-30-232-1-307c64-161,154-228,469-351c140-55,229-103,282-154c84-80,125-235,87-333-34-90-113-155-235-195-64-20-94-24-210-23-112,0-148,4-210,23-239,74-382,218-396,399-3,37-2,85,3,107c9,39,10,40,51,38c60-3,94-31,132-112c19-38,37-68,40-66c12,8-6,91-31,140-32,66-65,88-138,93-78,6-171-23-271-82-89-53-226-161-257-204-15-20-53-45-105-70-166-78-283-198-327-334-7-21-17-38-23-38s-49,20-95,45c-264,143-363,281-350,486c9,145,47,209,239,405c118,121,143,154,119,154-6,0-43-26-83-59-86-69-201-193-258-280-23-34-48-65-57-68-35-14-141,63-172,126-25,49-44,135-36,161c4,11,25,33,48,48c135,87,367,294,367,328c0,21-16,17-52-14-18-16-143-112-278-214-135-101-254-192-265-200-64-52-204-173-269-232-42-38-79-66-82-63-6,5,145,247,210,335c237,327,493,521,791,599c38,10,66,23,64,28-7,18-131,9-199-14-170-59-297-139-444-281-126-122-209-222-401-485-179-246-259-344-263-323s58,171,110,268c56,102,148,234,257,364c50,60,89,112,86,115-8,8-150-137-198-201-37-52-57-70-57-51c0,16,101,165,170,252c181,225,399,391,592,450c38,11,80,27,95,36c27,16,26,16-43,11-210-14-426-157-628-414-43-54-66-74-66-57s83,148,127,200c80,95,102,115,220,194c75,51,165,89,268,115c106,26,155,29,250,11c176-32,162-31,143-9-36,41-114,59-248,59-105,0-136-4-195-24-138-47-225-98-383-225-56-46-151-165-196-247-20-36-45-101-56-143-21-84-29-100-131-251-130-195-157-256-188-441-24-137-44-174-123-226-66-44-212-118-233-118s-29,41-22,121c7,78,25,126,98,246c96,158,109,193,118,312c7,92,13,117,46,191c49,107,175,320,228,383c47,57,155,151,261,226c69,50,89,71,68,71-10,0-133-76-192-118-65-48-175-157-232-232-28-36-71-109-96-162-26-54-50-97-54-98-14,0,4,194,20,220c69,110,344,400,449,473c70,49,265,145,388,192c107,40,133,55,97,55-55,0-284-78-379-130-197-106-368-257-473-417-76-116-89-111-45,17c38,111,119,206,380,444c160,145,218,186,365,257c157,77,175,84,305,129c138,47,167,66,87,56-55-7-320-89-362-112-14-7-50-25-80-39-181-82-455-303-540-435-29-46-60-71-60-50c0,16,108,227,158,310c133,221,312,404,471,485c101,50,326,116,451,131c104,13,223,15,290,4c41-6,90-14,108-17c29-5,33-3,30,13-2,10-23,30-48,44-39,22-57,25-137,25-51-1-93,2-93,6c0,15,28,28,94,44c155,39,357,35,514-9c176-50,292-115,406-229c37-38,70-66,73-63s-12,29-33,57c-115,157-267,256-465,305-91,23-117,25-238,21-75-3-149-7-166-10-71-11-212-55-310-98-96-41-328-119-357-119-20,0-5,31,25,51c17,12,37,27,42,34c44,50,272,168,433,224c176,60,266,75,477,75c188,0,191,0,285-32c52-17,118-47,145-65c100-68,179-172,214-279c19-59,35-60,28-3-20,146-179,325-362,411-112,52-193,69-330,68-105,0-134-4-230-33-99-28-287-112-387-172-21-13-41-19-45-15-16,16,136,120,262,180c112,54,154,68,280,95c17,3,89,6,160,5c113-1,140-5,210-28c239-81,403-246,470-474c12-40,26-72,31-70c23,7-9,146-57,245-45,94-118,175-221,245-59,40-98,58-233,108-20,8-25,14-16,19c15,10,138-22,195-51c53-27,154-99,185-132c46-49,57-25,14,30-34,45-132,114-203,143-181,74-554,36-779-79-80-40-66-7,34,80c79,69,179,123,281,151c57,16,94,18,209,15c125-3,149-7,221-33Zm960-465c97-58,139-94,304-257c171-170,244-228,345-276c41-19,75-38,75-42c0-12-167,8-260,31-134,35-161,43-262,82-97,37-154,46-128,20c8-8,53-30,100-49s108-44,135-57c28-13,100-35,161-50c127-32,294-40,377-18c45,11,52,11,95-12c66-36,69-55,6-45-27,4-96,9-154,10-288,7-508,48-605,114-53,35-55,36-55,17c0-22,115-94,187-116c87-27,153-36,378-55c345-29,485-73,590-187c45-48,59-72,80-139c32-103,41-220,26-343-14-110-60-267-80-274-16-5-13,33,14,181c30,167-2,317-91,436-85,113-194,182-354,222-70,17-106,20-205,17-73-3-142-11-175-22-30-9-66-20-79-24s-26-13-29-19c-6-20,55-16,116,7c66,25,263,28,361,5c204-49,342-200,387-425c13-67,16-115,11-230-7-162-25-284-55-360-3-8-11,44-18,115-15,160-19,177-55,290-91,286-318,475-570,475-79,0-68-16,21-31c123-20,226-67,308-143c196-180,283-500,241-887-19-171-42-221-73-160-20,38-20,121-1,232c18,101,23,194,12,205-20,20-26-13-57-316-6-57-15-109-20-114-6-6-19-5-36,2-103,47-172,167-208,363-68,358-82,406-148,506-43,64-147,109-240,104-28-2-21-20,10-27c137-30,216-121,271-311c35-124,77-350,66-361-14-14-36,32-64,137-32,120-45,147-57,116-13-33,25-146,87-259c74-136,97-200,79-221-7-8-18-15-26-15-7,0-66,31-131,68-65,38-148,85-184,105-112,61-229,184-229,239c0,28,14,22,56-26c104-118,98-112,102-92c5,23-52,106-118,171-49,48-50,50-50,109c0,49,24,229,45,341c3,15,22,26,78,44c102,32,226,28,310-11c172-81,307-343,338-656c14-149,18-172,30-172c7,0,9,44,6,128-9,287-87,512-227,653-70,71-121,102-197,120-88,20-149,20-228-1-41-11-76-20-78-20-3,0-7,57-9,128-5,110-10,139-38,216-42,117-126,240-232,341-47,44-96,88-109,97-20,15-22,19-9,28c21,14,122,12,200-4c82-16,201-66,279-116c70-45,91-36,37,15-86,80-267,142-448,152-60,3-108,9-108,13c0,23,72,35,200,34s139-3,209-33c75-32,94-33,71-6-25,30-116,65-199,77-102,14-217,0-319-38-37-14-76-28-87-31-11-4,13,28,57,75c71,75,114,140,133,202c8,28,24,50,34,50c4,0,38-19,77-42ZM3357,2084c18-17,51-37,74-44c37-13,45-12,77,6c20,10,46,37,59,59c12,22,26,40,31,40c7,0,53-53,115-133c12-15-14-47-57-69-39-20-114-12-186,19-92,41-201,156-200,210c1,7,13-3,28-22s41-49,59-66Zm-460-453c-4-16-2-64,2-106c21-187,153-341,371-434c73-32,106-39,224-51c224-22,412,33,534,158c37,38,23,41,124-26c41-27,88-108,88-152c0-117-102-208-270-240-68-13-268-14-327-2-76,16-182,71-231,120-23,23-45,42-47,42-3,0-26-15-52-34-66-47-193-108-288-139-243-80-536-105-675-59-118,40-202,114-215,192-29,169,119,365,362,477c75,35,258,93,292,93c10,0,25,6,35,13c17,13,17,14,2,20-20,8-163-11-188-24-21-12-38-12-38,0c0,13,132,109,203,147c80,43,102,44,94,5Z" fill="#667677"/><path d="M1887,3513c-8-10-24-38-35-63-70-168-53-291,80-570c119-247,147-367,118-491-22-92-48-129-195-274-130-128-185-193-185-220c0-5,26,17,58,50s107,108,167,167c130,126,177,203,195,313c22,135-8,249-115,447-111,206-120,235-119,363c0,97,4,121,32,200c18,49,32,91,32,92c0,9-19,0-33-14Z" fill="#667677"/><path d="M2469,3367c-37-13-86-36-110-52-53-36-149-134-149-152c0-19,17-16,40,7c38,38,124,87,195,110c120,40,276,22,403-46c123-66,244-92,351-75c94,15,309,116,290,136-3,3-55-11-115-31-91-31-127-37-220-42-77-3-113-1-118,7-4,6-15,11-25,11s-66,25-124,55c-196,101-288,116-418,72Z" fill="#667677"/><path d="M2412,3160c-78-39-195-131-174-138c5-1,30,11,54,27c147,99,236,105,493,31c93-27,132-32,256-37l146-5l134,45c199,66,188,66,277,1c20-15,22-15,22,1c0,20-54,73-88,86s-153-7-262-43c-81-27-110-32-195-32-92-1-113,3-276,52-229,68-273,69-387,12Z" fill="#667677"/><path d="M2769,2904c-19-22-115-69-195-95-38-12-73-25-78-30-6-5,1-20,17-37c15-15,27-38,27-49c0-12,4-25,10-28c16-10,144,33,193,66c81,54,109,105,87,159-14,33-40,39-61,14Z" fill="#667677"/><path d="M3340,2869c-15-55-8-78,37-122c45-46,123-85,184-93c46-6,47-6,64,30c10,20,26,41,36,47c11,5,19,14,19,19s-37,23-82,40c-110,42-201,88-211,106-15,27-36,15-47-27Z" fill="#667677"/><path d="M2755,2675c-5-2-30-9-54-15-54-14-146-98-203-185-22-33-82-147-133-253-52-107-108-209-125-228-16-19-30-39-30-45c0-16,29,4,48,33c9,14,35,52,56,84c22,33,58,95,81,139c144,277,212,366,312,412c49,23,59,24,100,13c67-16,97-42,131-112c33-68,67-176,58-185-3-3-19,6-36,20-73,62-176,58-278-10-58-39-240-231-313-329-52-70-210-229-284-285-31-23-54-44-51-46c9-9,73,31,168,103c53,41,101,74,107,74s17-13,25-29c38-72,114-107,217-98c89,8,187,59,288,151c63,59,160,222,161,271c0,11,4,26,9,34c8,13,12,13,27,0c16-13,16-9,10,66-20,215-78,345-175,395-38,19-98,32-116,25Zm188-373c26-29,30-74,13-142-35-137-112-232-239-295-118-58-209-59-329-4-16,7-28,17-28,22c0,13,170,191,187,195c6,2,14-6,18-18c4-11,24-32,46-47c34-22,47-25,103-21c145,9,228,134,192,291-7,30-5,37,6,37c8,0,22-8,31-18Z" fill="#667677"/><path d="M3840,2481c0-5,22-18,50-29c65-27,140-99,178-170c16-31,53-116,81-188c51-129,102-224,120-224c6,0,1,21-10,48-12,26-45,112-75,191s-67,167-82,194c-36,67-103,134-155,156-51,22-107,34-107,22Z" transform="translate(0 30)" fill="#667677"/></g></svg>