<?xml version="1.0" standalone="no"?>
<!DOCTYPE svg PUBLIC "-//W3C//DTD SVG 20010904//EN"
 "http://www.w3.org/TR/2001/REC-SVG-20010904/DTD/svg10.dtd">
<svg version="1.0" xmlns="http://www.w3.org/2000/svg"
 width="512.000000pt" height="512.000000pt" viewBox="0 0 512.000000 512.000000"
 preserveAspectRatio="xMidYMid meet">
<metadata>
Created by potrace 1.16, written by Peter Selinger 2001-2019
</metadata>
<g transform="translate(0.000000,512.000000) scale(0.100000,-0.100000)"
fill="#000000" stroke="none">
<path d="M1535 5096 c-13 -13 -26 -39 -29 -57 -18 -116 -13 -108 -59 -119 -80
-20 -163 -53 -257 -101 l-94 -48 -52 39 c-43 34 -58 40 -98 40 l-48 0 -139
-136 c-150 -148 -169 -179 -149 -236 6 -18 25 -50 43 -71 l33 -38 -58 -117
c-32 -64 -68 -154 -80 -198 l-23 -82 -59 -7 c-73 -8 -108 -25 -124 -60 -8 -17
-12 -92 -12 -225 0 -198 0 -199 25 -228 25 -30 39 -35 126 -47 45 -6 45 -6 59
-58 17 -69 79 -219 118 -286 l31 -54 -34 -41 c-42 -51 -58 -91 -50 -126 4 -17
61 -82 154 -173 142 -141 149 -147 188 -147 32 0 52 8 86 34 l45 35 7 -87 c16
-206 69 -398 165 -598 148 -308 372 -559 678 -760 76 -51 123 -90 147 -122 63
-85 65 -101 65 -544 0 -425 2 -442 49 -468 28 -14 1205 -14 1233 1 45 24 48
52 48 494 l0 415 28 0 c15 0 153 -14 307 -31 155 -17 307 -29 340 -26 133 10
248 109 283 242 6 22 18 153 27 290 9 138 18 260 21 272 3 16 34 36 128 82
130 63 152 83 176 155 25 76 13 108 -150 394 l-152 269 1 129 c9 724 -380
1335 -1005 1583 -157 62 -293 93 -517 116 l-59 7 21 22 c12 13 25 36 30 53 19
67 5 87 -191 272 -101 95 -109 101 -149 101 -34 0 -53 -8 -94 -39 l-52 -39
-94 48 c-52 26 -132 60 -179 75 -132 41 -130 40 -130 79 0 58 -11 95 -38 121
l-25 25 -219 0 c-217 0 -219 0 -243 -24z m325 -208 c0 -48 18 -103 39 -122 11
-10 65 -29 121 -42 124 -31 237 -77 333 -138 40 -24 84 -47 98 -51 29 -7 78
12 122 47 l27 22 52 -52 52 -52 -22 -27 c-35 -44 -54 -93 -47 -122 3 -14 24
-53 45 -86 73 -113 160 -334 160 -407 0 -34 63 -88 102 -88 74 0 78 -5 78 -85
l0 -74 -57 -7 c-32 -3 -66 -11 -75 -16 -25 -12 -43 -52 -61 -135 -24 -106 -71
-220 -134 -325 -69 -113 -73 -147 -25 -207 17 -22 32 -44 32 -48 0 -5 -22 -30
-49 -57 l-49 -48 -52 36 c-69 48 -96 46 -184 -9 -109 -68 -215 -113 -337 -144
-145 -36 -169 -59 -169 -162 l0 -29 -79 0 -79 0 -7 55 c-10 86 -31 103 -162
136 -118 29 -251 86 -351 151 -53 35 -68 40 -101 35 -24 -3 -56 -18 -81 -38
l-41 -33 -54 54 -54 53 36 44 c49 59 49 104 0 177 -72 109 -138 267 -161 386
-18 91 -41 112 -133 125 l-53 7 0 73 c0 80 4 85 77 85 58 0 91 42 113 140 28
128 81 254 157 368 47 70 48 117 4 172 -17 21 -31 43 -31 47 0 5 22 31 50 58
l50 49 27 -22 c44 -35 93 -54 122 -47 14 4 57 26 96 50 106 66 198 105 325
136 138 34 156 49 166 139 l7 60 78 0 79 0 0 -32z m1325 -740 c470 -108 837
-442 999 -906 63 -180 79 -289 81 -527 l2 -210 140 -245 c77 -135 145 -255
152 -268 12 -22 8 -25 -123 -88 -103 -49 -139 -71 -150 -92 -9 -18 -21 -128
-35 -335 -12 -170 -25 -316 -28 -325 -11 -32 -56 -72 -87 -78 -17 -3 -201 13
-408 35 -404 44 -421 43 -452 -4 -14 -21 -16 -82 -16 -465 l0 -440 -455 0
-455 0 0 353 c0 389 -4 420 -62 530 -46 85 -111 153 -208 215 -347 223 -598
534 -715 885 -36 110 -65 237 -65 288 0 26 3 30 18 24 9 -5 50 -18 89 -30 40
-11 76 -24 80 -28 4 -4 10 -35 14 -70 6 -52 12 -66 38 -89 l31 -28 210 0 210
0 30 28 c26 23 32 37 38 91 4 41 12 67 22 72 8 4 55 20 104 35 50 15 132 49
184 76 52 26 100 45 106 41 6 -4 30 -22 54 -40 33 -25 54 -33 84 -33 40 0 47
6 181 138 77 75 145 151 153 168 18 42 5 83 -41 139 l-35 44 34 58 c38 66 99
215 116 285 12 46 13 47 59 53 85 11 98 16 122 41 24 25 24 28 24 241 l0 215
-32 28 c-25 22 -45 30 -95 35 l-64 7 -26 86 c-15 48 -30 96 -34 106 -7 18 -3
19 57 12 35 -4 105 -16 154 -28z"/>
<path d="M1675 4409 c-297 -46 -532 -254 -606 -536 -26 -100 -29 -259 -5 -358
49 -204 203 -395 391 -485 201 -96 457 -95 651 3 258 130 404 367 404 655 0
127 -18 208 -70 317 -116 241 -346 392 -625 409 -44 3 -107 1 -140 -5z m185
-209 c95 -15 219 -79 288 -149 161 -161 198 -401 94 -606 -31 -63 -151 -182
-218 -217 -196 -105 -450 -67 -609 90 -172 171 -208 425 -89 628 77 131 218
228 367 253 73 12 93 12 167 1z"/>
</g>
</svg>
