<?xml version="1.0" encoding="UTF-8" standalone="no"?>
<svg
   xmlns:svg="http://www.w3.org/2000/svg"
   xmlns="http://www.w3.org/2000/svg"
   version="1.1"
   id="svg3667"
   viewBox="0 0 719.20313 305.07651"
   height="305.07651"
   width="719.20312">
  <defs
     id="defs3669" />
  <g
     transform="translate(13.887274,-531.25253)"
     id="layer1">
    <path
       d="m -8.8872743,536.49473 13.044135,0 0,26.088 -13.044135,0 0,-26.088"
       style="fill:#9ac00a;fill-opacity:1;fill-rule:nonzero;stroke:none"
       id="path22" />
    <path
       id="path24"
       d="m 628.76898,536.25253 c 0.729,4.929 1.09375,10.7691 1.09375,18.4356 l 0,94.0097 c 0,7.668 -0.36475,13.3264 -1.09375,18.2539 l 20.99023,0 c -0.729,-4.197 -1.09375,-10.7689 -1.09375,-18.2539 l 0,-42.7148 c 6.7545,-7.1205 16.793,-12.5957 23,-12.5957 6.2055,0 8.21485,3.8334 8.21485,16.0644 l 0,39.2461 c 0,7.485 -0.54821,14.6029 -1.0957,18.2539 l 20.99218,0 c -0.729,-4.017 -1.09375,-10.5859 -1.09375,-18.2539 l 0,-43.08 c 0,-12.2295 -0.73187,-17.1594 -2.92187,-21.3594 -3.2865,-5.475 -8.94633,-8.5781 -16.61133,-8.5781 -9.1275,0 -21.35538,5.6596 -30.48438,14.0566 l 0,-35.0488 c 0,-7.6665 0.36475,-14.2371 1.09375,-18.4356 l -20.99023,0 z m -589.654301,13.2852 0,13.0449 34.435547,0 0,-13.0449 -34.435547,0 z m 34.435547,13.0449 0,21.9121 48.000004,0 0,-21.9121 -48.000004,0 z m -34.435547,0 -21.914062,0 0,21.9121 21.914062,0 0,-21.9121 z m 398.542971,-10.2676 -16.24609,2.9199 -2.91992,22.6368 -14.42188,0 0,13.1425 14.42188,0 0,54.2149 c 0,16.7955 4.74632,23.5469 16.61132,23.5469 8.763,0 16.79513,-3.467 29.39063,-12.959 l -6.75391,-11.5 c -7.302,6.0255 -11.86584,8.7637 -15.15234,8.7637 -4.0155,0 -5.29297,-2.9221 -5.29297,-12.4141 l 0,-49.6524 13.68945,0 c 3.468,0 7.66816,0.1824 10.22266,0.5469 l 0,-14.2383 c -2.5545,0.366 -5.1108,0.5489 -10.4043,0.5489 l -13.50781,0 0.36328,-25.5567 z m -235.35156,23.3164 c -12.597,0 -26.64903,4.1979 -40.70703,12.0489 l 6.20703,12.7773 c 9.492,-6.024 22.08598,-10.0391 31.39648,-10.0391 7.485,0 10.22266,3.2841 10.22266,12.2286 l 0,6.3906 c -33.4065,2.373 -52.39062,15.152 -52.39062,35.414 0,14.0565 9.31043,24.0958 22.27343,24.0958 10.221,0 20.44442,-4.7469 30.48242,-14.4219 l 0,12.7754 19.53321,0 c -0.7305,-3.8325 -1.09571,-10.95 -1.09571,-18.252 l 0,-43.4453 c 0,-13.143 -0.73048,-16.7937 -3.83398,-20.9922 -4.2,-5.4765 -12.22989,-8.5801 -22.08789,-8.5801 z m 78.34375,0.049 c -24.6435,0 -38.88086,16.9769 -38.88086,46.0019 0,15.15 3.28445,27.7462 9.12695,34.8653 6.024,7.3005 15.51644,12.0468 24.46094,12.0468 12.231,0 23.18377,-4.1955 36.50977,-13.6875 l -7.66797,-11.8672 c -9.492,7.119 -17.34058,10.4043 -24.64258,10.4043 -11.865,0 -18.25586,-11.135 -18.25586,-31.58 0,-20.9925 7.30109,-32.127 20.80859,-32.127 6.0255,0 13.3268,1.642 19.7168,4.5625 l 4.19922,-14.6035 c -6.5715,-2.556 -15.7,-4.0156 -25.375,-4.0156 z m 84.50781,0 c -12.5955,0 -26.65053,4.1993 -40.70703,12.0488 l 6.20703,12.7773 c 9.492,-6.0255 22.08794,-10.041 31.39844,-10.041 7.482,0 10.2207,3.2879 10.2207,12.2324 l 0,6.3887 c -33.4065,2.373 -52.38867,15.1506 -52.38867,35.4141 0,14.055 9.30758,24.0937 22.26758,24.0937 10.224,0 20.44578,-4.7469 30.48828,-14.4218 l 0,12.7792 19.53125,0 c -0.7305,-3.834 -1.0957,-10.9519 -1.0957,-18.2539 l 0,-43.4453 c 0,-13.143 -0.73049,-16.7941 -3.83399,-20.9941 -4.197,-5.475 -12.22989,-8.5781 -22.08789,-8.5781 z m 140.40235,0 c -23.001,0 -37.78711,18.2529 -37.78711,46.7304 0,29.3895 12.59668,46.1836 34.86718,46.1836 12.0465,0 25.73897,-5.6577 37.60547,-15.6972 l -8.03515,-10.9532 c -8.7615,6.9375 -18.6188,11.1368 -26.4668,11.1368 -11.6835,0 -18.4375,-10.0418 -18.4375,-27.3848 l 0.54883,0 0.73047,-0.1817 3.64843,0 c 11.136,-0.3645 9.49158,-0.3632 20.08008,-0.3632 8.58,0 19.16867,0.1804 27.20117,0.5449 0.18,-2.7375 0.17969,-4.3782 0.17969,-6.3867 0,-27.381 -12.77626,-43.6289 -34.13476,-43.6289 z m 83.24218,0 c -24.642,0 -38.88086,16.9769 -38.88086,46.0019 0,15.15 3.28446,27.7462 9.12696,34.8653 6.0225,7.3005 15.51643,12.0468 24.46093,12.0468 12.2295,0 23.18332,-4.1955 36.50782,-13.6875 l -7.66797,-11.8672 c -9.492,7.119 -17.33908,10.4043 -24.64258,10.4043 -11.865,0 -18.25391,-11.135 -18.25391,-31.58 0,-20.9925 7.30455,-32.127 20.81055,-32.127 6.0255,0 13.32484,1.642 19.71484,4.5625 l 4.19922,-14.6035 c -6.573,-2.556 -15.7,-4.0156 -25.375,-4.0156 z m -83.60742,13.6914 c 9.492,0 14.60408,7.6682 15.51758,23.3672 -3.834,-0.366 -6.39144,-0.3672 -15.33594,-0.3672 -9.492,0 -8.57681,0 -18.07031,0.3672 1.0965,-14.787 7.66767,-23.3672 17.88867,-23.3672 z m -514.0820343,29.5585 0,48.0019 13.044922,0 0,-48.0019 -13.044922,0 z m 26.0878913,0 0,48.0019 21.914062,0 0,-48.0019 -21.914062,0 z m 56.349609,0 0,48.0019 48.000004,0 0,-48.0019 -48.000004,0 z m 135.875004,2.3867 0,18.4375 c -8.7615,8.5785 -17.88808,13.6894 -24.64258,13.6894 -5.8425,0 -9.12695,-3.832 -9.12695,-10.7695 0,-12.2295 12.04653,-19.7149 33.76953,-21.3574 z m 162.85156,0 0,18.4375 c -8.763,8.5785 -17.88958,13.6894 -24.64258,13.6894 -5.8425,0 -9.12695,-3.832 -9.12695,-10.7695 0,-12.2295 12.04503,-19.7149 33.76953,-21.3574 z m -123.63086,116.5469 c -6.1425,0 -10.33398,3.7043 -10.33398,9.164 0,3.8028 1.95011,6.0949 7.84961,9.2637 4.8255,2.5851 6.18945,4.0469 6.18945,6.5332 0,3.0714 -2.63253,5.0684 -6.58203,5.0684 -2.388,0 -4.19022,-0.4366 -6.82422,-1.7051 l -1.07226,4.291 c 2.925,0.975 5.65543,1.4609 8.33593,1.4609 6.972,0 11.50586,-3.9961 11.50586,-10.0898 0,-4.0478 -2.04715,-6.583 -7.84765,-9.7031 -5.022,-2.7299 -6.19336,-3.8515 -6.19336,-5.9473 0,-2.6315 2.29309,-4.4356 5.55859,-4.4356 1.6575,0 3.02117,0.3415 5.26367,1.3165 l 1.02344,-4.1446 c -2.3385,-0.73 -4.53305,-1.0722 -6.87305,-1.0722 z m 29.49414,0 c -9.6525,0 -15.01367,6.1905 -15.01367,17.3554 0,10.0425 5.06816,16.7207 12.72266,16.7207 4.242,0 8.19058,-1.6072 13.01758,-5.3613 l -2.29102,-3.2676 c -2.9745,2.6337 -6.77812,4.3399 -9.70312,4.3399 -4.9245,0 -8.19141,-5.2181 -8.19141,-13.1153 0,-8.0437 3.41367,-12.7715 9.26367,-12.7715 2.634,0 5.26644,0.5841 7.46094,1.6563 l 1.07226,-4.2891 c -3.219,-0.9264 -5.31389,-1.2675 -8.33789,-1.2675 z m -156.97461,0.8769 c 0.1951,1.3653 0.29297,2.9252 0.29297,4.9238 l 0,22.7168 c 0,2.0492 -0.0978,3.5604 -0.29297,4.877 l 9.55665,0 c 5.02094,0 8.48332,-0.9268 11.01757,-2.9746 3.3645,-2.7797 5.50977,-7.9953 5.50977,-13.6016 0,-4.8256 -1.26758,-8.9695 -3.70508,-11.8945 -2.6325,-3.1214 -5.31328,-4.0469 -11.89453,-4.0469 l -10.48438,0 z m 33.83204,0 c 0.1965,1.316 0.29296,2.8766 0.29296,4.9238 l 0,22.7168 c 0,2.0004 -0.0965,3.5604 -0.29296,4.877 l 18.52734,0 0,-4.2891 c -0.78,0.194 -2.04805,0.2442 -3.99805,0.2442 l -8.82422,0 0,-11.0684 7.45899,0 c 1.512,0 2.92553,0.098 3.70703,0.1953 l 0,-4.2402 c -0.927,0.096 -2.38844,0.1445 -3.46094,0.1445 l -7.70508,0 0,-9.6035 8.04493,0 c 1.56,0 3.31487,0.097 4.04687,0.1953 l 0,-4.0957 -17.79687,0 z m 25.49804,0 c 0.195,1.316 0.29297,2.8766 0.29297,4.9238 l 0,15.6485 c 0,5.0713 0.68102,7.4114 2.72852,9.5078 1.998,1.9986 5.21831,3.1191 9.07031,3.1191 4.0455,0 7.26284,-1.1677 9.65234,-3.5566 2.388,-2.3888 3.2168,-4.9733 3.2168,-10.1406 l 0,-14.4805 c 0,-1.95 0.098,-3.7541 0.29297,-5.0215 l -5.70508,0 c 0.195,1.0236 0.29297,2.9252 0.29297,4.9238 l 0,14.4805 c 0,3.705 -0.43825,5.5084 -1.65625,7.166 -1.269,1.7537 -3.36561,2.7305 -5.84961,2.7305 -1.953,0 -3.90361,-0.8782 -4.97461,-2.1445 -1.1715,-1.4139 -1.6582,-3.4154 -1.6582,-6.9239 l 0,-15.3086 c 0,-1.9986 0.0995,-3.9002 0.29297,-4.9238 l -5.9961,0 z m 29.88281,0 0,4.0469 c 0.8295,-0.098 2.09719,-0.1465 4.24219,-0.1465 l 4.92383,0 0,23.7402 c 0,2.0978 -0.098,3.803 -0.29297,4.877 l 5.99805,0 c -0.1965,-1.1226 -0.29492,-2.8278 -0.29492,-4.877 l 0,-23.7402 4.87695,0 c 1.6575,0 2.82702,0.049 4.29102,0.1465 l 0,-4.0469 -23.74415,0 z m 84.09571,0 c 0.195,1.316 0.29297,2.8766 0.29297,4.9238 l 0,22.7168 c 0,2.0004 -0.098,3.5604 -0.29297,4.877 l 5.99609,0 c -0.195,-1.0242 -0.29297,-2.8766 -0.29297,-4.877 l 0,-10.1875 c 2.292,-0.098 3.85219,-0.1445 6.67969,-0.1445 0,0 1.07249,-5e-4 2.14648,0.047 l 2.14258,0 c 1.317,0.049 1.70844,0.048 2.58594,0.098 l 0,10.1875 c 0,2.0978 -0.0984,3.8528 -0.29492,4.877 l 5.99805,0 c -0.195,-1.074 -0.29102,-2.8278 -0.29102,-4.877 l 0,-22.7168 c 0,-2.0958 0.096,-3.8516 0.29102,-4.9238 l -5.99805,0 c 0.1965,1.0236 0.29492,2.7787 0.29492,4.9238 l 0,8.4825 c -1.608,-0.047 -4.92433,-0.096 -6.92383,-0.096 l -2.04883,0 -1.02343,0.049 -1.07227,0 c -1.365,0 -1.60733,-5e-4 -2.48633,0.047 l 0,-8.4825 c 0,-1.9986 0.098,-3.9002 0.29297,-4.9238 l -5.99609,0 z m 34.71094,0 c 0.195,1.316 0.29101,2.8766 0.29101,4.9238 l 0,22.7168 c 0,2.0004 -0.096,3.5604 -0.29101,4.877 l 18.52343,0 0,-4.2891 c -0.78,0.194 -2.04459,0.2442 -3.99609,0.2442 l -8.82422,0 0,-11.0684 7.45899,0 c 1.51049,0 2.92553,0.098 3.70703,0.1953 l 0,-4.2402 c -0.9285,0.096 -2.39189,0.1445 -3.46289,0.1445 l -7.70313,0 0,-9.6035 8.04297,0 c 1.5615,0 3.31637,0.097 4.04687,0.1953 l 0,-4.0957 -17.79296,0 z m 48.35937,0 c -0.438,1.8035 -0.878,3.1688 -2,6.0938 l -7.94726,20.4765 c -1.1685,2.9736 -1.75374,4.3384 -2.67774,5.9473 l 6.0918,0 c 0.3405,-1.4625 0.7332,-2.9245 1.2207,-4.2422 l 1.65625,-4.6309 0.58399,0 c 4.09649,-0.1939 3.60829,-0.1953 5.65429,-0.1953 1.6095,0 1.95164,0 4.68164,0.1465 1.1715,0.049 0.77971,0.049 1.22071,0.049 l 0.14257,0 1.41602,4.1934 c 0.0975,0.2437 0.14397,0.4863 0.73047,2.4375 l 0.14844,0.4863 c 0.144,0.4875 0.24084,0.9754 0.33984,1.7559 l 6.63086,0 c -1.2675,-2.4375 -1.75495,-3.5584 -2.87695,-6.5332 l -9.75,-25.9844 -5.26563,0 z m 23.10742,0 c 0.195,1.316 0.29297,2.8766 0.29297,4.9238 l 0,22.7168 c 0,2.0004 -0.098,3.5604 -0.29297,4.877 l 5.9961,0 c -0.195,-1.0242 -0.29102,-2.8766 -0.29102,-4.877 l 0,-10.4297 9.89453,11.6993 c 0.1965,0.2427 0.53556,0.6332 0.97656,1.1699 0.3405,0.4383 0.63096,0.8285 0.87696,1.0723 0.534,0.6825 0.68361,0.9263 0.97461,1.3652 l 7.31445,0 c -0.5865,-0.4875 -1.12342,-1.0244 -3.60742,-3.8516 l -12.24024,-13.5039 10.63086,-11.3105 0.38672,-0.4395 0.39258,-0.3887 c 0.537,-0.5373 0.2903,-0.2451 0.7793,-0.7812 1.023,-1.0722 0.53754,-0.5838 1.56054,-1.6074 l 0.63477,-0.6348 -6.77734,0 c -0.489,0.7313 -1.41435,1.8536 -2.33985,2.9258 l -9.45703,10.7734 0,-8.7754 c 0,-1.9986 0.096,-3.9002 0.29102,-4.9238 l -5.9961,0 z m 38.5625,0 c -0.438,1.8035 -0.87754,3.1688 -1.99804,6.0938 l -7.94727,20.4765 c -1.17,2.9736 -1.75614,4.3384 -2.68164,5.9473 l 6.09375,0 c 0.342,-1.4625 0.73275,-2.9245 1.21875,-4.2422 l 1.65625,-4.6309 0.58789,0 c 4.095,-0.1939 3.6068,-0.1953 5.6543,-0.1953 1.608,0 1.94968,0 4.67968,0.1465 1.17,0.049 0.77971,0.049 1.22071,0.049 l 0.14453,0 1.41406,4.1934 c 0.0975,0.2437 0.14592,0.4863 0.73242,2.4375 l 0.14649,0.4863 c 0.1455,0.4875 0.24234,0.9754 0.33984,1.7559 l 6.63086,0 c -1.269,-2.4375 -1.75541,-3.5584 -2.87891,-6.5332 l -9.75,-25.9844 -5.26367,0 z m 23.10547,0 c 0.195,1.3653 0.29297,2.9252 0.29297,4.9238 l 0,22.7168 c 0,2.0492 -0.098,3.5604 -0.29297,4.877 l 9.55469,0 c 5.022,0 8.48303,-0.9268 11.01953,-2.9746 3.363,-2.7797 5.50977,-7.9953 5.50977,-13.6016 0,-4.8256 -1.26954,-8.9695 -3.70704,-11.8945 -2.631,-3.1214 -5.31357,-4.0469 -11.89257,-4.0469 l -10.48438,0 z m 33.83203,0 c 0.195,1.316 0.29492,2.8766 0.29492,4.9238 l 0,22.7168 c 0,2.0004 -0.0999,3.5604 -0.29492,4.877 l 18.52735,0 0,-4.2891 c -0.78,0.194 -2.04805,0.2442 -3.99805,0.2442 l -8.82422,0 0,-11.0684 7.45898,0 c 1.51051,0 2.92313,0.098 3.70313,0.1953 l 0,-4.2402 c -0.9255,0.096 -2.38798,0.1445 -3.45898,0.1445 l -7.70313,0 0,-9.6035 8.04297,0 c 1.56,0 3.31683,0.097 4.04883,0.1953 l 0,-4.0957 -17.79688,0 z m 26.8125,0 c 0.0975,0.5847 0.0977,0.9746 0.0977,1.707 0,0.6341 -0.0482,2.047 -0.0977,3.1211 l -1.21679,22.0332 c -0.0495,0.879 -0.1966,2.4881 -0.2461,3.3653 -0.099,1.0236 -0.14612,1.5105 -0.39062,2.291 l 5.26562,0 c -0.1455,-1.0242 -0.14453,-1.4618 -0.14453,-3.3145 0,-0.3903 -6.7e-4,-1.0728 0.0488,-1.5117 l 0.82812,-21.4023 7.84766,26.2285 4.58398,0 7.75196,-26.2774 0.82812,21.2559 0,1.3652 c 0.0495,0.8286 0.0488,1.852 0.0488,2.0957 0,0.7799 -1.6e-4,0.9753 -0.0977,1.5606 l 5.75196,0 c -0.342,-1.4625 -0.29149,-1.1688 -0.58399,-5.459 l -1.16992,-21.8418 c -0.096,-1.5597 -0.14844,-2.731 -0.14844,-3.6562 0,-0.6345 6.1e-4,-0.9759 0.0996,-1.5606 l -6.77734,0 -7.75,26.5215 -7.80274,-26.5215 -6.72656,0 z m 39.14649,0 c 0.195,1.316 0.29297,2.8766 0.29297,4.9238 l 0,22.7168 c 0,2.0004 -0.098,3.5604 -0.29297,4.877 l 5.99609,0 c -0.195,-1.0242 -0.29297,-2.8766 -0.29297,-4.877 l 0,-22.7168 c 0,-1.9986 0.098,-3.9002 0.29297,-4.9238 l -5.99609,0 z m 15.74609,0 c 0.195,1.316 0.29102,2.8766 0.29102,4.9238 l 0,22.7168 c 0,2.0004 -0.096,3.5604 -0.29102,4.877 l 18.52539,0 0,-4.2891 c -0.78,0.194 -2.04805,0.2442 -3.99805,0.2442 l -8.82421,0 0,-11.0684 7.45898,0 c 1.5105,0 2.92658,0.098 3.70508,0.1953 l 0,-4.2402 c -0.9255,0.096 -2.38844,0.1445 -3.46094,0.1445 l -7.70312,0 0,-9.6035 8.04296,0 c 1.5615,0 3.31638,0.097 4.04688,0.1953 l 0,-4.0957 -17.79297,0 z m 40.2168,0 c 0.1965,1.3653 0.29492,2.9252 0.29492,4.9238 l 0,22.7168 c 0,2.0492 -0.0984,3.5604 -0.29492,4.877 l 9.55664,0 c 5.0205,0 8.48258,-0.9268 11.01758,-2.9746 3.363,-2.7797 5.50976,-7.9953 5.50976,-13.6016 0,-4.8256 -1.26758,-8.9695 -3.70508,-11.8945 -2.6325,-3.1214 -5.31403,-4.0469 -11.89453,-4.0469 l -10.48437,0 z m 33.83203,0 c 0.195,1.316 0.29297,2.8766 0.29297,4.9238 l 0,22.7168 c 0,2.0004 -0.098,3.5604 -0.29297,4.877 l 18.52539,0 0,-4.2891 c -0.78,0.194 -2.04805,0.2442 -3.99805,0.2442 l -8.82226,0 0,-11.0684 7.45703,0 c 1.512,0 2.92508,0.098 3.70508,0.1953 l 0,-4.2402 c -0.9255,0.096 -2.38649,0.1445 -3.45899,0.1445 l -7.70312,0 0,-9.6035 8.04297,0 c 1.56,0 3.31487,0.097 4.04687,0.1953 l 0,-4.0957 -17.79492,0 z m 26.08203,0 c 0.1935,1.316 0.29297,2.8278 0.29297,4.875 l 0,22.7168 c 0,2.049 -0.0995,3.6092 -0.29297,4.9258 l 5.94727,0 c -0.195,-1.2188 -0.29102,-2.9254 -0.29102,-4.9258 l 0,-9.9922 2.14453,0 c 3.6555,0 4.53247,0.8276 6.04297,5.8496 l 1.5625,5.2657 c 0.1455,0.3883 0.43864,1.4621 0.68164,2.3398 0.1455,0.6334 0.19269,0.8776 0.24219,1.4629 l 5.99804,0 c -0.438,-0.975 -0.48809,-1.123 -1.12109,-2.9746 -0.195,-0.6821 10e-4,-0.097 -0.58398,-1.8516 l -1.85352,-5.8984 c -1.317,-4.0962 -2.63359,-5.5586 -5.55859,-6.1914 4.3875,-1.22 6.63086,-3.8032 6.63086,-7.7032 0,-5.2177 -3.70642,-7.8984 -10.91992,-7.8984 l -8.92188,0 z m 5.65625,3.7539 2.04687,0 c 4.97401,0 6.87305,1.2677 6.87305,4.6309 0,3.5104 -2.19556,5.3633 -6.28906,5.3633 l -2.63086,0 0,-9.9942 z m -556.77344,0.098 3.50977,0 c 4.04655,0 6.43633,0.6827 8.14258,2.291 1.99875,1.9014 3.16796,5.6567 3.16796,10.0918 0,3.6069 -0.82851,6.8739 -2.29101,8.9199 -1.75485,2.4375 -4.09375,3.3184 -8.96875,3.3184 l -3.56055,0 0,-24.6211 z m 341.1543,0 3.50977,0 c 4.04699,0 6.43557,0.6827 8.14257,2.291 1.998,1.9014 3.16797,5.6567 3.16797,10.0918 0,3.6069 -0.82851,6.8739 -2.29101,8.9199 -1.7565,2.4375 -4.09766,3.3184 -8.97266,3.3184 l -3.55664,0 0,-24.6211 z m 155.75391,0 3.50976,0 c 4.047,0 6.43558,0.6827 8.14258,2.291 1.998,1.9014 3.16797,5.6567 3.16797,10.0918 0,3.6069 -0.82852,6.8739 -2.29102,8.9199 -1.755,2.4375 -4.09615,3.3184 -8.97265,3.3184 l -3.55664,0 0,-24.6211 z m -243.60157,1.707 4.72852,14.041 c -0.684,-0.049 -0.97531,-0.049 -2.63281,-0.098 -1.1715,-0.049 -2.09669,-0.049 -2.24219,-0.049 -0.294,0 -1.4623,0.049 -2.7793,0.049 -1.2675,0.049 -1.268,0.048 -2,0.098 l 4.92578,-14.041 z m 61.66993,0 4.72851,14.041 c -0.6825,-0.049 -0.97486,-0.049 -2.63086,-0.098 -1.1715,-0.049 -2.09864,-0.049 -2.24414,-0.049 -0.294,0 -1.4623,0.049 -2.7793,0.049 -1.2675,0.049 -1.268,0.048 -2,0.098 l 4.92579,-14.041 z m -255.09961,52.9512 c -9.6525,0 -15.01563,6.1924 -15.01563,17.3574 0,10.043 5.07011,16.7207 12.72461,16.7207 4.242,0 8.19208,-1.6098 13.01758,-5.3633 l -2.29297,-3.2676 c -2.9745,2.6338 -6.77422,4.3399 -9.69922,4.3399 -4.9245,0 -8.19141,-5.2155 -8.19141,-13.1133 0,-8.0437 3.41218,-12.7734 9.26368,-12.7734 2.631,0 5.26448,0.5854 7.45898,1.6582 l 1.07227,-4.291 c -3.2175,-0.9264 -5.31389,-1.2676 -8.33789,-1.2676 z m 194.70898,0 c -6.1425,0 -10.33594,3.7057 -10.33594,9.166 0,3.8022 1.95161,6.093 7.84961,9.2617 4.827,2.5834 6.19141,4.0473 6.19141,6.5352 0,3.0709 -2.63208,5.0683 -6.58008,5.0683 -2.391,0 -4.19322,-0.4379 -6.82422,-1.707 l -1.07617,4.291 c 2.928,0.975 5.65889,1.4629 8.33789,1.4629 6.972,0 11.50586,-4 11.50586,-10.0938 0,-4.0458 -2.04716,-6.5796 -7.84766,-9.6992 -5.0235,-2.7304 -6.1914,-3.8528 -6.1914,-5.9492 0,-2.6326 2.28918,-4.4355 5.55468,-4.4355 1.6575,0 3.02358,0.3402 5.26758,1.3164 l 1.02344,-4.1446 c -2.34,-0.7312 -4.535,-1.0722 -6.875,-1.0722 z m 25.00977,0 c -6.1425,0 -10.33399,3.7057 -10.33399,9.166 0,3.8022 1.94666,6.093 7.84766,9.2617 4.827,2.5834 6.1914,4.0473 6.1914,6.5352 0,3.0709 -2.63253,5.0683 -6.58203,5.0683 -2.3895,0 -4.19217,-0.4379 -6.82617,-1.707 l -1.07227,4.291 c 2.925,0.975 5.6559,1.4629 8.3379,1.4629 6.9705,0 11.5039,-4 11.5039,-10.0938 0,-4.0458 -2.04761,-6.5796 -7.84961,-9.6992 -5.019,-2.7304 -6.18945,-3.8528 -6.18945,-5.9492 0,-2.6326 2.29159,-4.4355 5.55859,-4.4355 1.6575,0 3.02118,0.3402 5.26367,1.3164 l 1.02344,-4.1446 c -2.3415,-0.7312 -4.53154,-1.0722 -6.87304,-1.0722 z m 84.48437,0 c -6.1425,0 -10.33594,3.7057 -10.33594,9.166 0,3.8022 1.94816,6.093 7.84766,9.2617 4.8255,2.5834 6.19141,4.0473 6.19141,6.5352 0,3.0709 -2.63104,5.0683 -6.58204,5.0683 -2.388,0 -4.19171,-0.4379 -6.82421,-1.707 l -1.07032,4.291 c 2.925,0.975 5.65349,1.4629 8.33399,1.4629 6.9735,0 11.50586,-4 11.50586,-10.0938 0,-4.0458 -2.04866,-6.5796 -7.84766,-9.6992 -5.0235,-2.7304 -6.19141,-3.8528 -6.19141,-5.9492 0,-2.6326 2.29115,-4.4355 5.55665,-4.4355 1.65749,0 3.02162,0.3402 5.26562,1.3164 l 1.02344,-4.1446 c -2.3385,-0.7312 -4.53455,-1.0722 -6.87305,-1.0722 z m 29.24805,0 c -9.651,0 -15.01563,6.1924 -15.01563,17.3574 0,10.043 5.07056,16.7207 12.72657,16.7207 4.239,0 8.18907,-1.6098 13.01757,-5.3633 l -2.29297,-3.2676 c -2.9745,2.6338 -6.77812,4.3399 -9.70312,4.3399 -4.9245,0 -8.19141,-5.2155 -8.19141,-13.1133 0,-8.0437 3.41413,-12.7734 9.26563,-12.7734 2.6325,0 5.26298,0.5854 7.45898,1.6582 l 1.07227,-4.291 c -3.2175,-0.9264 -5.31539,-1.2676 -8.33789,-1.2676 z m -401.01758,0.8789 0,4.0449 c 0.82845,-0.096 2.09719,-0.1445 4.24219,-0.1445 l 4.92383,0 0,23.7402 c 0,2.0977 -0.0978,3.8035 -0.29297,4.877 l 5.99609,0 c -0.1952,-1.1227 -0.29297,-2.828 -0.29297,-4.877 l 0,-23.7402 4.87695,0 c 1.65585,0 2.82657,0.048 4.28907,0.1445 l 0,-4.0449 -23.74219,0 z m 28.66602,0 c 0.19349,1.3159 0.29101,2.8753 0.29101,4.9219 l 0,22.7187 c 0,1.9998 -0.0975,3.5609 -0.29101,4.877 l 18.52539,0 0,-4.2911 c -0.7815,0.1934 -2.04805,0.2422 -3.99805,0.2422 l -8.82422,0 0,-11.0664 7.45898,0 c 1.5105,0 2.92508,0.098 3.70508,0.1953 l 0,-4.2402 c -0.9255,0.098 -2.38843,0.1445 -3.46094,0.1445 l -7.70312,0 0,-9.6015 8.04297,0 c 1.56,0 3.31487,0.095 4.04687,0.1914 l 0,-4.0918 -17.79296,0 z m 54.99218,0 c 0.195,1.3159 0.29297,2.8753 0.29297,4.9219 l 0,22.7187 c 0,1.9998 -0.098,3.5609 -0.29297,4.877 l 5.9961,0 c -0.195,-1.0248 -0.29102,-2.8772 -0.29102,-4.877 l 0,-10.1894 c 2.2905,-0.097 3.85024,-0.1446 6.67774,-0.1446 0,0 1.07203,-5e-4 2.14453,0.047 l 2.14453,0 c 1.3155,0.049 1.70844,0.049 2.58594,0.098 l 0,10.1894 c -10e-6,2.0977 -0.0999,3.8522 -0.29493,4.877 l 5.99805,0 c -0.195,-1.0735 -0.29297,-2.828 -0.29297,-4.877 l 0,-22.7187 c 0,-2.0952 0.098,-3.8508 0.29297,-4.9219 l -5.99805,0 c 0.195,1.0224 0.29493,2.7779 0.29493,4.9219 l 0,8.4843 c -1.608,-0.049 -4.92629,-0.098 -6.92579,-0.098 l -2.04687,0 -1.02344,0.049 -1.07226,0 c -1.365,0 -1.60838,-4e-4 -2.48438,0.049 l 0,-8.4843 c 0,-1.9974 0.096,-3.8995 0.29102,-4.9219 l -5.9961,0 z m 34.26953,0 c 0.1965,1.3159 0.29297,2.8753 0.29297,4.9219 l 0,22.7187 c 0,1.9998 -0.0965,3.5609 -0.29297,4.877 l 5.16797,0 c -0.243,-1.5112 -0.33984,-3.1707 -0.33984,-4.877 l 0,-21.0117 13.50195,25.8887 5.85156,0 0,-27.5957 c 0,-2.0952 0.096,-3.8508 0.29102,-4.9219 l -5.16602,0 c 0.2445,1.5111 0.3418,3.2168 0.3418,4.9219 l 0,20.5253 -13.21289,-25.4472 -6.43555,0 z m 33.83399,0 c 0.1935,1.3159 0.29101,2.8753 0.29101,4.9219 l 0,22.7187 c 0,1.9998 -0.0975,3.5609 -0.29101,4.877 l 5.99609,0 c -0.195,-1.0248 -0.29297,-2.8772 -0.29297,-4.877 l 0,-22.7187 c 0,-1.9974 0.098,-3.8995 0.29297,-4.9219 l -5.99609,0 z m 15.50195,0 c 0.195,1.3159 0.29102,2.8753 0.29102,4.9219 l 0,22.7187 c 0,1.9998 -0.096,3.5609 -0.29102,4.877 l 5.99609,0 c -0.1965,-1.0248 -0.29296,-2.8772 -0.29296,-4.877 l 0,-10.4316 9.89648,11.6992 c 0.195,0.2426 0.53661,0.6349 0.97461,1.1699 0.342,0.44 0.63591,0.8305 0.87891,1.0742 0.537,0.6821 0.68361,0.9264 0.97461,1.3653 l 7.3125,0 c -0.585,-0.4875 -1.12043,-1.025 -3.60743,-3.8516 l -12.23632,-13.5059 10.6289,-11.3105 0.38867,-0.4395 0.39063,-0.3886 c 0.5355,-0.5373 0.2918,-0.2432 0.7793,-0.7793 1.023,-1.0728 0.53604,-0.5858 1.56054,-1.6094 l 0.63282,-0.6328 -6.7754,0 c -0.489,0.7312 -1.41434,1.8498 -2.33984,2.9238 l -9.45898,10.7734 0,-8.7753 c 0,-1.9974 0.0965,-3.8995 0.29296,-4.9219 l -5.99609,0 z m 26.66602,0 c 0.6345,1.4625 1.07268,2.7783 1.80468,5.8984 l 6.4336,26.6192 4.82617,0 6.04688,-25.1563 5.99609,25.1563 4.92383,0 6.28906,-26.6192 c 0.5355,-2.2915 1.21991,-4.5337 1.75391,-5.8984 l -5.75196,0 c -0.0975,1.3647 -0.19512,2.1436 -0.82812,5.4101 l -3.80274,19.4532 -5.94726,-24.8633 -4.73047,0 -5.9961,24.8633 -3.90039,-19.795 c -0.438,-2.1445 -0.63364,-3.7524 -0.68164,-5.0683 l -6.43554,0 z m 44.01953,0 c 0.195,1.3159 0.29297,2.8753 0.29297,4.9219 l 0,22.7187 c 0,1.9998 -0.098,3.5609 -0.29297,4.877 l 5.99804,0 c -0.19499,-1.0248 -0.29296,-2.8772 -0.29296,-4.877 l 0,-22.7187 c 0,-1.9974 0.098,-3.8995 0.29296,-4.9219 l -5.99804,0 z m 65.51953,0 c 0.195,1.3159 0.29297,2.8753 0.29297,4.9219 l 0,22.7187 c 0,1.9998 -0.098,3.5609 -0.29297,4.877 l 18.52539,0 0,-4.2911 c -0.7785,0.1934 -2.04609,0.2422 -3.99609,0.2422 l -8.82422,0 0,-11.0664 7.45898,0 c 1.5105,0 2.92658,0.098 3.70508,0.1953 l 0,-4.2402 c -0.927,0.098 -2.38994,0.1445 -3.46094,0.1445 l -7.70312,0 0,-9.6015 8.04297,0 c 1.5585,0 3.31487,0.095 4.04687,0.1914 l 0,-4.0918 -17.79492,0 z m 25.64258,0 c 0.195,1.3159 0.29297,2.8753 0.29297,4.9219 l 0,22.7187 c 0,1.9998 -0.098,3.5609 -0.29297,4.877 l 5.16797,0 c -0.2445,-1.5112 -0.3418,-3.1707 -0.3418,-4.877 l 0,-21.0117 13.50391,25.8887 5.85156,0 0,-27.5957 c 0,-2.0952 0.0975,-3.8508 0.29101,-4.9219 l -5.16601,0 c 0.2445,1.5111 0.34179,3.2168 0.34179,4.9219 l 0,20.5253 -13.21289,-25.4472 -6.43554,0 z m 87.99804,0 c 0.195,1.3159 0.29102,2.8753 0.29102,4.9219 l 0,22.7187 c 0,1.9998 -0.096,3.5609 -0.29102,4.877 l 5.99415,0 c -0.195,-1.0248 -0.29102,-2.8772 -0.29102,-4.877 l 0,-10.1894 c 2.292,-0.097 3.85069,-0.1446 6.67969,-0.1446 0,0 1.07008,-5e-4 2.14257,0.047 l 2.14649,0 c 1.3155,0.049 1.70603,0.049 2.58203,0.098 l 0,10.1894 c 0,2.0977 -0.0975,3.8522 -0.29102,4.877 l 5.99805,0 c -0.195,-1.0735 -0.29492,-2.828 -0.29492,-4.877 l 0,-22.7187 c 0,-2.0952 0.0999,-3.8508 0.29492,-4.9219 l -5.99805,0 c 0.1935,1.0224 0.29102,2.7779 0.29102,4.9219 l 0,8.4843 c -1.608,-0.049 -4.92042,-0.098 -6.91992,-0.098 l -2.04883,0 -1.02148,0.049 -1.07422,0 c -1.3665,0 -1.60883,-4e-4 -2.48633,0.049 l 0,-8.4843 c 0,-1.9974 0.096,-3.8995 0.29102,-4.9219 l -5.99415,0 z m 41.38868,0 c -0.4395,1.8024 -0.8765,3.1687 -2,6.0937 l -7.94727,20.4766 c -1.17,2.9736 -1.75119,4.3389 -2.67969,5.9473 l 6.0918,0 c 0.3435,-1.4625 0.7347,-2.925 1.2207,-4.2422 l 1.65625,-4.6328 0.58594,0 c 4.095,-0.194 3.6083,-0.1934 5.6543,-0.1934 1.608,0 1.95119,-2e-4 4.67968,0.1445 1.173,0.049 0.78316,0.049 1.22266,0.049 l 0.14649,0 1.41211,4.1933 c 0.0975,0.2449 0.14696,0.4863 0.73046,2.4375 l 0.14649,0.4863 c 0.1455,0.4887 0.24579,0.978 0.34179,1.7579 l 6.63086,0 c -1.269,-2.4387 -1.7569,-3.5598 -2.8789,-6.5352 l -9.74805,-25.9824 -5.26562,0 z m 22.86328,0 c 0.195,1.3159 0.29297,2.8753 0.29297,4.9219 l 0,22.7187 c 0,1.9998 -0.098,3.5609 -0.29297,4.877 l 5.99609,0 c -0.195,-1.0248 -0.29297,-2.9258 -0.29297,-4.877 l 0,-10.2383 6.77735,0 c 1.365,0 2.73045,0.049 3.75195,0.1953 l 0,-4.289 c -0.681,0.1464 -2.04547,0.1933 -3.60547,0.1933 l -6.92383,0 0,-9.6015 7.11914,0 c 1.947,0 3.5075,0.047 4.4375,0.1914 l 0,-4.0918 -17.25976,0 z m 18.71875,0 0,4.0449 c 0.828,-0.096 2.09373,-0.1445 4.24023,-0.1445 l 4.92578,0 0,23.7402 c 0,2.0977 -0.0999,3.8035 -0.29492,4.877 l 5.99609,0 c -0.1935,-1.1227 -0.29296,-2.828 -0.29296,-4.877 l 0,-23.7402 4.875,0 c 1.659,0 2.82851,0.048 4.29101,0.1445 l 0,-4.0449 -23.74023,0 z m 28.66406,0 c 0.195,1.3159 0.29492,2.8753 0.29492,4.9219 l 0,22.7187 c 0,1.9998 -0.0999,3.5609 -0.29492,4.877 l 18.52734,0 0,-4.2911 c -0.7815,0.1934 -2.05045,0.2422 -4.00195,0.2422 l -8.82227,0 0,-11.0664 7.45704,0 c 1.512,0 2.92553,0.098 3.70703,0.1953 l 0,-4.2402 c -0.924,0.098 -2.38994,0.1445 -3.46094,0.1445 l -7.70313,0 0,-9.6015 8.04493,0 c 1.56,0 3.31637,0.095 4.04687,0.1914 l 0,-4.0918 -17.79492,0 z m 25.64258,0 c 0.195,1.3159 0.29297,2.8753 0.29297,4.9219 l 0,22.7187 c 0,1.9998 -0.098,3.5609 -0.29297,4.877 l 5.16797,0 c -0.246,-1.5112 -0.3418,-3.1707 -0.3418,-4.877 l 0,-21.0117 13.50391,25.8887 5.84961,0 0,-27.5957 c 0,-2.0952 0.098,-3.8508 0.29296,-4.9219 l -5.16601,0 c 0.2415,1.5111 0.33984,3.2168 0.33984,4.9219 l 0,20.5253 -13.21094,-25.4472 -6.43554,0 z m -93.25781,5.5566 4.73046,14.041 c -0.681,-0.049 -0.97381,-0.049 -2.63281,-0.098 -1.167,-0.05 -2.09864,-0.051 -2.24414,-0.051 -0.291,0 -1.46184,0.051 -2.77734,0.051 -1.2675,0.049 -1.2671,0.049 -1.9961,0.098 l 4.91993,-14.041 z"
       style="fill:#003366;fill-opacity:1;fill-rule:nonzero;stroke:none" />
    <path
       d="m 4.1568607,562.58273 13.0435653,0 0,56.3475 -13.0435653,0 0,-56.3475"
       style="fill:#ea7b16;fill-opacity:1;fill-rule:nonzero;stroke:none"
       id="path32" />
    <path
       d="m 39.113926,584.49473 34.4355,0 0,34.4355 -34.4355,0 0,-34.4355"
       style="fill:#f3e400;fill-opacity:1;fill-rule:nonzero;stroke:none"
       id="path34" />
    <path
       d="m 39.113926,536.49473 82.436104,0 0,13.0425 -82.436104,0 0,-13.0425"
       style="fill:#9dc5e2;fill-opacity:1;fill-rule:nonzero;stroke:none"
       id="path36" />
    <path
       d="m 17.200426,536.49473 21.9135,0 0,13.0425 -21.9135,0 0,-13.0425"
       style="fill:#9dc5e2;fill-opacity:1;fill-rule:nonzero;stroke:none"
       id="path40" />
  </g>
</svg>
