<?xml version="1.0" standalone="no"?>
<!DOCTYPE svg PUBLIC "-//W3C//DTD SVG 20010904//EN"
 "http://www.w3.org/TR/2001/REC-SVG-20010904/DTD/svg10.dtd">
<svg version="1.0" xmlns="http://www.w3.org/2000/svg"
 width="225.000000pt" height="225.000000pt" viewBox="0 0 225.000000 225.000000"
 preserveAspectRatio="xMidYMid meet">
<metadata>
Created by potrace 1.16, written by Peter Selinger 2001-2019
</metadata>
<g transform="translate(0.000000,225.000000) scale(0.100000,-0.100000)"
fill="#000000" stroke="none">
<path d="M348 2234 c-31 -16 -58 -61 -58 -96 0 -13 9 -37 20 -55 43 -71 149
-63 185 14 45 93 -56 187 -147 137z"/>
<path d="M1084 2241 c-60 -26 -83 -114 -44 -164 63 -80 190 -37 190 65 0 71
-82 126 -146 99z"/>
<path d="M1793 2230 c-71 -43 -63 -149 14 -185 30 -15 42 -15 75 -6 42 13 78
58 78 99 0 56 -56 112 -112 112 -13 0 -37 -9 -55 -20z"/>
<path d="M728 1967 c-50 -47 -49 -118 3 -161 79 -67 201 13 169 110 -24 72
-119 100 -172 51z"/>
<path d="M1387 1970 c-14 -11 -31 -36 -37 -54 -32 -97 90 -177 169 -110 53 45
51 132 -5 169 -33 22 -96 19 -127 -5z"/>
<path d="M58 1944 c-31 -16 -58 -61 -58 -96 0 -13 9 -37 20 -55 43 -71 149
-63 185 14 45 93 -56 187 -147 137z"/>
<path d="M360 1717 l0 -243 60 -59 60 -59 25 24 25 24 -50 51 -50 51 0 227 0
227 -35 0 -35 0 0 -243z"/>
<path d="M1090 1760 l0 -200 35 0 35 0 0 200 0 200 -35 0 -35 0 0 -200z"/>
<path d="M1820 1733 l0 -227 -50 -51 -50 -51 25 -24 25 -24 60 59 60 59 0 243
0 243 -35 0 -35 0 0 -227z"/>
<path d="M2083 1940 c-71 -43 -63 -149 14 -185 30 -15 42 -15 75 -6 42 13 78
58 78 99 0 56 -56 112 -112 112 -13 0 -37 -9 -55 -20z"/>
<path d="M70 1462 l0 -207 93 -93 c51 -50 97 -92 103 -92 6 0 19 9 29 20 18
20 17 22 -68 109 l-87 88 0 192 0 191 -35 0 -35 0 0 -208z"/>
<path d="M2110 1479 l0 -190 -50 -53 -50 -53 25 -23 25 -24 60 59 60 59 0 208
0 208 -35 0 -35 0 0 -191z"/>
<path d="M1055 1485 c-5 -2 -26 -6 -45 -9 -19 -4 -60 -20 -90 -38 -50 -29 -62
-31 -155 -32 -83 -1 -107 -5 -142 -24 -86 -45 -151 -123 -174 -205 -6 -23 -23
-44 -50 -63 -23 -16 -54 -51 -71 -81 -21 -38 -38 -55 -56 -59 -106 -22 -193
-89 -239 -182 -24 -48 -28 -69 -28 -137 1 -132 60 -231 178 -292 49 -26 61
-28 205 -31 l152 -4 0 35 0 36 -142 3 c-157 3 -188 12 -247 70 -71 69 -94 158
-66 254 33 113 157 196 272 180 50 -7 110 -35 137 -65 24 -26 31 -26 63 -1
l25 19 -34 32 c-35 33 -122 79 -150 79 -28 0 -21 24 19 63 72 72 173 75 247 7
39 -36 42 -37 69 -24 15 8 27 18 27 22 0 14 -74 79 -108 96 -18 10 -55 20 -83
23 -27 3 -49 8 -49 10 0 2 9 20 19 41 75 145 283 178 399 62 39 -38 67 -91 76
-142 6 -35 9 -38 42 -38 l36 0 -7 43 c-11 68 -50 142 -100 191 l-47 45 38 19
c96 48 181 36 285 -40 13 -9 24 -8 54 6 87 42 181 28 247 -35 43 -41 43 -54 0
-64 -66 -14 -141 -109 -142 -177 0 -25 3 -28 35 -28 30 0 35 3 35 23 0 29 33
82 63 102 69 45 170 18 206 -54 45 -87 9 -174 -86 -206 -32 -11 -39 -18 -41
-44 -3 -28 0 -31 23 -31 59 0 140 53 171 113 8 15 18 52 22 83 l7 55 55 -28
c56 -29 103 -83 115 -134 l6 -26 -68 0 c-82 1 -149 -26 -205 -81 -45 -43 -47
-54 -13 -76 25 -16 26 -16 52 14 39 47 98 73 164 73 125 -1 213 -91 214 -219
0 -83 -38 -147 -114 -186 -51 -27 -59 -28 -202 -28 l-149 0 0 -36 0 -36 168 4
c164 3 168 4 221 33 176 98 199 344 44 474 -31 25 -43 43 -43 61 0 44 -29 116
-64 157 -40 46 -116 90 -175 99 -29 5 -47 14 -58 31 -9 13 -38 37 -65 52 -30
17 -60 45 -77 73 -70 110 -215 165 -330 125 -43 -15 -46 -15 -85 8 -54 31
-156 52 -191 40z"/>
<path d="M980 980 c-6 -19 -10 -40 -10 -47 0 -24 -20 -23 -59 2 -23 14 -44 25
-48 25 -5 0 -50 -42 -102 -94 l-93 -94 27 -47 c32 -53 28 -59 -37 -70 l-38 -7
0 -138 0 -138 51 -13 c28 -7 53 -19 56 -26 4 -9 13 -8 38 4 33 16 34 17 19 44
-11 22 -24 30 -54 35 l-40 7 0 83 0 84 44 11 c38 9 45 16 56 49 11 34 11 42
-8 72 l-21 34 55 57 c30 31 58 57 61 57 3 0 21 -9 39 -21 30 -18 37 -19 69 -8
30 11 37 20 47 56 l10 43 83 0 83 0 10 -43 c10 -36 17 -45 47 -56 32 -11 39
-10 71 10 l36 22 66 -66 67 -66 29 25 29 26 -84 84 c-46 46 -87 84 -91 84 -5
0 -26 -11 -49 -25 -39 -25 -59 -26 -59 -2 0 7 -4 28 -10 47 l-10 35 -135 0
-135 0 -10 -35z"/>
<path d="M1055 789 c-90 -22 -175 -103 -205 -193 -20 -62 -9 -175 23 -229 101
-172 338 -196 468 -49 127 145 73 383 -104 457 -47 20 -133 26 -182 14z m183
-95 c64 -38 96 -92 100 -173 3 -54 -1 -74 -20 -111 -47 -91 -149 -137 -248
-111 -174 46 -219 282 -73 385 74 52 162 55 241 10z"/>
<path d="M1053 630 c-124 -75 -73 -263 72 -263 113 0 181 126 120 220 -40 60
-131 81 -192 43z m126 -76 c24 -31 26 -43 10 -78 -23 -50 -105 -51 -128 0 -16
35 -14 47 10 78 15 19 30 26 54 26 24 0 39 -7 54 -26z"/>
<path d="M1485 678 c-11 -6 -21 -12 -23 -13 -2 -2 0 -14 3 -28 5 -19 16 -28
51 -36 l44 -11 0 -84 0 -83 -40 -7 c-34 -5 -43 -12 -58 -42 -16 -35 -16 -37 6
-77 l22 -41 -56 -57 -57 -57 -38 24 -39 24 -39 -20 c-33 -16 -40 -26 -46 -60
l-7 -40 -82 0 -83 0 -9 42 c-7 35 -15 46 -44 60 -34 16 -36 16 -75 -7 l-40
-24 -67 67 -67 66 -26 -24 -26 -24 87 -87 87 -87 46 28 c45 28 61 30 61 7 0
-7 5 -29 11 -49 l10 -38 134 0 134 0 16 55 c11 38 20 53 28 49 7 -4 28 -18 48
-30 l36 -22 96 96 97 97 -25 40 c-27 45 -31 65 -12 65 6 0 29 5 50 11 l37 10
0 139 0 138 -39 7 c-22 3 -47 13 -58 20 -22 17 -23 17 -48 3z"/>
</g>
</svg>
