<?xml version="1.0" standalone="no"?>
<!DOCTYPE svg PUBLIC "-//W3C//DTD SVG 20010904//EN"
 "http://www.w3.org/TR/2001/REC-SVG-20010904/DTD/svg10.dtd">
<svg version="1.0" xmlns="http://www.w3.org/2000/svg"
 width="512.000000pt" height="512.000000pt" viewBox="0 0 512.000000 512.000000"
 preserveAspectRatio="xMidYMid meet">
<metadata>
Created by potrace 1.16, written by Peter Selinger 2001-2019
</metadata>
<g transform="translate(0.000000,512.000000) scale(0.100000,-0.100000)"
fill="#000000" stroke="none">
<path d="M2565 4484 c-411 -69 -759 -313 -968 -679 -25 -44 -56 -86 -69 -94
-15 -9 -72 -17 -163 -22 -103 -6 -163 -15 -228 -34 -287 -83 -508 -280 -630
-561 l-42 -97 -110 -55 c-138 -70 -230 -157 -288 -272 -56 -113 -70 -183 -65
-320 4 -99 9 -126 36 -195 74 -187 232 -325 430 -376 67 -17 112 -19 419 -19
l343 0 0 -103 c0 -90 3 -110 25 -152 l24 -49 -22 -35 c-21 -35 -22 -47 -25
-331 l-3 -295 28 -55 c18 -36 43 -65 71 -85 l44 -30 472 -3 c444 -2 474 -1
495 16 32 25 33 85 3 115 -22 22 -24 22 -473 27 -431 5 -451 6 -465 24 -11 16
-14 70 -14 273 l0 254 25 24 24 25 1051 0 1051 0 24 -25 c21 -20 25 -34 25
-80 0 -47 4 -60 26 -82 21 -21 32 -24 62 -20 58 10 67 26 67 120 0 65 -4 91
-22 124 l-23 43 23 37 c18 32 23 56 26 151 l3 112 242 0 c197 0 258 4 332 19
401 83 713 400 784 797 18 103 8 327 -20 429 -87 318 -338 578 -655 678 -85
27 -222 47 -319 47 -53 0 -61 3 -90 33 -17 19 -56 74 -86 123 -78 125 -253
301 -387 388 -167 109 -349 181 -535 211 -114 18 -343 18 -453 -1z m431 -159
c350 -62 666 -280 843 -584 72 -123 148 -170 272 -171 99 0 231 -23 316 -55
255 -96 454 -325 518 -596 22 -94 20 -268 -5 -365 -61 -239 -230 -444 -455
-550 -153 -72 -177 -76 -472 -81 l-261 -5 -4 109 c-2 88 -7 116 -25 150 l-23
43 23 37 c21 36 22 49 25 318 2 191 0 293 -8 321 -15 54 -61 109 -113 137
l-42 22 -1065 3 c-778 2 -1079 0 -1119 -8 -67 -15 -143 -84 -160 -145 -7 -24
-11 -147 -11 -316 0 -273 0 -276 25 -324 l24 -49 -22 -35 c-18 -30 -22 -54
-26 -149 l-3 -113 -357 3 -356 3 -78 37 c-105 51 -186 128 -234 226 -33 66
-38 85 -41 168 -5 117 20 208 83 293 55 74 104 112 208 160 109 50 152 94 194
198 63 152 141 259 257 350 139 109 320 173 488 173 188 0 253 35 339 182 74
125 111 174 212 276 131 135 330 254 508 306 162 46 383 59 545 31z m569
-1450 l25 -24 0 -254 c0 -241 -1 -254 -20 -275 l-21 -22 -1059 0 c-1047 0
-1060 0 -1080 20 -19 19 -20 33 -20 279 l0 260 26 20 c27 21 30 21 1076 21
l1049 0 24 -25z m0 -760 l25 -24 0 -256 c0 -242 -1 -256 -20 -275 -20 -20 -33
-20 -1080 -20 -1047 0 -1060 0 -1080 20 -19 19 -20 33 -20 275 l0 256 25 24
24 25 1051 0 1051 0 24 -25z"/>
<path d="M1621 2666 c-46 -25 -54 -84 -16 -121 l24 -25 381 0 c367 0 381 1
400 20 31 31 27 93 -6 119 -26 20 -37 21 -393 21 -289 -1 -371 -4 -390 -14z"/>
<path d="M2685 2655 c-33 -32 -34 -83 -2 -113 21 -20 34 -22 130 -22 94 0 109
2 127 20 31 31 27 93 -6 119 -23 18 -41 21 -126 21 -92 0 -101 -2 -123 -25z"/>
<path d="M3133 2670 c-45 -18 -56 -80 -22 -124 20 -25 24 -26 129 -26 122 0
145 10 156 67 5 27 1 37 -24 63 -30 29 -33 30 -124 29 -51 0 -103 -4 -115 -9z"/>
<path d="M1624 1908 c-23 -11 -44 -48 -44 -77 0 -10 9 -30 21 -45 l20 -26 385
0 c371 0 385 1 404 20 31 31 27 93 -6 119 -26 20 -37 21 -393 20 -230 0 -374
-4 -387 -11z"/>
<path d="M2703 1910 c-45 -19 -58 -95 -23 -130 18 -18 33 -20 130 -20 129 0
150 11 150 78 0 63 -24 77 -139 79 -53 2 -106 -2 -118 -7z"/>
<path d="M3133 1910 c-45 -18 -56 -80 -22 -124 20 -25 24 -26 129 -26 122 0
145 10 156 67 5 27 1 37 -24 63 -30 29 -33 30 -124 29 -51 0 -103 -4 -115 -9z"/>
<path d="M1624 1148 c-23 -11 -44 -48 -44 -77 0 -10 9 -30 21 -45 l20 -26 385
0 c371 0 385 1 404 20 28 28 27 90 -1 116 -20 18 -43 19 -393 21 -243 1 -378
-2 -392 -9z"/>
<path d="M2703 1150 c-45 -19 -58 -95 -23 -130 18 -18 33 -20 130 -20 129 0
150 11 150 78 0 63 -24 77 -139 79 -53 2 -106 -2 -118 -7z"/>
<path d="M3135 1148 c-49 -26 -59 -77 -24 -122 20 -25 24 -26 129 -26 90 0
111 3 131 19 34 27 32 86 -5 117 -24 22 -37 24 -119 24 -51 0 -101 -6 -112
-12z"/>
<path d="M3612 957 c-17 -18 -22 -36 -22 -78 0 -101 41 -93 -508 -99 -454 -5
-481 -6 -501 -24 -28 -26 -29 -88 -1 -116 20 -20 30 -20 524 -18 l503 3 42 29
c64 45 94 103 99 197 4 73 3 79 -21 103 -34 34 -85 35 -115 3z"/>
</g>
</svg>
