<?xml version="1.0" standalone="no"?>
<!DOCTYPE svg PUBLIC "-//W3C//DTD SVG 20010904//EN"
 "http://www.w3.org/TR/2001/REC-SVG-20010904/DTD/svg10.dtd">
<svg version="1.0" xmlns="http://www.w3.org/2000/svg"
 width="512.000000pt" height="512.000000pt" viewBox="0 0 512.000000 512.000000"
 preserveAspectRatio="xMidYMid meet">
<metadata>
Created by potrace 1.16, written by Peter Selinger 2001-2019
</metadata>
<g transform="translate(0.000000,512.000000) scale(0.100000,-0.100000)"
fill="#000000" stroke="none">
<path d="M2414 5092 c-118 -57 -179 -166 -172 -307 7 -130 67 -218 185 -272
l53 -24 0 -354 0 -353 -82 -12 c-106 -15 -271 -69 -371 -123 -44 -23 -117 -72
-162 -108 l-83 -67 -116 117 -116 116 0 232 0 231 23 6 c35 8 115 83 139 129
64 126 12 296 -111 359 -45 24 -65 28 -131 28 -66 0 -86 -4 -131 -28 -60 -31
-111 -96 -130 -165 -15 -56 -6 -144 19 -194 24 -46 104 -121 139 -129 l23 -6
0 -209 0 -209 -165 0 -165 0 -10 28 c-20 54 -36 78 -81 123 -64 65 -139 92
-239 87 -93 -6 -154 -32 -213 -91 -63 -63 -90 -138 -85 -242 5 -131 63 -220
177 -274 78 -36 202 -37 276 -1 65 32 121 90 152 156 l24 54 187 0 187 0 118
-118 c64 -64 117 -120 117 -124 0 -3 -16 -30 -36 -59 -85 -127 -145 -279 -171
-439 l-16 -100 -392 0 -392 0 -18 40 c-24 53 -89 112 -148 135 -61 23 -165 17
-223 -13 -94 -48 -153 -161 -140 -270 13 -113 84 -196 195 -228 126 -37 262
24 319 143 l16 33 392 0 392 0 12 -82 c24 -161 96 -342 188 -473 100 -142 248
-275 306 -275 44 0 76 35 76 82 0 31 -8 42 -72 98 -244 210 -361 473 -345 768
7 133 35 240 92 360 57 118 92 170 179 261 122 126 252 205 422 257 81 25 104
27 249 28 146 0 168 -2 250 -27 384 -118 650 -431 696 -823 24 -199 -33 -430
-152 -615 -16 -25 -29 -53 -29 -62 0 -31 23 -66 51 -77 49 -21 76 -6 126 72
82 126 145 302 159 444 l7 64 397 0 397 0 18 -40 c21 -48 82 -105 134 -128 53
-23 165 -21 221 4 100 45 155 134 154 249 0 60 -4 79 -30 125 -36 64 -97 115
-157 131 -55 15 -153 7 -198 -15 -49 -23 -105 -80 -126 -128 l-17 -38 -396 0
-397 0 -7 69 c-12 139 -80 321 -169 459 l-45 69 122 122 121 121 186 0 186 0
17 -44 c24 -64 87 -130 154 -163 49 -24 69 -28 142 -28 73 0 93 4 142 28 65
32 121 89 152 156 30 67 30 197 -2 266 -30 65 -92 128 -156 157 -41 18 -69 23
-141 23 -78 0 -97 -4 -140 -27 -64 -33 -125 -99 -151 -161 l-19 -47 -162 0
-163 0 0 209 0 209 32 13 c89 37 152 135 152 239 0 161 -109 270 -269 270
-160 0 -266 -106 -266 -266 0 -111 65 -212 159 -246 l32 -12 0 -226 0 -225
-120 -120 c-91 -91 -123 -117 -134 -110 -7 6 -40 32 -72 58 -149 122 -344 203
-556 232 l-48 6 0 358 0 358 39 12 c56 16 143 99 172 163 34 77 33 192 -3 269
-30 65 -81 120 -141 151 -32 17 -64 23 -137 25 -88 4 -99 2 -156 -25z m181
-133 c55 -14 109 -70 119 -122 15 -82 -38 -164 -122 -186 -125 -34 -233 104
-176 224 20 43 44 64 91 81 47 16 36 16 88 3z m-1046 -466 c30 -32 33 -40 28
-77 -8 -57 -52 -96 -108 -96 -55 0 -109 51 -109 103 0 62 72 123 130 110 14
-3 40 -21 59 -40z m2173 11 c39 -36 40 -113 2 -156 -23 -24 -72 -37 -109 -27
-100 28 -101 181 -2 207 37 10 82 0 109 -24z m-2902 -693 c44 -23 76 -69 85
-122 16 -92 -77 -186 -174 -176 -149 16 -194 220 -65 294 48 28 107 29 154 4z
m3630 -3 c57 -39 75 -72 75 -137 0 -73 -33 -121 -99 -146 -53 -20 -98 -15
-147 18 -126 84 -62 287 91 287 32 0 57 -7 80 -22z m-3974 -1062 c24 -24 34
-43 34 -65 0 -104 -113 -156 -184 -85 -69 70 -22 184 77 184 31 0 46 -7 73
-34z m4295 18 c36 -18 63 -75 54 -113 -4 -14 -18 -38 -32 -53 -68 -72 -183
-24 -183 75 0 31 7 46 34 73 39 39 77 44 127 18z"/>
<path d="M2383 3360 c-162 -42 -221 -92 -193 -160 22 -54 72 -65 140 -30 112
57 288 64 414 16 222 -84 361 -285 359 -521 -1 -142 -47 -258 -147 -364 -46
-48 -125 -111 -140 -111 -3 0 -6 89 -6 198 0 145 -4 212 -15 248 -55 187 -279
252 -420 123 -80 -74 -85 -94 -85 -342 0 -119 -3 -217 -6 -217 -16 0 -98 66
-137 111 -127 145 -171 362 -107 534 34 94 36 122 9 151 -30 32 -90 33 -118 3
-10 -11 -32 -60 -48 -107 -25 -79 -28 -100 -28 -222 1 -125 3 -142 32 -223 43
-122 86 -190 178 -282 58 -58 99 -89 152 -115 l72 -35 0 -370 c1 -315 -1 -367
-13 -355 -7 8 -60 71 -116 138 -120 146 -161 172 -271 172 -147 0 -259 -112
-259 -260 0 -87 20 -115 356 -518 l324 -387 0 -201 c0 -182 2 -202 18 -217 27
-25 94 -22 118 4 17 19 19 41 22 234 3 171 1 219 -11 246 -9 19 -156 201 -327
404 -171 204 -319 384 -327 401 -31 63 16 134 89 134 49 0 51 -1 265 -262 172
-209 192 -225 242 -197 52 29 51 9 51 841 l0 776 25 30 c32 39 67 47 110 27
66 -32 65 -22 65 -627 0 -506 1 -546 18 -560 27 -25 61 -31 94 -17 39 16 48
43 48 145 l0 84 74 0 74 0 4 -95 c4 -110 21 -139 82 -139 63 0 76 23 76 136
l0 98 80 0 80 0 0 -89 c0 -49 3 -97 6 -106 10 -25 62 -48 93 -40 54 14 61 29
61 138 l0 99 28 -6 c46 -11 104 -59 129 -105 20 -39 23 -58 23 -156 0 -119 11
-169 40 -185 31 -17 79 -11 101 11 20 20 21 30 17 177 -3 145 -5 161 -30 214
-34 73 -103 142 -176 176 l-57 27 -352 3 -353 3 0 82 0 82 73 38 c176 90 304
248 358 442 29 102 31 269 6 364 -67 250 -267 446 -521 511 -102 26 -244 26
-343 0z"/>
<path d="M3652 947 c-15 -16 -22 -36 -22 -63 -1 -132 -62 -273 -167 -386 l-73
-78 0 -183 c0 -171 1 -186 21 -211 16 -21 29 -26 63 -26 72 0 76 11 76 194 l0
158 55 59 c103 112 169 267 181 422 6 74 4 85 -16 110 -28 36 -86 38 -118 4z"/>
</g>
</svg>
