<?xml version="1.0" standalone="no"?>
<!DOCTYPE svg PUBLIC "-//W3C//DTD SVG 20010904//EN"
 "http://www.w3.org/TR/2001/REC-SVG-20010904/DTD/svg10.dtd">
<svg version="1.0" xmlns="http://www.w3.org/2000/svg"
 width="225.000000pt" height="225.000000pt" viewBox="0 0 225.000000 225.000000"
 preserveAspectRatio="xMidYMid meet">
<metadata>
Created by potrace 1.16, written by Peter Selinger 2001-2019
</metadata>
<g transform="translate(0.000000,225.000000) scale(0.100000,-0.100000)"
fill="#000000" stroke="none">
<path d="M115 2231 c-48 -22 -79 -54 -100 -103 -19 -47 -22 -297 -3 -316 9 -9
254 -12 1039 -12 1105 0 1061 -2 1044 49 -6 21 -9 21 -1013 23 l-1007 3 -3
100 c-3 118 12 160 68 187 33 17 101 18 985 18 884 0 952 -1 985 -18 74 -37
70 25 70 -1035 0 -1029 2 -996 -55 -1033 -35 -23 -32 -68 6 -72 31 -4 87 50
105 100 9 25 13 276 13 1001 1 852 -1 972 -14 1005 -21 49 -52 81 -100 103
-38 18 -88 19 -1010 19 -922 0 -972 -1 -1010 -19z"/>
<path d="M256 2079 c-36 -28 -36 -80 0 -108 15 -12 34 -21 44 -21 34 0 70 39
70 75 0 36 -36 75 -70 75 -10 0 -29 -9 -44 -21z"/>
<path d="M475 2075 c-14 -13 -25 -36 -25 -50 0 -33 42 -75 75 -75 33 0 75 42
75 75 0 14 -11 37 -25 50 -13 14 -36 25 -50 25 -14 0 -37 -11 -50 -25z"/>
<path d="M702 2077 c-31 -33 -29 -80 4 -106 15 -12 34 -21 44 -21 34 0 70 39
70 75 0 24 -7 39 -26 54 -35 27 -65 27 -92 -2z"/>
<path d="M5 1698 c-3 -13 -4 -372 -3 -799 l3 -775 24 -36 c13 -19 40 -46 59
-59 l36 -24 925 -3 c509 -1 936 0 949 3 l22 5 0 514 c0 459 -2 515 -16 520
-20 8 -238 8 -258 0 -14 -5 -16 -54 -16 -444 0 -433 0 -439 20 -445 50 -16 50
-12 50 421 l0 404 75 0 75 0 0 -455 0 -455 -885 0 c-965 0 -934 -2 -972 56
-17 26 -18 74 -23 809 l-5 780 -27 3 c-22 3 -29 -2 -33 -20z"/>
<path d="M242 1641 c-8 -4 -12 -19 -10 -32 l3 -24 177 -3 c171 -2 177 -2 183
18 14 44 -6 50 -179 50 -88 0 -167 -4 -174 -9z"/>
<path d="M1362 1338 c-9 -9 -12 -154 -12 -589 0 -619 -1 -610 49 -594 21 6 21
13 23 563 l3 557 75 0 75 0 3 -557 c2 -550 2 -557 23 -563 50 -16 49 -25 49
594 0 435 -3 580 -12 589 -8 8 -53 12 -138 12 -85 0 -130 -4 -138 -12z"/>
<path d="M612 1038 c-9 -9 -12 -120 -12 -439 0 -457 0 -460 49 -444 20 6 21
14 23 413 l3 407 75 0 75 0 3 -407 c2 -399 3 -407 23 -413 49 -16 49 -13 49
444 0 319 -3 430 -12 439 -17 17 -259 17 -276 0z"/>
<path d="M993 743 c-10 -3 -13 -72 -13 -293 0 -282 0 -289 20 -295 47 -15 50
0 50 271 l0 254 75 0 75 0 0 -254 c0 -271 3 -286 50 -271 20 6 20 13 20 295 0
253 -2 289 -16 294 -19 7 -243 7 -261 -1z"/>
<path d="M243 443 c-10 -3 -13 -42 -13 -143 0 -131 1 -139 20 -145 41 -13 50
10 50 121 l0 104 75 0 75 0 0 -104 c0 -111 9 -134 50 -121 19 6 20 14 20 145
0 116 -2 139 -16 144 -19 7 -243 7 -261 -1z"/>
</g>
</svg>
