<?xml version="1.0" standalone="no"?>
<!DOCTYPE svg PUBLIC "-//W3C//DTD SVG 20010904//EN"
 "http://www.w3.org/TR/2001/REC-SVG-20010904/DTD/svg10.dtd">
<svg version="1.0" xmlns="http://www.w3.org/2000/svg"
 width="880.000000pt" height="948.000000pt" viewBox="0 0 880.000000 948.000000"
 preserveAspectRatio="xMidYMid meet">
<metadata>
Created by potrace 1.16, written by Peter Selinger 2001-2019
</metadata>
<g transform="translate(0.000000,948.000000) scale(0.100000,-0.100000)"
fill="#000000" stroke="none">
<path d="M2915 9060 c-182 -7 -240 -21 -332 -77 -148 -90 -252 -234 -305 -420
-32 -114 -33 -328 -1 -429 56 -176 201 -310 393 -363 70 -20 101 -21 482 -21
l408 0 0 70 0 69 -412 3 c-464 4 -465 4 -577 79 -66 44 -123 114 -147 180 -58
165 -30 390 66 544 77 121 182 195 307 215 65 11 1170 14 1391 3 l142 -6 0
-159 c0 -157 0 -158 -22 -158 -13 0 -72 -5 -133 -10 -324 -30 -498 -99 -559
-221 l-26 -53 0 -448 0 -448 -1255 0 -1255 0 0 -534 0 -533 -145 -137 -145
-138 0 -574 0 -574 -185 0 -185 0 0 -875 0 -875 130 0 130 0 0 -648 0 -647
-120 -120 -120 -120 2 -400 3 -400 882 -3 882 -2 20 22 c12 12 105 128 208
259 l188 238 1777 1 1777 0 204 -257 204 -258 884 0 884 0 3 405 2 405 -120
120 -120 120 0 642 0 643 135 0 135 0 0 875 0 875 -205 0 -205 0 0 556 0 556
-140 175 -140 176 0 513 0 514 -277 2 -278 3 -3 257 -2 258 -953 2 -952 3 -5
201 c-5 199 -5 201 -33 241 -77 111 -259 177 -562 203 -66 5 -128 10 -137 10
-17 0 -18 17 -18 218 0 119 -4 223 -8 230 -7 10 -128 15 -548 22 -582 10 -762
10 -1009 0z m1722 -625 c185 -11 363 -62 426 -122 l27 -27 0 -438 0 -438 -185
0 -185 0 0 185 0 185 -90 0 -90 0 0 -185 0 -186 -142 3 -143 3 -3 183 -2 183
-88 -3 -87 -3 -3 -183 -2 -182 -168 2 -167 3 -3 434 -2 434 39 37 c106 101
413 142 868 115z m2363 -835 l0 -190 -882 2 -883 3 -3 175 c-1 96 0 180 2 187
4 10 178 13 886 13 l880 0 0 -190z m-5390 -1505 l0 -1175 -340 0 -340 0 2 218
3 217 160 5 160 5 3 87 3 88 -163 2 -163 3 -3 228 -2 229 107 102 c60 57 125
118 146 136 l37 32 0 499 0 499 195 0 195 0 0 -1175z m2175 915 l0 -255 -520
-6 c-286 -3 -743 -8 -1015 -9 l-495 -4 -3 254 c-1 140 0 260 3 267 3 11 205
13 1017 11 l1013 -3 0 -255z m1035 -258 l0 -517 -206 -145 c-114 -80 -212
-148 -219 -152 -7 -4 -102 54 -236 145 l-224 153 -3 517 -2 517 445 0 445 0 0
-518z m2178 251 l-3 -268 -145 2 c-80 2 -535 6 -1012 9 l-868 6 0 259 0 259
1015 0 1015 0 -2 -267z m552 -198 l0 -464 145 -182 145 -182 0 -528 0 -529
-350 0 -350 0 0 1168 c0 643 3 1172 7 1175 3 4 96 7 205 7 l198 0 0 -465z
m-3758 -421 l3 -226 260 -177 260 -177 3 -132 3 -132 69 0 70 0 0 134 0 133
255 179 255 179 0 223 0 222 633 -5 c347 -3 804 -8 1015 -11 l382 -6 0 -834 0
-834 -420 0 -420 0 0 160 0 161 -87 -3 -88 -3 -3 -157 -3 -158 -744 0 -744 0
-3 158 -3 157 -86 3 c-105 3 -99 14 -99 -180 l0 -138 -745 0 -744 0 -3 158 -3
157 -87 3 -88 3 0 -161 0 -160 -440 0 -440 0 0 835 0 835 123 1 c343 4 1368
15 1624 17 l293 2 2 -226z m4458 -1934 l0 -320 -950 0 -950 0 0 -90 0 -90 950
0 950 0 0 -320 0 -320 -3845 0 -3845 0 0 730 0 730 3845 0 3845 0 0 -320z
m-3922 -2117 l-3 -838 -887 -5 -886 -5 -201 -253 -201 -252 -780 0 -780 0 0
302 0 302 120 121 120 122 0 671 0 672 1750 0 1750 0 -2 -837z m3652 159 l0
-677 120 -120 120 -120 0 -297 0 -298 -782 0 -783 0 -202 255 -203 255 -885 0
-885 0 0 840 0 840 1750 0 1750 0 0 -678z"/>
<path d="M4290 6665 l0 -195 90 0 90 0 0 195 0 195 -90 0 -90 0 0 -195z"/>
<path d="M7430 5450 l0 -90 195 0 195 0 0 90 0 90 -195 0 -195 0 0 -90z"/>
<path d="M1340 4354 c-224 -81 -293 -356 -135 -532 86 -96 226 -130 355 -87
77 26 169 118 195 195 54 161 -15 335 -162 406 -70 35 -185 43 -253 18z m170
-104 c48 -13 106 -63 131 -113 32 -61 24 -161 -16 -219 -40 -56 -108 -91 -177
-90 -66 1 -96 12 -143 54 -175 153 -20 431 205 368z"/>
<path d="M2513 4352 c-169 -60 -257 -246 -199 -420 22 -64 99 -152 159 -181
91 -44 206 -46 294 -4 63 29 137 111 162 178 30 77 26 188 -8 258 -71 147
-255 223 -408 169z m208 -119 c127 -65 159 -224 66 -329 -93 -107 -261 -100
-342 14 -40 57 -48 158 -17 218 59 115 179 154 293 97z"/>
<path d="M3703 4356 c-58 -19 -105 -50 -148 -97 -57 -63 -78 -121 -79 -214 -1
-72 3 -88 32 -147 49 -99 125 -156 234 -177 149 -27 290 47 360 188 32 65 32
195 1 263 -31 67 -104 142 -166 168 -64 28 -174 36 -234 16z m198 -124 c125
-65 155 -223 63 -330 -76 -90 -226 -99 -313 -19 -31 29 -71 114 -71 153 0 49
28 118 63 154 72 74 168 89 258 42z"/>
<path d="M1460 2340 l0 -251 128 3 127 3 3 248 2 247 -130 0 -130 0 0 -250z"/>
<path d="M1960 2340 l0 -251 128 3 127 3 3 248 2 247 -130 0 -130 0 0 -250z"/>
<path d="M2460 2340 l0 -250 130 0 130 0 0 250 0 250 -130 0 -130 0 0 -250z"/>
<path d="M5910 2684 l-68 -65 -63 22 c-53 17 -81 20 -160 17 -83 -3 -104 -8
-161 -36 -83 -41 -159 -117 -201 -201 -30 -62 -32 -71 -32 -181 0 -110 2 -119
32 -181 42 -84 118 -160 202 -202 62 -30 71 -32 181 -32 110 0 118 1 183 33
85 42 156 113 199 199 32 65 33 72 33 183 0 110 -2 118 -32 181 -18 37 -33 69
-33 73 0 4 25 36 55 71 66 78 69 103 21 151 -51 51 -75 46 -156 -32z m-152
-188 c50 -26 111 -85 134 -130 29 -58 35 -150 13 -217 -24 -70 -101 -149 -169
-172 -108 -37 -211 -13 -292 67 -113 114 -113 278 1 392 29 29 69 58 95 67 57
21 171 17 218 -7z"/>
<path d="M7150 2740 c-8 -5 -40 -34 -71 -65 l-55 -57 -73 22 c-107 33 -224 26
-315 -19 -168 -82 -268 -269 -237 -443 25 -142 109 -256 236 -319 66 -32 74
-34 180 -34 92 0 119 4 168 23 66 27 163 111 200 175 75 128 75 314 -1 436
l-21 35 56 64 c46 52 57 71 57 100 0 60 -77 111 -124 82z m-234 -237 c32 -11
66 -34 101 -68 141 -141 97 -367 -88 -450 -53 -24 -71 -27 -128 -23 -38 3 -83
14 -106 26 -55 27 -118 98 -140 155 -23 60 -17 165 13 223 64 125 212 183 348
137z"/>
</g>
</svg>
