<?xml version="1.0" standalone="no"?>
<!DOCTYPE svg PUBLIC "-//W3C//DTD SVG 20010904//EN"
 "http://www.w3.org/TR/2001/REC-SVG-20010904/DTD/svg10.dtd">
<svg version="1.0" xmlns="http://www.w3.org/2000/svg"
 width="900.000000pt" height="520.000000pt" viewBox="0 0 900.000000 520.000000"
 preserveAspectRatio="xMidYMid meet">
<metadata>
Created by potrace 1.16, written by Peter Selinger 2001-2019
</metadata>
<g transform="translate(0.000000,520.000000) scale(0.100000,-0.100000)"
fill="#000000" stroke="none">
<path d="M3030 4640 l0 -500 -175 0 -175 0 0 -145 0 -145 775 0 775 0 0 145 0
145 -210 0 -210 0 0 500 0 500 -390 0 -390 0 0 -500z m490 203 c5 -149 6 -381
2 -490 l-5 -143 -99 0 -98 0 0 320 0 320 100 0 c55 0 100 -3 100 -7z"/>
<path d="M2710 3007 l0 -523 -77 -18 c-271 -63 -519 -280 -626 -547 -48 -121
-61 -193 -61 -344 0 -151 15 -226 70 -358 85 -201 269 -385 477 -477 l77 -34
0 -138 0 -138 -145 0 -145 0 0 -145 0 -145 690 0 690 0 0 145 0 145 -145 0
-145 0 0 115 0 115 1130 0 1130 0 0 -115 0 -115 -145 0 -145 0 0 -145 0 -145
690 0 690 0 0 145 0 145 -145 0 -145 0 0 138 0 138 78 34 c258 114 442 331
524 617 31 110 31 331 -1 448 -88 327 -348 586 -665 662 l-76 18 0 523 0 522
-765 0 -765 0 0 -515 0 -515 -260 0 -260 0 0 515 0 515 -765 0 -765 0 0 -523z
m1240 -132 l0 -365 -480 0 -480 0 0 365 0 365 480 0 480 0 0 -365z m1440 125
l0 -240 140 0 140 0 0 240 0 240 170 0 170 0 0 -365 0 -365 -480 0 -480 0 0
365 0 365 170 0 170 0 0 -240z m943 -817 c111 -42 181 -87 257 -163 83 -82
138 -178 165 -285 19 -76 19 -234 0 -310 -56 -221 -245 -408 -465 -459 -57
-14 -278 -16 -1790 -16 -1494 0 -1733 2 -1788 15 -222 52 -411 239 -467 460
-19 76 -19 234 0 310 59 231 271 428 505 468 14 3 813 4 1775 3 l1750 -1 58
-22z m-3253 -1638 l0 -115 -110 0 -110 0 0 115 0 115 110 0 110 0 0 -115z
m3060 0 l0 -115 -110 0 -110 0 0 115 0 115 110 0 110 0 0 -115z"/>
<path d="M2769 2011 c-209 -67 -343 -283 -309 -498 35 -223 219 -383 442 -384
91 0 143 12 220 53 221 117 303 404 178 623 -33 58 -119 143 -170 170 -111 57
-251 71 -361 36z m239 -298 c47 -38 77 -107 68 -156 -21 -114 -144 -179 -243
-128 -59 29 -86 73 -90 140 -3 44 1 64 19 95 51 87 169 111 246 49z"/>
<path d="M5944 2006 c-81 -30 -123 -57 -176 -114 -58 -62 -93 -123 -112 -197
-53 -202 39 -416 222 -513 76 -40 128 -53 218 -53 275 0 487 248 444 519 -27
169 -143 306 -307 363 -80 27 -208 25 -289 -5z m244 -289 c52 -34 75 -85 70
-152 -12 -149 -195 -210 -291 -96 -39 47 -53 102 -38 151 35 117 159 164 259
97z"/>
<path d="M3610 1580 l0 -140 195 0 195 0 0 140 0 140 -195 0 -195 0 0 -140z"/>
<path d="M4310 1580 l0 -140 190 0 190 0 0 140 0 140 -190 0 -190 0 0 -140z"/>
<path d="M5000 1580 l0 -140 195 0 195 0 0 140 0 140 -195 0 -195 0 0 -140z"/>
</g>
</svg>
