<?xml version="1.0" standalone="no"?>
<!DOCTYPE svg PUBLIC "-//W3C//DTD SVG 20010904//EN"
 "http://www.w3.org/TR/2001/REC-SVG-20010904/DTD/svg10.dtd">
<svg version="1.0" xmlns="http://www.w3.org/2000/svg"
 width="225.000000pt" height="225.000000pt" viewBox="0 0 225.000000 225.000000"
 preserveAspectRatio="xMidYMid meet">
<metadata>
Created by potrace 1.16, written by Peter Selinger 2001-2019
</metadata>
<g transform="translate(0.000000,225.000000) scale(0.100000,-0.100000)"
fill="#000000" stroke="none">
<path d="M292 1693 c-42 -20 -69 -55 -82 -104 -7 -25 -10 -198 -8 -487 3 -496
2 -485 70 -534 l33 -23 820 0 820 0 33 23 c69 50 67 35 67 557 0 522 2 507
-67 557 l-33 23 -810 2 c-732 3 -813 1 -843 -14z m1647 -38 c8 -8 -113 -108
-394 -328 -223 -175 -410 -318 -414 -320 -13 -3 -830 637 -822 645 3 3 15 8
26 11 42 10 1594 2 1604 -8z m-1369 -272 c153 -120 279 -220 279 -223 0 -3
-105 -88 -234 -189 -129 -102 -235 -191 -235 -198 0 -40 62 4 497 349 8 7 47
-18 128 -81 64 -50 119 -91 123 -91 4 0 55 38 115 85 59 47 112 85 117 85 6 0
113 -81 238 -180 214 -169 262 -200 262 -166 0 8 -103 96 -230 196 -126 100
-230 183 -230 185 0 8 571 450 583 450 9 0 13 -105 15 -477 l2 -476 -29 -30
c-17 -16 -44 -32 -62 -36 -41 -8 -1527 -8 -1568 0 -18 4 -45 20 -62 36 l-29
30 0 472 c0 260 3 476 7 480 4 3 13 4 20 2 8 -3 139 -104 293 -223z"/>
</g>
</svg>
