<?xml version="1.0" standalone="no"?>
<!DOCTYPE svg PUBLIC "-//W3C//DTD SVG 20010904//EN"
 "http://www.w3.org/TR/2001/REC-SVG-20010904/DTD/svg10.dtd">
<svg version="1.0" xmlns="http://www.w3.org/2000/svg"
 width="860.000000pt" height="927.000000pt" viewBox="0 0 860.000000 927.000000"
 preserveAspectRatio="xMidYMid meet">
<metadata>
Created by potrace 1.16, written by Peter Selinger 2001-2019
</metadata>
<g transform="translate(0.000000,927.000000) scale(0.100000,-0.100000)"
fill="#000000" stroke="none">
<path d="M4165 8855 c-266 -47 -517 -160 -656 -295 -136 -133 -168 -276 -96
-434 48 -104 200 -233 357 -304 135 -60 331 -114 463 -127 l67 -7 0 -241 0
-242 -298 -298 -297 -297 -1033 0 -1032 0 0 -530 0 -530 -468 -2 -467 -3 -3
-662 -2 -663 1070 0 1070 0 0 265 0 265 730 0 730 0 0 -465 0 -465 -1397 -2
-1398 -3 -3 -267 -2 -268 -130 0 -130 0 0 -109 c0 -126 -9 -231 -21 -231 -4 0
-63 53 -129 117 l-121 117 -275 -275 c-151 -150 -274 -277 -274 -281 0 -4 24
-31 53 -60 109 -108 180 -188 173 -196 -4 -4 -83 -9 -174 -12 l-167 -5 0 -395
0 -395 165 -3 c90 -1 169 -7 174 -12 5 -5 -37 -56 -108 -128 -64 -65 -116
-122 -116 -127 0 -4 124 -132 275 -283 l276 -275 118 116 c65 64 122 117 128
117 13 0 23 -97 23 -231 l0 -109 400 0 400 0 0 169 c0 94 4 172 8 175 4 2 62
-47 127 -109 l120 -113 277 276 277 276 -116 119 c-87 90 -112 121 -102 128 8
5 87 9 177 9 l162 0 0 400 0 400 -152 1 c-231 2 -225 -8 -81 140 l122 125
-279 279 -280 279 -118 -117 c-65 -64 -124 -117 -130 -117 -9 0 -12 48 -12
170 l0 170 -135 0 -135 0 0 135 0 135 2665 0 2665 0 0 -138 0 -138 -97 -22
c-287 -65 -582 -301 -720 -577 -80 -158 -119 -334 -110 -502 11 -240 111 -477
289 -684 85 -98 113 -148 103 -179 -5 -16 -18 -20 -68 -22 l-62 -3 -3 -132 -3
-132 68 -3 68 -3 3 -197 2 -198 665 0 665 0 0 200 0 200 65 0 65 0 0 135 0
134 -62 3 -63 3 -3 42 c-3 41 0 47 65 115 236 252 351 559 321 858 -35 356
-268 690 -593 852 -94 47 -197 85 -267 98 l-58 11 -2 272 -3 272 -1397 3
-1398 2 0 465 0 465 730 0 730 0 0 -265 0 -265 1065 0 1065 0 0 665 0 665
-465 0 -465 0 0 530 0 530 -1032 0 -1033 0 -297 297 -298 298 0 205 c0 113 3
221 6 241 6 37 6 37 68 44 445 50 827 299 852 556 8 73 -21 161 -80 243 -118
166 -377 299 -686 351 -133 23 -460 29 -565 10z m642 -279 c252 -58 423 -177
423 -296 0 -116 -128 -217 -365 -285 -183 -53 -678 -53 -860 0 -172 50 -308
134 -351 217 -49 95 20 210 171 286 55 27 194 70 284 87 109 20 596 14 698 -9z
m-132 -1866 l230 -230 -237 -237 -237 -237 -237 236 -237 236 234 231 c129
127 239 231 244 231 6 0 114 -104 240 -230z m-610 -720 c198 -198 364 -360
370 -360 6 0 172 162 370 360 l360 360 900 -2 900 -3 0 -395 0 -395 -465 -5
-465 -5 -5 -265 -5 -265 -1592 -3 -1593 -2 -2 267 -3 268 -467 3 -468 2 0 393
c0 217 3 397 7 400 3 4 409 7 902 7 l896 0 360 -360z m-1497 -1107 l-3 -398
-797 -3 -798 -2 0 400 0 400 800 0 800 0 -2 -397z m5330 0 l-3 -398 -797 -3
-798 -2 0 400 0 400 800 0 800 0 -2 -397z m-6127 -1978 c4 -60 7 -122 8 -136
1 -23 9 -28 74 -48 39 -12 113 -41 162 -65 l90 -44 95 94 95 94 95 -95 95 -95
-95 -94 -94 -95 51 -108 c28 -59 58 -134 67 -165 l17 -58 88 0 c48 0 109 -3
135 -6 l46 -7 0 -128 0 -129 -72 -1 c-40 -1 -102 -4 -136 -8 l-64 -6 -23 -73
c-13 -40 -42 -112 -65 -161 l-42 -89 33 -34 c19 -18 61 -61 93 -96 l60 -63
-89 -89 c-49 -50 -94 -90 -100 -90 -5 0 -51 41 -101 91 l-90 90 -95 -46 c-51
-25 -123 -54 -160 -65 l-66 -20 -7 -53 c-3 -28 -6 -89 -6 -134 l0 -83 -135 0
-135 0 0 134 0 134 -72 22 c-40 12 -115 42 -167 67 l-94 45 -94 -94 -93 -93
-95 95 -95 95 90 90 c49 50 90 96 90 102 0 6 -19 52 -43 100 -24 49 -52 119
-62 155 l-19 65 -90 7 c-49 3 -111 6 -138 6 l-48 0 0 130 c0 117 2 130 18 131
9 1 70 4 136 8 l119 6 24 75 c13 41 42 111 63 155 22 45 40 85 40 90 0 5 -42
51 -92 102 l-93 93 95 95 95 94 97 -95 97 -95 83 42 c46 23 119 54 163 68 l80
26 3 125 c1 69 4 131 7 138 3 9 36 12 132 10 l128 -3 6 -110z m5651 90 c43 -9
115 -36 175 -66 325 -160 490 -515 414 -887 -40 -193 -156 -359 -347 -498 -29
-21 -29 -22 -32 -138 l-4 -116 -129 0 -129 0 0 278 0 277 70 53 c128 98 185
197 185 322 0 65 -5 85 -33 142 -41 84 -128 173 -208 213 -53 27 -68 30 -154
30 -87 0 -100 -3 -157 -32 -154 -81 -255 -256 -232 -403 16 -103 79 -193 202
-287 l57 -44 0 -275 0 -274 -135 0 -135 0 0 114 0 114 -62 50 c-229 182 -328
379 -328 652 0 224 71 410 213 558 93 97 254 189 379 216 87 19 299 20 390 1z
m-123 -658 c40 -20 62 -58 63 -110 2 -97 -38 -137 -136 -137 -47 0 -61 4 -87
28 -59 53 -50 173 15 213 36 22 109 25 145 6z m331 -1382 l0 -65 -400 0 -400
0 0 65 0 65 400 0 400 0 0 -65z"/>
<path d="M1490 2457 c-135 -48 -244 -140 -317 -270 -50 -87 -68 -176 -59 -286
12 -148 115 -306 259 -395 101 -62 167 -79 286 -74 106 5 154 19 237 69 78 47
149 121 200 208 53 90 67 156 62 277 -4 85 -7 99 -47 179 -118 239 -398 370
-621 292z m253 -258 c81 -22 143 -105 153 -207 13 -121 -33 -229 -118 -274
-36 -19 -58 -23 -138 -23 -79 0 -103 4 -143 24 -83 40 -121 115 -120 233 2
171 88 258 252 258 42 0 93 -5 114 -11z"/>
</g>
</svg>
