<?xml version="1.0" standalone="no"?>
<!DOCTYPE svg PUBLIC "-//W3C//DTD SVG 20010904//EN"
 "http://www.w3.org/TR/2001/REC-SVG-20010904/DTD/svg10.dtd">
<svg version="1.0" xmlns="http://www.w3.org/2000/svg"
 width="225.000000pt" height="225.000000pt" viewBox="0 0 225.000000 225.000000"
 preserveAspectRatio="xMidYMid meet">
<metadata>
Created by potrace 1.16, written by Peter Selinger 2001-2019
</metadata>
<g transform="translate(0.000000,225.000000) scale(0.100000,-0.100000)"
fill="#000000" stroke="none">
<path d="M2033 2229 c-68 -34 -98 -116 -69 -189 4 -10 -56 -78 -191 -212
l-198 -198 -37 12 c-29 9 -47 9 -75 0 l-38 -12 -80 80 -80 80 0 75 c0 73 -1
76 -37 111 -29 30 -45 38 -86 42 -99 9 -162 -49 -162 -149 l0 -54 -364 -364
-363 -363 -31 16 c-73 38 -168 8 -204 -64 -50 -98 21 -210 132 -210 88 0 155
72 147 156 l-4 42 366 366 367 367 33 -17 c25 -12 48 -15 90 -11 l57 6 82 -82
81 -82 -12 -42 c-9 -36 -8 -49 9 -90 15 -39 28 -52 64 -70 24 -13 56 -23 70
-23 14 0 46 10 70 23 36 18 49 31 64 70 17 41 18 54 8 90 l-11 42 197 198
c135 135 202 195 212 191 74 -29 156 1 189 70 12 23 21 53 21 66 0 48 -39 108
-84 129 -53 26 -80 26 -133 0z m121 -79 c26 -25 25 -76 -2 -102 -45 -45 -125
-13 -125 51 0 70 75 100 127 51z m-979 -225 c14 -13 25 -36 25 -50 0 -33 -42
-75 -75 -75 -14 0 -37 11 -50 25 -34 33 -33 77 1 104 35 28 69 26 99 -4z m379
-375 c26 -25 25 -76 -2 -102 -45 -45 -125 -13 -125 51 0 70 75 100 127 51z
m-1365 -510 c10 -5 24 -22 30 -39 36 -85 -92 -142 -135 -60 -35 68 37 136 105
99z"/>
<path d="M1735 1258 c-3 -7 -6 -276 -8 -598 l-2 -585 -37 -3 -38 -3 0 328 c0
243 -3 332 -12 341 -8 8 -54 12 -140 12 -116 0 -128 -2 -138 -19 -6 -13 -10
-139 -10 -341 l0 -321 -37 3 -38 3 -5 445 -5 445 -140 0 -140 0 -5 -445 -5
-445 -37 -3 -38 -3 0 360 c0 197 -3 366 -6 375 -9 24 -279 24 -288 0 -3 -9 -6
-178 -6 -375 l0 -360 -37 3 -38 3 -5 220 -5 220 -140 0 -140 0 -5 -220 -5
-220 -107 -3 c-97 -2 -107 -5 -113 -23 -13 -41 9 -49 144 -49 85 0 131 4 139
12 9 9 12 73 12 225 l0 213 75 0 75 0 0 -213 c0 -152 3 -216 12 -225 13 -13
163 -17 192 -6 14 5 16 48 16 375 l0 369 80 0 80 0 0 -369 c0 -327 2 -370 16
-375 29 -11 179 -7 192 6 9 9 12 123 12 450 l0 438 75 0 75 0 0 -438 c0 -327
3 -441 12 -450 8 -8 46 -12 105 -12 81 0 94 2 103 19 6 13 10 139 10 341 l0
321 73 -3 72 -3 3 -329 c2 -249 5 -332 15 -338 20 -13 181 -10 195 4 9 9 12
156 12 600 l0 588 75 0 75 0 0 -588 c0 -444 3 -591 12 -600 8 -8 54 -12 139
-12 135 0 157 8 144 49 -6 18 -16 21 -113 23 l-107 3 -5 595 -5 595 -138 3
c-104 2 -139 0 -142 -10z"/>
</g>
</svg>
