<?xml version="1.0" standalone="no"?>
<!DOCTYPE svg PUBLIC "-//W3C//DTD SVG 20010904//EN"
 "http://www.w3.org/TR/2001/REC-SVG-20010904/DTD/svg10.dtd">
<svg version="1.0" xmlns="http://www.w3.org/2000/svg"
 width="1786.000000pt" height="1784.000000pt" viewBox="0 0 1786.000000 1784.000000"
 preserveAspectRatio="xMidYMid meet">
<metadata>
Created by potrace 1.16, written by Peter Selinger 2001-2019
</metadata>
<g transform="translate(0.000000,1784.000000) scale(0.100000,-0.100000)"
fill="#000000" stroke="none">
<path d="M8945 15249 c-199 -18 -379 -57 -584 -126 -376 -125 -709 -331 -990
-612 -142 -141 -295 -334 -380 -478 l-30 -53 22 -14 c54 -34 182 -106 188
-106 4 0 18 19 32 43 69 116 225 315 332 422 359 356 783 572 1300 662 144 24
527 25 680 0 61 -10 126 -22 145 -27 127 -32 175 -45 254 -72 481 -160 924
-504 1196 -926 48 -75 69 -100 81 -96 18 5 179 100 192 113 4 4 -18 47 -50 97
-285 451 -733 817 -1238 1011 -133 52 -223 78 -420 123 -189 43 -502 60 -730
39z"/>
<path d="M5740 13629 c-319 -25 -636 -109 -920 -247 -63 -30 -132 -66 -153
-79 -21 -13 -55 -33 -75 -44 -19 -12 -80 -52 -133 -90 -361 -256 -640 -583
-829 -974 -236 -487 -312 -1008 -225 -1540 28 -170 89 -393 136 -500 4 -11 18
-45 29 -75 12 -30 52 -114 89 -186 274 -528 723 -940 1282 -1177 274 -117 580
-185 849 -190 l135 -2 3 117 c3 138 21 124 -163 133 -230 12 -480 69 -701 160
-597 247 -1051 703 -1284 1290 -176 443 -209 969 -89 1425 187 710 689 1286
1366 1566 319 132 689 191 1030 165 86 -6 179 -16 207 -22 250 -47 384 -87
566 -168 440 -195 804 -516 1049 -923 29 -49 56 -88 61 -88 4 0 36 16 70 35
34 19 64 35 66 35 3 0 20 10 39 23 38 26 40 19 -24 126 -291 488 -768 883
-1306 1079 -350 128 -715 179 -1075 151z"/>
<path d="M12300 13629 c-222 -17 -414 -57 -633 -130 -585 -197 -1085 -607
-1401 -1152 -15 -27 -24 -52 -20 -57 5 -4 36 -22 69 -40 33 -18 77 -42 98 -53
l39 -22 19 25 c10 14 19 29 19 33 0 16 128 203 196 287 243 302 549 534 904
685 451 193 966 233 1453 115 81 -19 193 -53 232 -69 11 -5 52 -21 90 -37 419
-166 809 -490 1064 -884 119 -182 239 -451 292 -650 57 -217 74 -355 74 -605
0 -213 -7 -289 -41 -460 -96 -490 -365 -950 -744 -1277 -390 -336 -878 -539
-1355 -563 -183 -9 -165 5 -165 -137 l0 -121 143 7 c617 29 1211 293 1658 736
295 292 505 631 634 1024 25 78 71 265 84 341 6 39 16 104 23 145 16 98 15
510 0 615 -43 284 -91 461 -190 700 -34 82 -141 283 -197 370 -137 213 -353
455 -535 602 -428 343 -896 530 -1443 573 -143 11 -213 11 -367 -1z"/>
<path d="M8980 11429 c-91 -8 -263 -35 -320 -49 -174 -43 -255 -68 -388 -120
-702 -271 -1276 -888 -1505 -1615 -83 -264 -111 -459 -110 -770 0 -266 17
-410 74 -632 130 -510 406 -956 799 -1295 105 -91 307 -234 405 -288 338 -187
641 -285 1005 -325 888 -98 1779 291 2322 1013 361 480 542 1095 500 1695 -18
248 -53 432 -126 647 -269 806 -932 1433 -1751 1658 -291 80 -615 109 -905 81z
m490 -254 c432 -55 783 -194 1119 -445 321 -239 591 -582 746 -945 9 -22 21
-49 26 -60 16 -37 67 -199 89 -280 134 -514 70 -1117 -171 -1598 -274 -545
-759 -965 -1344 -1161 -117 -39 -131 -43 -236 -65 -227 -48 -528 -65 -733 -40
-95 11 -319 53 -371 69 -108 34 -141 46 -235 82 -681 265 -1208 862 -1389
1574 -53 209 -64 306 -64 569 -1 270 12 380 69 594 110 416 334 790 651 1091
238 225 521 396 838 507 147 51 303 85 505 112 106 14 376 12 500 -4z"/>
<path d="M3820 8601 c-415 -242 -804 -573 -1116 -951 -525 -637 -852 -1420
-937 -2245 -6 -66 -12 -214 -12 -330 l0 -210 1295 -3 c712 -1 1305 0 1318 3
21 5 22 9 22 125 l0 120 -1192 2 -1193 3 -4 40 c-5 57 17 274 46 455 46 292
142 635 238 855 7 17 25 59 40 95 46 110 159 329 236 458 256 424 612 820 999
1112 85 64 296 207 336 228 19 10 40 -1 177 -92 85 -57 168 -110 183 -118 112
-59 288 -147 334 -166 372 -159 774 -252 1168 -270 83 -4 157 -5 162 -4 6 2
10 52 10 122 l0 118 -72 6 c-40 3 -116 8 -168 11 -300 18 -658 103 -955 225
-219 91 -486 244 -682 392 -54 41 -102 77 -108 80 -5 3 -62 -24 -125 -61z"/>
<path d="M14378 8591 c-200 -152 -477 -312 -693 -401 -305 -125 -664 -209
-965 -225 -58 -3 -133 -8 -167 -11 l-63 -6 0 -120 0 -121 171 6 c94 4 201 11
238 17 36 6 98 15 136 21 473 71 951 264 1372 555 l93 64 37 -21 c124 -70 351
-235 510 -371 541 -463 950 -1076 1178 -1763 56 -168 96 -322 136 -525 27
-140 62 -461 57 -530 l-3 -45 -1192 -3 -1193 -2 0 -119 c0 -99 3 -120 16 -125
25 -10 2597 -7 2613 3 12 7 13 48 8 237 -5 204 -14 303 -46 534 -5 36 -21 120
-35 187 -193 920 -668 1727 -1381 2345 -141 122 -412 316 -570 408 -49 29
-104 61 -121 72 l-32 18 -104 -79z"/>
<path d="M7165 6442 c-27 -16 -68 -39 -90 -51 -120 -68 -400 -266 -526 -371
-512 -429 -902 -948 -1171 -1554 -92 -208 -211 -572 -251 -766 -24 -121 -47
-248 -56 -315 -6 -44 -16 -114 -22 -155 -5 -41 -13 -184 -16 -317 l-6 -243
4183 0 4183 0 -6 233 c-17 630 -156 1188 -439 1758 -357 721 -944 1349 -1630
1744 l-117 67 -99 -75 c-159 -121 -366 -250 -507 -316 -138 -65 -180 -84 -267
-117 -365 -140 -716 -204 -1113 -204 -207 0 -294 6 -495 37 -451 67 -884 240
-1280 511 -52 36 -97 68 -100 71 -7 8 -118 91 -122 91 -2 0 -25 -13 -53 -28z
m86 -305 c192 -145 536 -328 799 -424 597 -219 1265 -262 1895 -124 184 40
407 111 575 182 190 80 510 260 649 366 24 18 48 33 53 33 23 0 289 -183 443
-305 129 -103 184 -152 330 -299 453 -455 777 -994 974 -1618 26 -82 79 -288
91 -348 31 -171 41 -229 54 -335 8 -66 18 -171 21 -232 l7 -113 -3933 0 -3932
0 7 117 c40 680 273 1367 662 1948 258 386 599 737 977 1008 128 91 259 176
273 176 6 1 31 -14 55 -32z"/>
</g>
</svg>
