<?xml version="1.0" encoding="utf-8"?>
<!-- Generator: Adobe Illustrator 26.0.3, SVG Export Plug-In . SVG Version: 6.00 Build 0)  -->
<svg version="1.1" id="Layer_1" xmlns="http://www.w3.org/2000/svg" xmlns:xlink="http://www.w3.org/1999/xlink" x="0px" y="0px"
	 viewBox="0 0 512 512" style="enable-background:new 0 0 512 512;" xml:space="preserve">
<style type="text/css">
	.st0{fill:#41B883;}
</style>
<g transform="translate(0.000000,512.000000) scale(0.100000,-0.100000)">
	<path class="st0" d="M2220,4486c-171-39-257-87-400-220c-60-55-172-159-249-231c-79-74-177-154-226-185c-203-129-446-365-601-585
		c-167-236-287-496-362-785c-38-145-51-256-61-510c-9-226-3-205-93-345c-114-176-148-277-148-440v-108l43,7c71,11,233,103,452,256
		c141,100,482,382,631,523c39,37,74,67,77,67c2,0,12-24,22-52c29-90,81-147,184-203c47-26,56-35,53-55c-2-14-4-70-5-125
		c-3-128,21-196,102-292c70-83,141-132,288-198l116-51l21-60c42-115,106-186,213-236c121-57,308-71,513-37c178,28,430,120,544,198
		l30,20l31-28c106-93,412-135,630-88c216,48,318,196,256,375l-18,54l47,54c26,30,65,87,86,127c34,65,38,81,42,165c3,72,0,103-13,138
		c-9,25-15,48-12,51c8,8,141-70,236-138c45-32,86-59,90-59s11,36,14,80c6,72,42,233,97,431c11,41,20,81,20,91s16,43,36,74
		c75,118,117,246,136,420c24,223-40,427-174,550c-82,76-207,145-448,249c-219,94-274,136-517,391c-61,64-153,138-202,164
		c-22,11-72,31-113,44c-70,24-73,26-74,58c-9,236-100,357-320,425c-82,25-348,25-446-1c-67-17-68-17-125,5c-48,18-82,22-203,25
		C2327,4498,2255,4495,2220,4486z M2626,4383c120-43,219-106,305-193c82-82,136-176,164-280c19-73,19-224-1-311c-9-39-14-73-11-75
		c3-3,17,20,32,51c81,165,47,414-83,609c-43,66-166,196-184,196c-4,0-8,7-8,15c0,21,60,29,179,22c217-13,362-90,410-219
		c18-48,23-142,11-208c-16-91-66-178-170-300c-49-57-95-116-102-130s-25-40-40-58c-16-18-28-37-28-42c0-25,35-4,110,65
		c72,66,120,93,120,67c0-5,36-37,80-72c133-104,229-227,278-355c44-117,56-218,48-414c-17-441-18-478-7-536c30-160,120-260,360-399
		c162-94,206-129,236-192c24-50,31-131,15-180c-16-47-119-224-131-224s-99,62-99,71c0,4,7,36,16,70c27,107,1,208-78,303
		c-42,51-187,146-268,175c-129,47-120,36-65,85l49,43l44-34c41-31,62-40,62-27c0,3-26,36-58,72c-32,37-89,108-127,157
		c-136,179-229,255-312,255c-43,0-96-28-113-59c-6-12-18-21-27-21c-27,0-11,154,23,225c32,69,69,91,137,81c76-12,125-65,197-211
		c33-68,60-128,60-133s7-15,16-23c13-11,14-9,8,17c-45,190-151,358-242,384c-107,29-179-20-234-161c-30-77-30-232-1-307
		c64-161,154-228,469-351c140-55,229-103,282-154c84-80,125-235,87-333c-34-90-113-155-235-195c-64-20-94-24-210-23
		c-112,0-148,4-210,23c-239,74-382,218-396,399c-3,37-2,85,3,107c9,39,10,40,51,38c60-3,94-31,132-112c19-38,37-68,40-66
		c12,8-6,91-31,140c-32,66-65,88-138,93c-78,6-171-23-271-82c-89-53-226-161-257-204c-15-20-53-45-105-70c-166-78-283-198-327-334
		c-7-21-17-38-23-38s-49,20-95,45c-264,143-363,281-350,486c9,145,47,209,239,405c118,121,143,154,119,154c-6,0-43-26-83-59
		c-86-69-201-193-258-280c-23-34-48-65-57-68c-35-14-141,63-172,126c-25,49-44,135-36,161c4,11,25,33,48,48c135,87,367,294,367,328
		c0,21-16,17-52-14c-18-16-143-112-278-214c-135-101-254-192-265-200c-64-52-204-173-269-232c-42-38-79-66-82-63
		c-6,5,145,247,210,335c237,327,493,521,791,599c38,10,66,23,64,28c-7,18-131,9-199-14c-170-59-297-139-444-281
		c-126-122-209-222-401-485c-179-246-259-344-263-323s58,171,110,268c56,102,148,234,257,364c50,60,89,112,86,115
		c-8,8-150-137-198-201c-37-52-57-70-57-51c0,16,101,165,170,252c181,225,399,391,592,450c38,11,80,27,95,36c27,16,26,16-43,11
		c-210-14-426-157-628-414c-43-54-66-74-66-57s83,148,127,200c80,95,102,115,220,194c75,51,165,89,268,115c106,26,155,29,250,11
		c176-32,162-31,143-9c-36,41-114,59-248,59c-105,0-136-4-195-24c-138-47-225-98-383-225c-56-46-151-165-196-247
		c-20-36-45-101-56-143c-21-84-29-100-131-251c-130-195-157-256-188-441c-24-137-44-174-123-226c-66-44-212-118-233-118
		s-29,41-22,121c7,78,25,126,98,246c96,158,109,193,118,312c7,92,13,117,46,191c49,107,175,320,228,383c47,57,155,151,261,226
		c69,50,89,71,68,71c-10,0-133-76-192-118c-65-48-175-157-232-232c-28-36-71-109-96-162c-26-54-50-97-54-98c-14,0,4,194,20,220
		c69,110,344,400,449,473c70,49,265,145,388,192c107,40,133,55,97,55c-55,0-284-78-379-130c-197-106-368-257-473-417
		c-76-116-89-111-45,17c38,111,119,206,380,444c160,145,218,186,365,257c157,77,175,84,305,129c138,47,167,66,87,56
		c-55-7-320-89-362-112c-14-7-50-25-80-39c-181-82-455-303-540-435c-29-46-60-71-60-50c0,16,108,227,158,310
		c133,221,312,404,471,485c101,50,326,116,451,131c104,13,223,15,290,4c41-6,90-14,108-17c29-5,33-3,30,13c-2,10-23,30-48,44
		c-39,22-57,25-137,25c-51-1-93,2-93,6c0,15,28,28,94,44c155,39,357,35,514-9c176-50,292-115,406-229c37-38,70-66,73-63
		s-12,29-33,57c-115,157-267,256-465,305c-91,23-117,25-238,21c-75-3-149-7-166-10c-71-11-212-55-310-98c-96-41-328-119-357-119
		c-20,0-5,31,25,51c17,12,37,27,42,34c44,50,272,168,433,224c176,60,266,75,477,75c188,0,191,0,285-32c52-17,118-47,145-65
		c100-68,179-172,214-279c19-59,35-60,28-3c-20,146-179,325-362,411c-112,52-193,69-330,68c-105,0-134-4-230-33
		c-99-28-287-112-387-172c-21-13-41-19-45-15c-16,16,136,120,262,180c112,54,154,68,280,95c17,3,89,6,160,5c113-1,140-5,210-28
		c239-81,403-246,470-474c12-40,26-72,31-70c23,7-9,146-57,245c-45,94-118,175-221,245c-59,40-98,58-233,108c-20,8-25,14-16,19
		c15,10,138-22,195-51c53-27,154-99,185-132c46-49,57-25,14,30c-34,45-132,114-203,143c-181,74-554,36-779-79c-80-40-66-7,34,80
		c79,69,179,123,281,151c57,16,94,18,209,15C2530,4413,2554,4409,2626,4383z M3586,3918c97-58,139-94,304-257
		c171-170,244-228,345-276c41-19,75-38,75-42c0-12-167,8-260,31c-134,35-161,43-262,82c-97,37-154,46-128,20c8-8,53-30,100-49
		s108-44,135-57c28-13,100-35,161-50c127-32,294-40,377-18c45,11,52,11,95-12c66-36,69-55,6-45c-27,4-96,9-154,10
		c-288,7-508,48-605,114c-53,35-55,36-55,17c0-22,115-94,187-116c87-27,153-36,378-55c345-29,485-73,590-187c45-48,59-72,80-139
		c32-103,41-220,26-343c-14-110-60-267-80-274c-16-5-13,33,14,181c30,167-2,317-91,436c-85,113-194,182-354,222
		c-70,17-106,20-205,17c-73-3-142-11-175-22c-30-9-66-20-79-24s-26-13-29-19c-6-20,55-16,116,7c66,25,263,28,361,5
		c204-49,342-200,387-425c13-67,16-115,11-230c-7-162-25-284-55-360c-3-8-11,44-18,115c-15,160-19,177-55,290
		c-91,286-318,475-570,475c-79,0-68-16,21-31c123-20,226-67,308-143c196-180,283-500,241-887c-19-171-42-221-73-160
		c-20,38-20,121-1,232c18,101,23,194,12,205c-20,20-26-13-57-316c-6-57-15-109-20-114c-6-6-19-5-36,2c-103,47-172,167-208,363
		c-68,358-82,406-148,506c-43,64-147,109-240,104c-28-2-21-20,10-27c137-30,216-121,271-311c35-124,77-350,66-361
		c-14-14-36,32-64,137c-32,120-45,147-57,116c-13-33,25-146,87-259c74-136,97-200,79-221c-7-8-18-15-26-15c-7,0-66,31-131,68
		c-65,38-148,85-184,105c-112,61-229,184-229,239c0,28,14,22,56-26c104-118,98-112,102-92c5,23-52,106-118,171c-49,48-50,50-50,109
		c0,49,24,229,45,341c3,15,22,26,78,44c102,32,226,28,310-11c172-81,307-343,338-656c14-149,18-172,30-172c7,0,9,44,6,128
		c-9,287-87,512-227,653c-70,71-121,102-197,120c-88,20-149,20-228-1c-41-11-76-20-78-20c-3,0-7,57-9,128c-5,110-10,139-38,216
		c-42,117-126,240-232,341c-47,44-96,88-109,97c-20,15-22,19-9,28c21,14,122,12,200-4c82-16,201-66,279-116c70-45,91-36,37,15
		c-86,80-267,142-448,152c-60,3-108,9-108,13c0,23,72,35,200,34s139-3,209-33c75-32,94-33,71-6c-25,30-116,65-199,77
		c-102,14-217,0-319-38c-37-14-76-28-87-31c-11-4,13,28,57,75c71,75,114,140,133,202c8,28,24,50,34,50
		C3513,3960,3547,3941,3586,3918z M3357,2084c18-17,51-37,74-44c37-13,45-12,77,6c20,10,46,37,59,59c12,22,26,40,31,40
		c7,0,53-53,115-133c12-15-14-47-57-69c-39-20-114-12-186,19c-92,41-201,156-200,210c1,7,13-3,28-22S3339,2101,3357,2084z
		 M2897,1631c-4-16-2-64,2-106c21-187,153-341,371-434c73-32,106-39,224-51c224-22,412,33,534,158c37,38,23,41,124-26
		c41-27,88-108,88-152c0-117-102-208-270-240c-68-13-268-14-327-2c-76,16-182,71-231,120c-23,23-45,42-47,42c-3,0-26-15-52-34
		c-66-47-193-108-288-139c-243-80-536-105-675-59c-118,40-202,114-215,192c-29,169,119,365,362,477c75,35,258,93,292,93
		c10,0,25,6,35,13c17,13,17,14,2,20c-20,8-163-11-188-24c-21-12-38-12-38,0c0,13,132,109,203,147C2883,1669,2905,1670,2897,1631z"/>
	<path class="st0" d="M1887,3513c-8-10-24-38-35-63c-70-168-53-291,80-570c119-247,147-367,118-491c-22-92-48-129-195-274
		c-130-128-185-193-185-220c0-5,26,17,58,50s107,108,167,167c130,126,177,203,195,313c22,135-8,249-115,447
		c-111,206-120,235-119,363c0,97,4,121,32,200c18,49,32,91,32,92C1920,3536,1901,3527,1887,3513z"/>
	<path class="st0" d="M2469,3367c-37-13-86-36-110-52c-53-36-149-134-149-152c0-19,17-16,40,7c38,38,124,87,195,110
		c120,40,276,22,403-46c123-66,244-92,351-75c94,15,309,116,290,136c-3,3-55-11-115-31c-91-31-127-37-220-42c-77-3-113-1-118,7
		c-4,6-15,11-25,11s-66,25-124,55C2691,3396,2599,3411,2469,3367z"/>
	<path class="st0" d="M2412,3160c-78-39-195-131-174-138c5-1,30,11,54,27c147,99,236,105,493,31c93-27,132-32,256-37l146-5l134,45
		c199,66,188,66,277,1c20-15,22-15,22,1c0,20-54,73-88,86s-153-7-262-43c-81-27-110-32-195-32c-92-1-113,3-276,52
		C2570,3216,2526,3217,2412,3160z"/>
	<path class="st0" d="M2769,2904c-19-22-115-69-195-95c-38-12-73-25-78-30c-6-5,1-20,17-37c15-15,27-38,27-49c0-12,4-25,10-28
		c16-10,144,33,193,66c81,54,109,105,87,159C2816,2923,2790,2929,2769,2904z"/>
	<path class="st0" d="M3340,2869c-15-55-8-78,37-122c45-46,123-85,184-93c46-6,47-6,64,30c10,20,26,41,36,47c11,5,19,14,19,19
		s-37,23-82,40c-110,42-201,88-211,106C3372,2923,3351,2911,3340,2869z"/>
	<path class="st0" d="M2755,2675c-5-2-30-9-54-15c-54-14-146-98-203-185c-22-33-82-147-133-253c-52-107-108-209-125-228
		c-16-19-30-39-30-45c0-16,29,4,48,33c9,14,35,52,56,84c22,33,58,95,81,139c144,277,212,366,312,412c49,23,59,24,100,13
		c67-16,97-42,131-112c33-68,67-176,58-185c-3-3-19,6-36,20c-73,62-176,58-278-10c-58-39-240-231-313-329c-52-70-210-229-284-285
		c-31-23-54-44-51-46c9-9,73,31,168,103c53,41,101,74,107,74s17-13,25-29c38-72,114-107,217-98c89,8,187,59,288,151
		c63,59,160,222,161,271c0,11,4,26,9,34c8,13,12,13,27,0c16-13,16-9,10,66c-20,215-78,345-175,395C2833,2669,2773,2682,2755,2675z
		 M2943,2302c26-29,30-74,13-142c-35-137-112-232-239-295c-118-58-209-59-329-4c-16,7-28,17-28,22c0,13,170,191,187,195
		c6,2,14-6,18-18c4-11,24-32,46-47c34-22,47-25,103-21c145,9,228,134,192,291c-7,30-5,37,6,37C2920,2320,2934,2312,2943,2302z"/>
	<path class="st0" d="M3840,2481c0-5,22-18,50-29c65-27,140-99,178-170c16-31,53-116,81-188c51-129,102-224,120-224c6,0,1,21-10,48
		c-12,26-45,112-75,191s-67,167-82,194c-36,67-103,134-155,156C3896,2481,3840,2493,3840,2481z"/>
</g>
</svg>
